<?xml version="1.0" encoding="UTF-8"?>
<svg xmlns="http://www.w3.org/2000/svg" width="220" height="220">
  <rect width="220" height="220" fill="#111111"/>
  <path d="M10 10h30v30z" stroke="#cecece"/>
  <rect x="60" y="10" width="20" height="20" stroke="#FFFFFF"/>
  <rect x="100" y="10" width="20" height="20" stroke="#FFF"/>
  <rect x="140" y="10" width="20" height="20" stroke="#000000"/>
  <rect x="180" y="10" width="20" height="20" stroke="#000"/>
  <rect x="10" y="60" width="20" height="20" fill="#FFFFFF"/>
  <rect x="60" y="60" width="20" height="20" fill="#FFF"/>
  <rect x="100" y="60" width="20" height="20" fill="#000000"/>
  <rect x="140" y="60" width="20" height="20" fill="#000"/>
  <path d="M180 60l20 20v-20z" style="fill: #FFFFFF"/>
  <path d="M10 110l20 20v-20z" style="fill: #FFF"/>
  <path d="M60 110l20 20v-20z" style="fill: #000000"/>
  <path d="M100 110l20 20v-20z" style="fill: #000"/>
  <circle cx="180" cy="130" r="15" fill="#0a59f7"/>
  <rect x="10" y="160" width="20" height="20" stroke="#cecece"/>
  <rect x="60" y="160" width="20" height="20" fill="#cecece"/>
  <path d="M100 160l20 20v-20z" style="fill: #cecece"/>
  <path d="M140 160l20 20v-20z" style="stroke: #cecece"/>
</svg>
