<svg xmlns="http://www.w3.org/2000/svg" xmlns:xlink="http://www.w3.org/1999/xlink" width="256" height="256" viewBox="0 0 256 256"><defs><clipPath id="b"><rect width="256" height="256"/></clipPath></defs><g id="a" clip-path="url(#b)"><g transform="translate(-101.891 -59)"><path d="M305.14,150.23h-.086A74.522,74.522,0,0,0,156.1,153.851v14.66a8.106,8.106,0,0,1-1.113,4.1L139.4,199.205a1.1,1.1,0,0,0,.945,1.649h8.453a8.723,8.723,0,0,1,5.477,1.923q.274.22.531.461a8.736,8.736,0,0,1,2.752,6.375v36.161a8.76,8.76,0,0,0,8.76,8.76h6.324a17.52,17.52,0,0,1,17.52,17.52v12.858a8.76,8.76,0,0,0,8.76,8.76h45.727v.069a2.191,2.191,0,0,1,1.642,2.121v10.95a2.191,2.191,0,0,1-1.642,2.121V309H198.915a24.09,24.09,0,0,1-24.09-24.09V272.055a2.19,2.19,0,0,0-2.19-2.19h-6.324a24.09,24.09,0,0,1-24.09-24.09V216.184H140.34a16.425,16.425,0,0,1-14.17-24.731l14.6-24.9v-12.7A89.852,89.852,0,0,1,320.4,150.23h.072a2.19,2.19,0,0,1-2.19,2.19H307.33A2.19,2.19,0,0,1,305.14,150.23Z" transform="translate(0)"/><path d="M496.306,555.1H454.843l-8.675,24.922H426.834l40.434-107.039h16.688l40.507,107.039H505.055Zm-36.243-15h31.024l-15.512-44.4Zm96.232,39.919H537.769V472.984h18.526Z" transform="translate(-220.014 -297.027)"/></g><ellipse cx="7.5" cy="7.75" rx="7.5" ry="7.75" transform="translate(136 234.5)"/><ellipse cx="7.695" cy="8.002" rx="7.695" ry="8.002" transform="translate(203 83.5)"/></g></svg>