<svg xmlns="http://www.w3.org/2000/svg" xmlns:xlink="http://www.w3.org/1999/xlink" width="256" height="256" viewBox="0 0 256 256">
  <defs>
    <clipPath id="clip-arrow_left">
      <rect width="256" height="256"/>
    </clipPath>
  </defs>
  <g id="arrow_left" clip-path="url(#clip-arrow_left)">
    <path id="路径_14" data-name="路径 14" d="M30.691,109.6,120.5,19.532a9.6,9.6,0,0,0,2.725-6.878A9.6,9.6,0,0,0,120.5,5.775a10.042,10.042,0,0,0-13.756,0L7.72,104.925a17.586,17.586,0,0,0-4.283,6.359,24,24,0,0,0,0,15.573,19.191,19.191,0,0,0,4.283,6.359L107,232.235a8.507,8.507,0,0,0,6.878,3.115,8.278,8.278,0,0,0,6.878-3.115,9.1,9.1,0,0,0,2.855-6.878,8.955,8.955,0,0,0-2.855-6.748L31.989,128.8H248.456a9.605,9.605,0,1,0,0-19.207Z" transform="translate(-2.059 9.144)"/>
  </g>
</svg>
