<svg xmlns="http://www.w3.org/2000/svg" xmlns:xlink="http://www.w3.org/1999/xlink" width="256" height="256" viewBox="0 0 256 256"><defs><style>.a{clip-path:url(#b);}</style><clipPath id="b"><rect width="256" height="256"/></clipPath></defs><g id="a" class="a"><path d="M20.19,5.02a9.019,9.019,0,0,0-6.284,2.444,8.227,8.227,0,0,0-2.676,6.167V86.01a8.592,8.592,0,0,0,.582,3.491,13.608,13.608,0,0,0,2.211,2.909l59.812,59.7A8.164,8.164,0,0,0,80,154.665a8.744,8.744,0,0,0,8.611-8.611,8.164,8.164,0,0,0-2.56-6.167L28.8,82.635v-69a8.611,8.611,0,0,0-2.444-6.167A8.612,8.612,0,0,0,20.19,5.02Z" transform="translate(107.705 41.663)"/><path d="M122.728,1.168a125.183,125.183,0,0,0-61.673,19.2A128.126,128.126,0,0,0,17.068,66.8,125.547,125.547,0,0,0,1.01,129.054a138.969,138.969,0,0,0,1.513,21.411,115.739,115.739,0,0,0,5.12,19.9l1.4,3.607a4.007,4.007,0,0,0,1.978,2.095,4.205,4.205,0,0,0,2.909.349,3.977,3.977,0,0,0,2.444-1.862l24.32-39.331a3.208,3.208,0,0,0,.465-2.676,4.218,4.218,0,0,0-1.4-2.56,4.049,4.049,0,0,0-2.793-.931H18.348A107.905,107.905,0,0,1,32.312,75.409,111.707,111.707,0,0,1,70.247,35.38,106.705,106.705,0,0,1,123.31,18.74a107.239,107.239,0,0,1,55.972,12.335,111.494,111.494,0,0,1,42.357,38.168A106.66,106.66,0,0,1,239.209,123.7a107.826,107.826,0,0,1-12.335,56.088,111.73,111.73,0,0,1-38.168,42.24A106.66,106.66,0,0,1,134.248,239.6a106.741,106.741,0,0,1-41.659-5.935A112.156,112.156,0,0,1,56.283,212.6a8.776,8.776,0,0,0-6.4-2.095,7.733,7.733,0,0,0-5.935,2.909,7.814,7.814,0,0,0-2.095,4.887,10.355,10.355,0,0,0,1.28,5.469,5.642,5.642,0,0,0,1.745,1.862,123.845,123.845,0,0,0,44.451,24.786q25.368,7.913,45.731,6.516a128.425,128.425,0,0,0,63.186-20.946,129.244,129.244,0,0,0,44.335-48.524,124.576,124.576,0,0,0,13.964-64.583A126.1,126.1,0,0,0,236.3,59.7a128.548,128.548,0,0,0-48.757-44.451A123.562,123.562,0,0,0,122.728,1.168Z" transform="translate(-1 -1.148)"/></g></svg>