<svg xmlns="http://www.w3.org/2000/svg" xmlns:xlink="http://www.w3.org/1999/xlink" width="256" height="256" viewBox="0 0 256 256">
  <defs>
    <clipPath id="clip-arrow_down">
      <rect width="256" height="256"/>
    </clipPath>
  </defs>
  <g id="arrow_down" clip-path="url(#clip-arrow_down)">
    <path id="路径_14" data-name="路径 14" d="M28.551,125.753l89.805,90.065A9.729,9.729,0,0,1,104.6,229.575L5.58,130.425A17.586,17.586,0,0,1,1.3,124.066a24,24,0,0,1,0-15.573,19.192,19.192,0,0,1,4.283-6.359l99.279-99.02A8.507,8.507,0,0,1,111.738,0a8.278,8.278,0,0,1,6.878,3.115,9.1,9.1,0,0,1,2.855,6.878,8.955,8.955,0,0,1-2.855,6.748L29.849,106.547H246.316a9.605,9.605,0,1,1,0,19.207Z" transform="translate(11.89 256.304) rotate(-90)"/>
  </g>
</svg>
