<svg xmlns="http://www.w3.org/2000/svg" xmlns:xlink="http://www.w3.org/1999/xlink" width="256" height="256" viewBox="0 0 256 256"><defs><style>.a{clip-path:url(#b);}.b{opacity:0;}</style><clipPath id="b"><rect width="256" height="256"/></clipPath></defs><g id="a" class="a"><path class="b" d="M0,0H214V214H0Z" transform="translate(21 21)"/><path d="M21.756,76.252l61.7-61.878a6.6,6.6,0,0,0,1.872-4.726,6.6,6.6,0,0,0-1.872-4.726,6.9,6.9,0,0,0-9.451,0L5.974,73.042a12.082,12.082,0,0,0-2.942,4.369,16.491,16.491,0,0,0,0,10.7,13.185,13.185,0,0,0,2.942,4.369l68.208,68.03a5.845,5.845,0,0,0,4.726,2.14,5.687,5.687,0,0,0,4.726-2.14,6.255,6.255,0,0,0,1.962-4.726,6.152,6.152,0,0,0-1.962-4.636l-60.986-61.7H171.368a6.6,6.6,0,1,0,0-13.2Z" transform="translate(37.941 45.144)"/></g></svg>