<svg xmlns="http://www.w3.org/2000/svg" xmlns:xlink="http://www.w3.org/1999/xlink" width="256" height="256" viewBox="0 0 256 256"><defs><style>.a{clip-path:url(#b);}.b{opacity:0;}</style><clipPath id="b"><rect width="256" height="256"/></clipPath></defs><g id="a" class="a"><path class="b" d="M0,0H204V204H0Z" transform="translate(26 26)"/><path d="M57.085,39.662A5.855,5.855,0,0,0,61.5,37.8a5.954,5.954,0,0,0,1.867-4.5,18.476,18.476,0,0,1,5.6-13.408,18.954,18.954,0,0,1,27.07,0,18.476,18.476,0,0,1,5.6,13.408A6.374,6.374,0,0,0,108,39.662h46.164A6.374,6.374,0,0,0,160.53,33.3a5.855,5.855,0,0,0-1.867-4.413,5.954,5.954,0,0,0-4.5-1.867H113.687A31.263,31.263,0,0,0,102.655,8.773,31.038,31.038,0,0,0,82.289,1.56,30.689,30.689,0,0,0,62.177,8.773,30.7,30.7,0,0,0,51.145,27.018H8.97a6.13,6.13,0,0,0-4.5,1.867A5.993,5.993,0,0,0,2.69,33.3a6.1,6.1,0,0,0,1.782,4.5,6.13,6.13,0,0,0,4.5,1.867Zm39.46,100.389a6.376,6.376,0,0,0,6.534-6.11l2.037-59.487a5.833,5.833,0,0,0-1.7-4.582,6.939,6.939,0,0,0-4.582-2.122,6.261,6.261,0,0,0-4.5,1.7,5.855,5.855,0,0,0-1.867,4.413l-2.206,59.487a5.468,5.468,0,0,0,1.7,4.582A6.939,6.939,0,0,0,96.545,140.052Zm-29.531,0A6.939,6.939,0,0,0,71.6,137.93a5.714,5.714,0,0,0,1.782-4.582L70.917,73.861a5.855,5.855,0,0,0-1.867-4.413,6.488,6.488,0,0,0-4.667-1.7,6.623,6.623,0,0,0-4.5,2.122,5.968,5.968,0,0,0-1.612,4.582l2.206,59.487a6.837,6.837,0,0,0,2.037,4.243A6.13,6.13,0,0,0,67.014,140.052Zm58.893,16.293a10.808,10.808,0,0,1-10.607,9.589H48.09a10.13,10.13,0,0,1-7.213-2.8,10.347,10.347,0,0,1-3.394-6.789L29.166,49.591H16.522l8.316,107.772a22.964,22.964,0,0,0,7.468,15.275,22.473,22.473,0,0,0,15.784,6.11H115.3a22.174,22.174,0,0,0,15.7-6.11,23.835,23.835,0,0,0,7.553-15.275L146.7,49.591H134.053Z" transform="translate(46.137 37.678)"/></g></svg>