<svg xmlns="http://www.w3.org/2000/svg" xmlns:xlink="http://www.w3.org/1999/xlink" width="256" height="256" viewBox="0 0 256 256"><defs><style>.a{clip-path:url(#b);}</style><clipPath id="b"><rect width="256" height="256"/></clipPath></defs><g id="a" class="a"><path d="M229.261,123.77,139.529,209.98a8.432,8.432,0,0,0-2.857,6.478,8.569,8.569,0,0,0,2.857,6.6,10.5,10.5,0,0,0,7.142,2.741,9.584,9.584,0,0,0,6.882-2.741l98.822-94.807a18.9,18.9,0,0,0,4.285-6.229,18.689,18.689,0,0,0,1.558-7.475,17.821,17.821,0,0,0-1.558-7.35,21.322,21.322,0,0,0-4.285-6.1L153.294,5.666a12.012,12.012,0,0,0-7.272-2.616,9.352,9.352,0,0,0-6.493,2.616,8.821,8.821,0,0,0-2.857,6.6,8.821,8.821,0,0,0,2.857,6.6l88.823,86.086H11.749a9.546,9.546,0,0,0-9.609,9.593,9.023,9.023,0,0,0,2.727,6.6,9.832,9.832,0,0,0,6.882,2.616Z" transform="translate(-2.219 13.468)"/></g></svg>