<svg xmlns="http://www.w3.org/2000/svg" xmlns:xlink="http://www.w3.org/1999/xlink" width="256" height="256" viewBox="0 0 256 256"><defs><style>.a{clip-path:url(#b);}.b{opacity:0;}</style><clipPath id="b"><rect width="256" height="256"/></clipPath></defs><g id="a" class="a"><path class="b" d="M0,0H214V214H0Z" transform="translate(21 21)"/><path d="M148.166,80.666,90.474,136.095a5.421,5.421,0,0,0-1.837,4.165,5.509,5.509,0,0,0,1.837,4.245,6.754,6.754,0,0,0,4.592,1.762,6.162,6.162,0,0,0,4.425-1.762L163.028,83.55a12.15,12.15,0,0,0,2.755-4,12.016,12.016,0,0,0,1-4.806,11.458,11.458,0,0,0-1-4.726,13.709,13.709,0,0,0-2.755-3.925L99.324,4.732A7.723,7.723,0,0,0,94.648,3.05a6.013,6.013,0,0,0-4.175,1.682,5.671,5.671,0,0,0-1.837,4.245,5.671,5.671,0,0,0,1.837,4.245l57.108,55.349H8.318A6.138,6.138,0,0,0,2.14,74.739a5.8,5.8,0,0,0,1.753,4.245,6.321,6.321,0,0,0,4.425,1.682Z" transform="translate(43.781 53.468)"/></g></svg>