<svg xmlns="http://www.w3.org/2000/svg" xmlns:xlink="http://www.w3.org/1999/xlink" width="256" height="256" viewBox="0 0 256 256"><defs><clipPath id="b"><rect width="256" height="256"/></clipPath></defs><g id="a" clip-path="url(#b)"><g transform="translate(-3 -3)"><rect width="263" height="263" opacity="0"/><g transform="translate(31.546 18.244)"><path d="M77.246,17.594a25.146,25.146,0,0,0-15.991,9.091A26,26,0,0,0,54.9,44.1v93.864q0,7.667-2.519,12.267a19.9,19.9,0,0,1-6.681,7.448,106.946,106.946,0,0,1-12.815,7.338l-.876.548a109.363,109.363,0,0,0-15.991,9.31,33.085,33.085,0,0,0-10.3,12.815,29.254,29.254,0,0,0-2.738,15.005,26.067,26.067,0,0,0,5.148,13.581,25.93,25.93,0,0,0,10.076,8.543,30.872,30.872,0,0,0,13.8,3.067,41.232,41.232,0,0,0,19.058-4.6A38.051,38.051,0,0,0,65.745,210.36a32.987,32.987,0,0,0,5.476-18.729V83.857L186.115,64.909V113.32q0,10.734-5.367,16.1-5.476,5.367-17.524,11.172l-.11.11-.11.219a88.989,88.989,0,0,0-15.991,9.2,34.2,34.2,0,0,0-10.3,12.815,28.615,28.615,0,0,0-2.848,15.005,26.194,26.194,0,0,0,5.148,13.691,26.875,26.875,0,0,0,12.157,9.31,31.792,31.792,0,0,0,16.21,1.971q12.157-1.533,20.043-7.776a36.722,36.722,0,0,0,11.391-14.019,35.056,35.056,0,0,0,3.614-14.457V29.642a27.384,27.384,0,0,0-4.6-15.334,27.293,27.293,0,0,0-12.157-10.3A27.9,27.9,0,0,0,169.8,2.041ZM34.421,211.346A14.741,14.741,0,0,1,25,209.922a11.2,11.2,0,0,1-5.257-6.462,11.934,11.934,0,0,1,.986-8.981,17.848,17.848,0,0,1,6.243-7.338A93.159,93.159,0,0,1,39.13,180.35q3.943-1.862,8.214-4.162a51.462,51.462,0,0,0,7.557-4.819v17.086q0,6.353-4.052,13.91Q46.8,210.031,34.421,211.346ZM71.441,44.1a9.9,9.9,0,0,1,2.519-6.791,10.051,10.051,0,0,1,6.243-3.4l92.221-15.553a11.649,11.649,0,0,1,9.419,2.629,10.583,10.583,0,0,1,4.272,8.653V48.371L71.441,67.319Zm94.193,142.494a15.481,15.481,0,0,1-9.748-1.862,10.31,10.31,0,0,1-5.038-6.353,12.669,12.669,0,0,1,1.1-8.543,17.015,17.015,0,0,1,6.133-7.557,111.772,111.772,0,0,1,11.938-6.681h.329l.548-.219q3.943-1.862,8-4.162a56.032,56.032,0,0,0,7.229-4.6V163.7a32.252,32.252,0,0,1-1.314,8.872,19.394,19.394,0,0,1-5.8,8.762Q174.5,185.607,165.633,186.593Z" transform="translate(-2.88 -1.666)"/></g></g></g></svg>