<svg xmlns="http://www.w3.org/2000/svg" xmlns:xlink="http://www.w3.org/1999/xlink" width="256" height="256" viewBox="0 0 256 256">
  <defs>
    <clipPath id="clip-card">
      <rect width="256" height="256"/>
    </clipPath>
  </defs>
  <g id="card" clip-path="url(#clip-card)">
    <g id="组_36" data-name="组 36">
      <g id="组_35" data-name="组 35" transform="translate(20.228 20.121)">
        <path id="交叉_4" data-name="交叉 4" d="M-3057.936-1179.413a27.728,27.728,0,0,1-14.585-4.046,29.707,29.707,0,0,1-10.539-10.646A28.858,28.858,0,0,1-3087-1208.8v-37.368a28.291,28.291,0,0,1,3.939-14.585,29.982,29.982,0,0,1,10.539-10.54,28.3,28.3,0,0,1,14.585-3.938h37.368a28.867,28.867,0,0,1,14.692,3.938,29.712,29.712,0,0,1,10.646,10.54,27.723,27.723,0,0,1,4.046,14.585v37.368a28.276,28.276,0,0,1-4.046,14.692,29.442,29.442,0,0,1-10.646,10.646,28.276,28.276,0,0,1-14.692,4.046Zm-9.262-76.013a12.515,12.515,0,0,0-4.046,9.262v37.368a12.411,12.411,0,0,0,4.046,9.369,12.853,12.853,0,0,0,9.262,3.832h37.368a12.855,12.855,0,0,0,9.263-3.832,12.573,12.573,0,0,0,3.938-9.369v-37.368a12.677,12.677,0,0,0-3.938-9.262,12.516,12.516,0,0,0-9.263-4.045h-37.368A12.514,12.514,0,0,0-3067.2-1255.426Z" transform="translate(3091 1280)"/>
        <path id="交叉_7" data-name="交叉 7" d="M-3057.936-1179.413a27.728,27.728,0,0,1-14.585-4.046,29.707,29.707,0,0,1-10.539-10.646A28.858,28.858,0,0,1-3087-1208.8v-37.368a28.291,28.291,0,0,1,3.939-14.585,29.982,29.982,0,0,1,10.539-10.54,28.3,28.3,0,0,1,14.585-3.938h37.368a28.867,28.867,0,0,1,14.692,3.938,29.712,29.712,0,0,1,10.646,10.54,27.723,27.723,0,0,1,4.046,14.585v37.368a28.276,28.276,0,0,1-4.046,14.692,29.442,29.442,0,0,1-10.646,10.646,28.276,28.276,0,0,1-14.692,4.046Zm-9.262-76.013a12.515,12.515,0,0,0-4.046,9.262v37.368a12.411,12.411,0,0,0,4.046,9.369,12.853,12.853,0,0,0,9.262,3.832h37.368a12.855,12.855,0,0,0,9.263-3.832,12.573,12.573,0,0,0,3.938-9.369v-37.368a12.677,12.677,0,0,0-3.938-9.262,12.516,12.516,0,0,0-9.263-4.045h-37.368A12.514,12.514,0,0,0-3067.2-1255.426Z" transform="translate(3203 1280)"/>
        <path id="交叉_8" data-name="交叉 8" d="M-3057.936-1179.413a27.728,27.728,0,0,1-14.585-4.046,29.707,29.707,0,0,1-10.539-10.646A28.858,28.858,0,0,1-3087-1208.8v-37.368a28.291,28.291,0,0,1,3.939-14.585,29.982,29.982,0,0,1,10.539-10.54,28.3,28.3,0,0,1,14.585-3.938h37.368a28.867,28.867,0,0,1,14.692,3.938,29.712,29.712,0,0,1,10.646,10.54,27.723,27.723,0,0,1,4.046,14.585v37.368a28.276,28.276,0,0,1-4.046,14.692,29.442,29.442,0,0,1-10.646,10.646,28.276,28.276,0,0,1-14.692,4.046Zm-9.262-76.013a12.515,12.515,0,0,0-4.046,9.262v37.368a12.411,12.411,0,0,0,4.046,9.369,12.853,12.853,0,0,0,9.262,3.832h37.368a12.855,12.855,0,0,0,9.263-3.832,12.573,12.573,0,0,0,3.938-9.369v-37.368a12.677,12.677,0,0,0-3.938-9.262,12.516,12.516,0,0,0-9.263-4.045h-37.368A12.514,12.514,0,0,0-3067.2-1255.426Z" transform="translate(3091 1392)"/>
        <path id="交叉_9" data-name="交叉 9" d="M-3057.936-1179.413a27.728,27.728,0,0,1-14.585-4.046,29.707,29.707,0,0,1-10.539-10.646A28.858,28.858,0,0,1-3087-1208.8v-37.368a28.291,28.291,0,0,1,3.939-14.585,29.982,29.982,0,0,1,10.539-10.54,28.3,28.3,0,0,1,14.585-3.938h37.368a28.867,28.867,0,0,1,14.692,3.938,29.712,29.712,0,0,1,10.646,10.54,27.723,27.723,0,0,1,4.046,14.585v37.368a28.276,28.276,0,0,1-4.046,14.692,29.442,29.442,0,0,1-10.646,10.646,28.276,28.276,0,0,1-14.692,4.046Zm-9.262-76.013a12.515,12.515,0,0,0-4.046,9.262v37.368a12.411,12.411,0,0,0,4.046,9.369,12.853,12.853,0,0,0,9.262,3.832h37.368a12.855,12.855,0,0,0,9.263-3.832,12.573,12.573,0,0,0,3.938-9.369v-37.368a12.677,12.677,0,0,0-3.938-9.262,12.516,12.516,0,0,0-9.263-4.045h-37.368A12.514,12.514,0,0,0-3067.2-1255.426Z" transform="translate(3203 1392)"/>
      </g>
    </g>
  </g>
</svg>
