<svg xmlns="http://www.w3.org/2000/svg" xmlns:xlink="http://www.w3.org/1999/xlink" width="256" height="256" viewBox="0 0 256 256"><defs><style>.a{clip-path:url(#b);}.b{opacity:0;}</style><clipPath id="b"><rect width="256" height="256"/></clipPath></defs><g id="a" class="a"><g transform="translate(26.318 26)"><rect class="b" width="204" height="204" transform="translate(-0.318)"/><g transform="translate(29.921 7.978)"><path d="M102.349,68.749a4.448,4.448,0,0,1-3.9-3.9V19.865a18.276,18.276,0,0,0-2.546-9.59,19.5,19.5,0,0,0-6.789-6.789,18.7,18.7,0,0,0-18.841,0,18.736,18.736,0,0,0-9.505,16.379v44.98a3.98,3.98,0,0,1-1.1,2.8,3.5,3.5,0,0,1-2.546,1.1H34.709a22.554,22.554,0,0,0-11.627,3.14,23.684,23.684,0,0,0-8.4,8.487,21.667,21.667,0,0,0-3.225,11.542l-.17,48.29a129.215,129.215,0,0,1-1.7,22.15q-1.782,9.675-4.837,14.512a7.529,7.529,0,0,0-1.1,5.432,8.082,8.082,0,0,0,2.546,4.583,7.218,7.218,0,0,0,4.922,1.782H123.905a22.262,22.262,0,0,0,11.627-3.14,24.158,24.158,0,0,0,8.487-8.572,22.71,22.71,0,0,0,3.14-11.712V91.918a22.107,22.107,0,0,0-3.14-11.542,24.379,24.379,0,0,0-8.487-8.487,22.262,22.262,0,0,0-11.627-3.14Zm-45.4,12.645A16.373,16.373,0,0,0,73.409,64.845V19.865a5.856,5.856,0,0,1,1.867-4.413,5.941,5.941,0,0,1,4.243-1.7,6.152,6.152,0,0,1,4.413,1.7,6.152,6.152,0,0,1,1.7,4.413v44.98a15.638,15.638,0,0,0,4.922,11.712,16.052,16.052,0,0,0,11.8,4.837h21.556a10.342,10.342,0,0,1,7.468,3.055,10.021,10.021,0,0,1,3.14,7.468v4.5H24.1v-4.5a10.021,10.021,0,0,1,3.14-7.468,10.531,10.531,0,0,1,7.468-3.055Zm44.81,94.458a72.118,72.118,0,0,0,5.262-26.479v-25.46a6.131,6.131,0,0,0-1.867-4.5,5.994,5.994,0,0,0-4.413-1.782,6.232,6.232,0,0,0-6.365,6.28v25.46a52.8,52.8,0,0,1-1.782,13.07,82.934,82.934,0,0,1-4.922,13.409H59.321a71.433,71.433,0,0,0,5.516-26.479v-25.46a6.095,6.095,0,0,0-6.28-6.28,6.577,6.577,0,0,0-4.583,1.782,6,6,0,0,0-1.952,4.5v25.46a54.166,54.166,0,0,1-1.7,13.154,70.518,70.518,0,0,1-5.007,13.324H19.263Q24.1,161.594,24.1,140.208V109.061H134.513v56.182a10.436,10.436,0,0,1-10.608,10.608Z" transform="translate(-3.526 -0.94)"/></g></g></g></svg>