<svg xmlns="http://www.w3.org/2000/svg" xmlns:xlink="http://www.w3.org/1999/xlink" width="256" height="256" viewBox="0 0 256 256"><defs><style>.a{clip-path:url(#b);}</style><clipPath id="b"><rect width="256" height="256"/></clipPath></defs><g id="a" class="a"><path d="M138.3,93.418a6.067,6.067,0,0,1-5.324-5.324V26.751A24.924,24.924,0,0,0,129.5,13.672a26.6,26.6,0,0,0-9.259-9.259,25.5,25.5,0,0,0-25.695,0A25.552,25.552,0,0,0,81.587,26.751V88.094a5.429,5.429,0,0,1-1.5,3.82,4.77,4.77,0,0,1-3.472,1.5H46.054A30.759,30.759,0,0,0,30.2,97.7a32.3,32.3,0,0,0-11.459,11.574,29.549,29.549,0,0,0-4.4,15.741l-.231,65.857a176.224,176.224,0,0,1-2.315,30.209q-2.431,13.195-6.6,19.792a10.269,10.269,0,0,0-1.5,7.408,11.023,11.023,0,0,0,3.472,6.25,9.844,9.844,0,0,0,6.713,2.431H167.7a30.362,30.362,0,0,0,15.857-4.282,32.947,32.947,0,0,0,11.574-11.69,30.972,30.972,0,0,0,4.282-15.972v-100a30.15,30.15,0,0,0-4.282-15.741A33.248,33.248,0,0,0,183.556,97.7,30.361,30.361,0,0,0,167.7,93.418ZM76.379,110.664a22.33,22.33,0,0,0,22.454-22.57V26.751a7.986,7.986,0,0,1,2.546-6.019,8.1,8.1,0,0,1,5.787-2.315,8.39,8.39,0,0,1,6.019,2.315,8.39,8.39,0,0,1,2.315,6.019V88.094a21.327,21.327,0,0,0,6.713,15.972,21.891,21.891,0,0,0,16.088,6.6h29.4a14.1,14.1,0,0,1,10.185,4.167,13.667,13.667,0,0,1,4.282,10.185v6.134H31.586v-6.134a13.667,13.667,0,0,1,4.282-10.185,14.363,14.363,0,0,1,10.185-4.167Zm61.112,128.821a98.355,98.355,0,0,0,7.176-36.112V168.651a8.361,8.361,0,0,0-2.546-6.134,8.174,8.174,0,0,0-6.019-2.431,8.5,8.5,0,0,0-8.681,8.565v34.723A72.015,72.015,0,0,1,124.99,221.2a113.1,113.1,0,0,1-6.713,18.287H79.619q7.523-18.866,7.523-36.112V168.651a8.312,8.312,0,0,0-8.565-8.565,8.97,8.97,0,0,0-6.25,2.431,8.183,8.183,0,0,0-2.662,6.134v34.723a73.872,73.872,0,0,1-2.315,17.94,96.173,96.173,0,0,1-6.829,18.172H24.989q6.6-19.445,6.6-48.612V148.4H182.167v76.622A14.233,14.233,0,0,1,167.7,239.485Z" transform="translate(26.474 -0.94)"/></g></svg>