<svg xmlns="http://www.w3.org/2000/svg" xmlns:xlink="http://www.w3.org/1999/xlink" width="256" height="256" viewBox="0 0 256 256"><defs><style>.a{clip-path:url(#b);}</style><clipPath id="b"><rect width="256" height="256"/></clipPath></defs><g id="a" class="a"><path d="M4.76,4.75A7.894,7.894,0,0,0,2.52,10.4a7.894,7.894,0,0,0,2.24,5.653L190.68,201.87a7.843,7.843,0,0,0,5.653,2.453,6.766,6.766,0,0,0,5.547-2.453,7.36,7.36,0,0,0,2.347-5.547,7.484,7.484,0,0,0-2.347-5.653L16.067,4.75a7.894,7.894,0,0,0-5.653-2.24A7.894,7.894,0,0,0,4.76,4.75Z" transform="translate(24.48 24.491)"/><path d="M201.986,4.75a7.894,7.894,0,0,1,2.24,5.653,7.894,7.894,0,0,1-2.24,5.653L16.067,201.87a7.843,7.843,0,0,1-5.653,2.453,6.766,6.766,0,0,1-5.547-2.453,7.36,7.36,0,0,1-2.347-5.547,7.484,7.484,0,0,1,2.347-5.653L190.68,4.75a8.254,8.254,0,0,1,11.307,0Z" transform="translate(24.48 24.49)"/></g></svg>