<svg xmlns="http://www.w3.org/2000/svg" xmlns:xlink="http://www.w3.org/1999/xlink" width="256" height="256" viewBox="0 0 256 256"><defs><clipPath id="b"><rect width="256" height="256"/></clipPath></defs><g id="a" clip-path="url(#b)"><path d="M390.816,202.065a26.833,26.833,0,0,1,0,37.941l-18.98,18.962a6.708,6.708,0,0,0,0,9.5l4.74,4.74a20.1,20.1,0,0,1,0,28.46l-9.481,9.481a6.708,6.708,0,0,1-9.481,0l-14.239-14.221L242.432,397.871l-2.057,1.914a40.249,40.249,0,0,1-17.352,8.837l-39.963,9.213-.894.161a6.708,6.708,0,0,1-7.281-7.3l.143-.894,9.213-39.963a40.249,40.249,0,0,1,8.837-17.352l1.932-2.057L295.936,249.5l-14.221-14.239a6.708,6.708,0,0,1,0-9.481L291.2,216.3a20.1,20.1,0,0,1,28.46,0l4.74,4.74a6.708,6.708,0,0,0,9.481,0l18.98-18.98a26.833,26.833,0,0,1,37.959,0ZM209.249,364.67a19.943,19.943,0,0,0-5.384,9.7l-4.4,19.033,19.033-4.383a20.324,20.324,0,0,0,9.713-5.367L329.137,282.706l-18.962-18.98L209.231,364.67Z" transform="translate(-158.764 -178.111)"/></g></svg>