<svg xmlns="http://www.w3.org/2000/svg" xmlns:xlink="http://www.w3.org/1999/xlink" width="256" height="256" viewBox="0 0 256 256"><defs><style>.a{clip-path:url(#b);}</style><clipPath id="b"><rect width="256" height="256"/></clipPath></defs><g id="a" class="a"><g transform="translate(7.492 24.392)"><g transform="translate(-7.492 -20.392)"><path d="M194.556,202.815a11.988,11.988,0,0,0,3.456,8.64,11.774,11.774,0,0,0,8.64,3.58,12.186,12.186,0,0,0,8.764-3.58,11.58,11.58,0,0,0,3.7-8.64,11.842,11.842,0,0,0-3.7-8.64,11.98,11.98,0,0,0-8.764-3.7,11.58,11.58,0,0,0-8.64,3.7A12.265,12.265,0,0,0,194.556,202.815Zm62.457-5.925a35.364,35.364,0,0,1,.617,5.678,46.98,46.98,0,0,1-6.048,23.452,45.629,45.629,0,0,1-16.787,16.787,44.445,44.445,0,0,1-23.082,6.3H47.917a45.1,45.1,0,0,1-23.205-6.3A46.425,46.425,0,0,1,1.63,202.569,34.237,34.237,0,0,1,2,196.891L21.75,45.562a44.981,44.981,0,0,1,8.887-21.724A55.246,55.246,0,0,1,49.028,7.915,47.489,47.489,0,0,1,71.863,1.99h115.78a47.489,47.489,0,0,1,22.835,5.925,53.516,53.516,0,0,1,18.268,16.046,46.372,46.372,0,0,1,8.764,21.848ZM25.082,162.576a47.857,47.857,0,0,1,10.739-4.444,45.333,45.333,0,0,1,11.726-1.481H211.713a46.756,46.756,0,0,1,11.85,1.481,42.721,42.721,0,0,1,10.615,4.444l-15.059-114.3q-1.481-11.356-10.862-19.626a30.5,30.5,0,0,0-20.86-8.27H71.863q-11.232,0-20.737,8.27T40.141,48.277Zm186.631,67.888a27.668,27.668,0,0,0,19.379-47.275,26.467,26.467,0,0,0-19.379-8.147H47.547a26.67,26.67,0,0,0-19.379,8.023,26.089,26.089,0,0,0-8.147,19.5,26.894,26.894,0,0,0,8.147,19.749,26.894,26.894,0,0,0,19.749,8.147Z" transform="translate(-1.63 -1.99)"/></g></g></g></svg>