<svg xmlns="http://www.w3.org/2000/svg" xmlns:xlink="http://www.w3.org/1999/xlink" width="256" height="256" viewBox="0 0 256 256"><defs><style>.a{clip-path:url(#b);}</style><clipPath id="b"><rect width="256" height="256"/></clipPath></defs><g id="a" class="a"><g transform="translate(-167 44)"><g transform="translate(167.113 -43.887)"><path d="M128.953,1.01A125.45,125.45,0,0,0,64.807,18.123,128.229,128.229,0,0,0,18.123,64.807,125.45,125.45,0,0,0,1.01,128.953,125.45,125.45,0,0,0,18.123,193.1a128.229,128.229,0,0,0,46.684,46.684A125.45,125.45,0,0,0,128.953,256.9,125.45,125.45,0,0,0,193.1,239.783,128.229,128.229,0,0,0,239.783,193.1,125.45,125.45,0,0,0,256.9,128.953a125.45,125.45,0,0,0-17.113-64.146A128.229,128.229,0,0,0,193.1,18.123,125.45,125.45,0,0,0,128.953,1.01Zm57.86,119.328A185.535,185.535,0,0,0,179.479,74.7a157.141,157.141,0,0,0,35.275-15.6,111.412,111.412,0,0,1,24.331,61.236Zm-98.373,0a168.809,168.809,0,0,1,6.752-41.445,151.813,151.813,0,0,0,33.645,3.376,172.269,172.269,0,0,0,33.878-3.027,161.97,161.97,0,0,1,6.752,41.1Zm81.027,17.23a182.085,182.085,0,0,1-7.218,41.1,168.72,168.72,0,0,0-66.591,0,182.086,182.086,0,0,1-7.218-41.1Zm4.773-79.281a186.759,186.759,0,0,0-18.51-36.672A111.134,111.134,0,0,1,202.18,46.3,158.491,158.491,0,0,1,174.24,58.288Zm-41.678-39.7a173.934,173.934,0,0,1,24.564,43.89,155.984,155.984,0,0,1-28.057,2.445,137.049,137.049,0,0,1-28.057-2.794,201.836,201.836,0,0,1,10.943-22.585,153.726,153.726,0,0,1,13.97-20.955,23.021,23.021,0,0,1,3.26-.233A23.854,23.854,0,0,1,132.562,18.589ZM84.016,57.938a147.352,147.352,0,0,1-28.29-11.991A107.793,107.793,0,0,1,77.38,31.162a118.678,118.678,0,0,1,24.8-9.546A180.463,180.463,0,0,0,84.016,57.938ZM43.5,58.87a175.376,175.376,0,0,0,34.925,15.6,191.273,191.273,0,0,0-7.334,45.519H18.822a102.8,102.8,0,0,1,7.567-32.481A111.679,111.679,0,0,1,43.5,58.87Zm27.591,78.7A197.14,197.14,0,0,0,78.661,183.2,162.7,162.7,0,0,0,43.5,198.8a114.374,114.374,0,0,1-17.113-28.639,103.01,103.01,0,0,1-7.567-32.6Zm13.388,62.051a179.718,179.718,0,0,0,19.093,36.9A121.222,121.222,0,0,1,78.2,226.861,115.759,115.759,0,0,1,55.726,211.61,161.143,161.143,0,0,1,84.482,199.619Zm42.842,39.7a151.028,151.028,0,0,1-12.34-17.23,168.31,168.31,0,0,1-10.012-18.86l-3.376-7.8a151.736,151.736,0,0,1,27.591-2.794,144.377,144.377,0,0,1,27.125,2.794q-.582,1.746-3.842,8.964-4.54,9.546-9.779,18.278a142.412,142.412,0,0,1-11.758,16.648h-3.609Zm46.334-39.931A153.279,153.279,0,0,1,202.18,211.61a113.419,113.419,0,0,1-22.236,15.367,100.706,100.706,0,0,1-25.263,9.546A207.393,207.393,0,0,0,173.658,199.386Zm41.1-.582a179.131,179.131,0,0,0-35.507-15.949,172.319,172.319,0,0,0,7.567-45.287h52.5a110.256,110.256,0,0,1-7.684,32.83A107.052,107.052,0,0,1,214.753,198.8Z" transform="translate(-1.01 -1.01)"/></g></g></g></svg>