<svg xmlns="http://www.w3.org/2000/svg" xmlns:xlink="http://www.w3.org/1999/xlink" width="256" height="256" viewBox="0 0 256 256"><defs><style>.a{clip-path:url(#l);}.b{fill:url(#a);}.c{fill:url(#d);}.d{stroke:rgba(255,255,255,0.16);fill:url(#g);}.e{fill:#fff;stroke:rgba(255,255,255,0.23);}.f{fill:url(#h);}.g{fill:#74a9d5;stroke:#74a9d5;stroke-width:7px;}.h{stroke:none;}.i{fill:none;}.j{filter:url(#i);}.k{filter:url(#e);}.l{filter:url(#b);}</style><linearGradient id="a" x1="0.5" x2="0.5" y2="1" gradientUnits="objectBoundingBox"><stop offset="0" stop-color="#6da8d5"/><stop offset="1" stop-color="#b6bddf"/></linearGradient><filter id="b" x="-1" y="20" width="258" height="234" filterUnits="userSpaceOnUse"><feOffset dy="-9" input="SourceAlpha"/><feGaussianBlur stdDeviation="7" result="c"/><feFlood flood-opacity="0.161"/><feComposite operator="in" in2="c"/><feComposite in="SourceGraphic"/></filter><linearGradient id="d" x1="0.048" y1="0.052" x2="0.944" y2="0.964" gradientUnits="objectBoundingBox"><stop offset="0" stop-color="#375b91"/><stop offset="1" stop-color="#2d292d"/></linearGradient><filter id="e" x="16.855" y="-19.077" width="222.384" height="222.383" filterUnits="userSpaceOnUse"><feOffset dy="3" input="SourceAlpha"/><feGaussianBlur stdDeviation="7.5" result="f"/><feFlood flood-opacity="0.161"/><feComposite operator="in" in2="f"/><feComposite in="SourceGraphic"/></filter><linearGradient id="g" x1="0.791" y1="0.783" x2="0.123" y2="0.164" gradientUnits="objectBoundingBox"><stop offset="0" stop-color="#52dac4"/><stop offset="1" stop-color="#70b5ea"/></linearGradient><linearGradient id="h" x1="0.5" x2="0.5" y2="1" gradientUnits="objectBoundingBox"><stop offset="0" stop-color="#fff"/><stop offset="1" stop-color="#d3d3d3"/></linearGradient><filter id="i" x="-1" y="98" width="258" height="156" filterUnits="userSpaceOnUse"><feOffset dy="-9" input="SourceAlpha"/><feGaussianBlur stdDeviation="7" result="j"/><feFlood flood-opacity="0.161"/><feComposite operator="in" in2="j"/><feComposite in="SourceGraphic"/></filter><clipPath id="l"><rect width="256" height="256"/></clipPath></defs><g id="k" class="a"><g class="l" transform="matrix(1, 0, 0, 1, 0, 0)"><rect class="b" width="216" height="192" rx="20" transform="translate(20 50)"/></g><g class="k" transform="matrix(1, 0, 0, 1, 0, 0)"><rect class="c" width="159.172" height="159.172" rx="79.586" transform="translate(197.34 0.42) rotate(83)"/></g><g class="d" transform="translate(77 56)"><circle class="h" cx="33.5" cy="33.5" r="33.5"/><circle class="i" cx="33.5" cy="33.5" r="33"/></g><g class="e" transform="translate(112 56)"><circle class="h" cx="33.5" cy="33.5" r="33.5"/><circle class="i" cx="33.5" cy="33.5" r="33"/></g><g class="j" transform="matrix(1, 0, 0, 1, 0, 0)"><path class="f" d="M20,0H196c11.046,0,20,9.2,20,20.541V93.459C216,104.8,207.046,114,196,114H20C8.954,114,0,104.8,0,93.459V20.541C0,9.2,8.954,0,20,0Z" transform="translate(20 128)"/></g><path class="g" d="M4.831,21.279l15.2,15.24A1.646,1.646,0,0,1,17.7,38.846L.944,22.069A2.976,2.976,0,0,1,.22,20.993a4.061,4.061,0,0,1,0-2.635,3.247,3.247,0,0,1,.725-1.076L17.743.527A1.44,1.44,0,0,1,18.907,0a1.4,1.4,0,0,1,1.164.527,1.541,1.541,0,0,1,.483,1.164,1.515,1.515,0,0,1-.483,1.142l-15.02,15.2H41.679a1.625,1.625,0,1,1,0,3.25Z" transform="translate(182.883 221.304) rotate(-90)"/></g></svg>