<svg xmlns="http://www.w3.org/2000/svg" xmlns:xlink="http://www.w3.org/1999/xlink" width="256" height="256" viewBox="0 0 256 256"><defs><style>.a{clip-path:url(#b);}</style><clipPath id="b"><rect width="256" height="256"/></clipPath></defs><g id="a" class="a"><path d="M-83.616-62.608l6.24-20.592c4.992-16.64,9.776-33.488,14.144-50.96h.832c4.784,17.264,9.36,34.32,14.56,50.96l6.032,20.592ZM-23.088,0H2.5L-48.256-153.088H-76.128L-126.88,0h24.544l13.1-43.68h53.248Zm75.5,2.7c13.728,0,26-6.864,36.4-15.808h.624L91.52,0h19.552V-68.848c0-30.368-13.1-48.464-41.6-48.464-18.3,0-34.32,7.488-46.176,14.976L32.24-86.112c9.776-6.24,21.008-11.648,33.072-11.648,16.848,0,21.632,11.648,21.84,24.96C39.52-67.6,18.72-54.912,18.72-30.368,18.72-10.192,32.656,2.7,52.416,2.7ZM59.7-16.224c-10.192,0-17.888-4.576-17.888-15.808,0-12.9,11.44-21.424,45.344-25.584v28.08C77.792-21.008,69.68-16.224,59.7-16.224Z" transform="translate(131 203)"/></g></svg>