<svg xmlns="http://www.w3.org/2000/svg" xmlns:xlink="http://www.w3.org/1999/xlink" width="256" height="256" viewBox="0 0 256 256"><defs><style>.a{clip-path:url(#b);}</style><clipPath id="b"><rect width="256" height="256"/></clipPath></defs><g id="a" class="a"><path d="M208.749,256c-6.66,0-11.1-4.44-11.1-11.1V201.612c1.11-8.88-2.22-15.54-7.77-21.09-3.33-3.33-4.44-7.77-2.22-11.1,1.11-4.44,5.55-6.66,8.88-7.77,32.189-3.33,62.159-14.43,62.159-66.6a51.643,51.643,0,0,0-13.32-34.409c-3.33-3.33-3.33-7.77-2.22-11.1,3.33-8.88,3.33-17.76,1.11-26.639-5.55,1.11-14.43,4.44-28.859,14.43-2.22,2.22-5.55,2.22-8.88,1.11a132.765,132.765,0,0,0-72.148,0,10.789,10.789,0,0,1-9.99-1.11c-13.32-9.99-23.309-13.32-28.859-14.43-2.22,8.88-2.22,17.76,1.11,26.639,1.11,4.44,1.11,8.88-2.22,11.1A51.643,51.643,0,0,0,81.1,95.054c0,52.169,29.969,63.269,62.159,66.6,4.44,0,7.77,3.33,8.88,7.77s0,8.88-2.22,11.1c-5.55,5.55-7.77,12.21-7.77,19.98v43.289c0,6.66-4.44,11.1-11.1,11.1s-11.1-4.44-11.1-11.1v-18.87c-33.3,5.55-47.729-13.32-57.719-25.529-4.44-5.55-7.77-9.99-12.21-11.1-5.55-1.11-9.99-7.77-7.77-13.32,1.11-5.55,7.77-9.99,13.32-7.77,11.1,3.33,17.76,11.1,24.419,18.87,8.88,12.21,16.65,21.089,39.959,16.65v-1.11c0-6.66,1.11-14.43,3.33-19.98C92.2,174.972,58.9,154.993,58.9,96.164a69.725,69.725,0,0,1,15.54-44.4c-4.44-15.54-3.33-29.969,3.33-44.4a10.007,10.007,0,0,1,6.66-6.66c4.44-1.11,18.87-3.33,48.839,15.54a163.229,163.229,0,0,1,73.258,0C235.389-2.623,250.929-.4,255.369.707a10.007,10.007,0,0,1,6.66,6.66,72.621,72.621,0,0,1,3.33,43.289,69.725,69.725,0,0,1,15.54,44.4c0,63.269-37.739,79.918-64.378,86.578a69.7,69.7,0,0,1,3.33,21.09V244.9c0,6.66-4.44,11.1-11.1,11.1Z" transform="translate(-33.67 0)"/></g></svg>