<svg xmlns="http://www.w3.org/2000/svg" xmlns:xlink="http://www.w3.org/1999/xlink" width="256" height="256" viewBox="0 0 256 256"><defs><clipPath id="b"><rect width="256" height="256"/></clipPath></defs><g id="a" clip-path="url(#b)"><path d="M-3187-2028h-89.956a8,8,0,0,1-8-8v-156.084a8,8,0,0,1,5.932-7.728,8,8,0,0,1,9,3.734l69.507,120.6,20.449,35.481a8,8,0,0,1,0,8A8,8,0,0,1-3187-2028Zm-81.956-16h68.112l-68.112-118.182Zm-46.3,16H-3406a8,8,0,0,1-6.927-4,8,8,0,0,1,0-8l90.742-157.452a8,8,0,0,1,9-3.734,8,8,0,0,1,5.932,7.728V-2036A8,8,0,0,1-3315.258-2028Zm-76.9-16h68.9v-119.549Z" transform="translate(3424.5 2242.727)"/><path d="M3558.457,2292.143v143.573h88.082Z" transform="translate(-3411 -2235.869)"/></g></svg>