<svg xmlns="http://www.w3.org/2000/svg" xmlns:xlink="http://www.w3.org/1999/xlink" width="256" height="256" viewBox="0 0 256 256"><defs><style>.a{clip-path:url(#b);}</style><clipPath id="b"><rect width="256" height="256"/></clipPath></defs><g id="a" class="a"><g transform="translate(96 112)"><g transform="translate(-95.918 -101.63)"><path d="M21.293,2.76a18.687,18.687,0,0,0-13.55,5.5A18,18,0,0,0,1.99,21.807,18.682,18.682,0,0,0,7.742,35.485a18.469,18.469,0,0,0,13.55,5.625,18.2,18.2,0,0,0,13.55-5.625,19.121,19.121,0,0,0,5.5-13.678,18.413,18.413,0,0,0-5.5-13.55A18.413,18.413,0,0,0,21.293,2.76Zm0,99.069a18.687,18.687,0,0,0-13.55,5.5,18.266,18.266,0,0,0-5.752,13.55,18.682,18.682,0,0,0,5.752,13.678,18.469,18.469,0,0,0,13.55,5.625,18.2,18.2,0,0,0,13.55-5.625,19.121,19.121,0,0,0,5.5-13.678,18.687,18.687,0,0,0-5.5-13.55A18.413,18.413,0,0,0,21.293,101.829Zm0,98.813a18.469,18.469,0,0,0-13.55,5.625A18.682,18.682,0,0,0,1.99,219.945,18,18,0,0,0,7.742,233.5a18.687,18.687,0,0,0,13.55,5.5,18.2,18.2,0,0,0,13.55-5.625,18.818,18.818,0,0,0,5.5-13.422,19.121,19.121,0,0,0-5.5-13.678A18.2,18.2,0,0,0,21.293,200.643Z" transform="translate(-1.99 -2.76)"/><path d="M189.267,22.547a9.907,9.907,0,0,0,6.9-2.684,9.038,9.038,0,0,0,2.94-6.775,9.038,9.038,0,0,0-2.94-6.775,9.663,9.663,0,0,0-6.9-2.812H16.567A9.235,9.235,0,0,0,9.792,6.312,9.235,9.235,0,0,0,6.98,13.087a9.235,9.235,0,0,0,2.812,6.775,9.46,9.46,0,0,0,6.775,2.684Zm0,99.069a9.907,9.907,0,0,0,6.9-2.684,9.276,9.276,0,0,0,0-13.55,9.907,9.907,0,0,0-6.9-2.684H16.567a9.46,9.46,0,0,0-6.775,2.684,9.567,9.567,0,0,0,0,13.55,9.46,9.46,0,0,0,6.775,2.684Zm0,99.2a9.663,9.663,0,0,0,6.9-2.812,9.276,9.276,0,0,0,0-13.55,9.907,9.907,0,0,0-6.9-2.684H16.567a9.46,9.46,0,0,0-6.775,2.684,9.567,9.567,0,0,0,0,13.55,9.235,9.235,0,0,0,6.775,2.812Z" transform="translate(56.808 5.96)"/></g></g></g></svg>