<svg xmlns="http://www.w3.org/2000/svg" xmlns:xlink="http://www.w3.org/1999/xlink" width="256" height="256" viewBox="0 0 256 256"><defs><style>.a{clip-path:url(#b);}</style><clipPath id="b"><rect width="256" height="256"/></clipPath></defs><g id="a" class="a"><g transform="translate(104 119)"><g transform="translate(-95.918 -101.63)"><path d="M21.293,2.76A19.348,19.348,0,0,0,7.742,7.915,16.4,16.4,0,0,0,1.99,20.622,17,17,0,0,0,7.742,33.449a19.1,19.1,0,0,0,13.55,5.275,18.819,18.819,0,0,0,13.55-5.275,17.361,17.361,0,0,0,5.5-12.827,16.732,16.732,0,0,0-5.5-12.707A19.059,19.059,0,0,0,21.293,2.76Zm0,92.907a19.348,19.348,0,0,0-13.55,5.155A16.632,16.632,0,0,0,1.99,113.529a17,17,0,0,0,5.752,12.827,19.1,19.1,0,0,0,13.55,5.275,18.819,18.819,0,0,0,13.55-5.275,17.361,17.361,0,0,0,5.5-12.827,16.977,16.977,0,0,0-5.5-12.707A19.059,19.059,0,0,0,21.293,95.667Zm0,92.667a19.1,19.1,0,0,0-13.55,5.275A17,17,0,0,0,1.99,206.436a16.4,16.4,0,0,0,5.752,12.707,19.348,19.348,0,0,0,13.55,5.155,18.819,18.819,0,0,0,13.55-5.275,17.1,17.1,0,0,0,5.5-12.587,17.361,17.361,0,0,0-5.5-12.827A18.819,18.819,0,0,0,21.293,188.334Z" transform="translate(-1.99 -2.76)"/><path d="M189.267,21.259a10.315,10.315,0,0,0,6.9-2.5,8.256,8.256,0,0,0,0-12.634,10.039,10.039,0,0,0-6.9-2.622H16.567A9.582,9.582,0,0,0,9.792,6.122,8.329,8.329,0,0,0,6.98,12.439a8.329,8.329,0,0,0,2.812,6.317,9.838,9.838,0,0,0,6.775,2.5Zm0,92.371a10.315,10.315,0,0,0,6.9-2.5,8.256,8.256,0,0,0,0-12.634,10.315,10.315,0,0,0-6.9-2.5H16.567a9.838,9.838,0,0,0-6.775,2.5,8.5,8.5,0,0,0,0,12.634,9.838,9.838,0,0,0,6.775,2.5Zm0,92.49a10.039,10.039,0,0,0,6.9-2.622,8.256,8.256,0,0,0,0-12.634,10.315,10.315,0,0,0-6.9-2.5H16.567a9.838,9.838,0,0,0-6.775,2.5,8.5,8.5,0,0,0,0,12.634,9.582,9.582,0,0,0,6.775,2.622Z" transform="translate(40.89 5.96)"/></g></g></g></svg>