<svg xmlns="http://www.w3.org/2000/svg" xmlns:xlink="http://www.w3.org/1999/xlink" width="256" height="256" viewBox="0 0 256 256"><defs><clipPath id="b"><rect width="256" height="256"/></clipPath></defs><g id="a" clip-path="url(#b)"><path d="M-2951.8-576.6a129.158,129.158,0,0,1-25.836-2.6,127.527,127.527,0,0,1-24.065-7.47,128.255,128.255,0,0,1-21.777-11.82,129.059,129.059,0,0,1-18.973-15.655,129.06,129.06,0,0,1-15.655-18.973,128.27,128.27,0,0,1-11.82-21.776,127.567,127.567,0,0,1-7.47-24.064A129.11,129.11,0,0,1-3080-704.8a129.11,129.11,0,0,1,2.6-25.837,127.578,127.578,0,0,1,7.47-24.064,128.268,128.268,0,0,1,11.82-21.776,129.1,129.1,0,0,1,15.655-18.974,129.183,129.183,0,0,1,18.973-15.655,128.258,128.258,0,0,1,21.777-11.82,127.538,127.538,0,0,1,24.065-7.47A129.151,129.151,0,0,1-2952-833v36a91.378,91.378,0,0,0-65.023,26.977A91.378,91.378,0,0,0-3044-705a92.1,92.1,0,0,0,92,92,92.1,92.1,0,0,0,92-92h36.4v.2a129.155,129.155,0,0,1-2.6,25.837,127.572,127.572,0,0,1-7.47,24.064,128.292,128.292,0,0,1-11.821,21.776,129.116,129.116,0,0,1-15.655,18.973,129.047,129.047,0,0,1-18.973,15.655,128.2,128.2,0,0,1-21.776,11.82,127.531,127.531,0,0,1-24.065,7.47A129.163,129.163,0,0,1-2951.8-576.6Z" transform="translate(3080 833)" fill="#0a59f7"/><circle cx="18" cy="18" r="18" transform="translate(220 110)" fill="#0a59f7"/><circle cx="18" cy="18" r="18" transform="translate(110)" fill="#0a59f7"/></g></svg>