<svg xmlns="http://www.w3.org/2000/svg" xmlns:xlink="http://www.w3.org/1999/xlink" width="256" height="256" viewBox="0 0 256 256"><defs><style>.a{clip-path:url(#b);}</style><clipPath id="b"><rect width="256" height="256"/></clipPath></defs><g id="a" class="a"><g transform="translate(-9.023 0.321)"><g transform="translate(9.023 -0.321)"><path d="M127.821,258.342q12.8,0,20.823-6.6a28.263,28.263,0,0,0,10.217-15.779q2.2-9.312-1.164-16.813a34.724,34.724,0,0,0-6.208-10.476q-3.1-4.656-2.2-8.407a8.419,8.419,0,0,1,5.044-5.691q4.268-2.069,11.123-1.811,22.892,1.552,42.162-4.785a72.888,72.888,0,0,0,32.074-20.564q12.933-14.356,16.943-36.084a90.723,90.723,0,0,0-2.2-41.516q-5.82-21.211-16.425-34.79-27.289-34.79-62.726-45.913Q139.979-2.134,107.257,4.591q-32.85,6.6-53.285,22.763a148.067,148.067,0,0,0-36.989,42.68Q2.11,95.642,2.11,138.192q0,25.479,16.037,53.673Q34.055,220.189,63.026,239.2,91.867,258.342,127.821,258.342ZM65.742,42.874q17.719-13.58,45.4-19.4,27.548-5.691,57.682,3.751T222.881,66.8q8.019,10.605,12.675,27.936a75.612,75.612,0,0,1,1.811,33.238q-4.656,25.091-23.409,36.342-18.753,11.123-47.594,8.924-17.46-.905-26.772,7.113-9.312,8.148-10.088,19.788a26.8,26.8,0,0,0,6.467,20.047,29.388,29.388,0,0,1,4.009,6.725,7.392,7.392,0,0,1,.129,4.268,9.312,9.312,0,0,1-3.363,5.432q-2.975,2.457-8.924,2.457-30.393,0-54.708-16.037Q48.67,207.126,35.09,183.329q-13.709-23.668-13.709-45.137,0-36.6,12.675-58.717A125.533,125.533,0,0,1,65.742,42.874Zm3.751,44.361a17,17,0,0,0-12.287,5.044,16.147,16.147,0,0,0-5.044,12.028,17.442,17.442,0,0,0,17.331,17.46,17.442,17.442,0,0,0,17.331-17.46,16.147,16.147,0,0,0-5.044-12.028A17,17,0,0,0,69.492,87.235Zm34.4-43.456a15.952,15.952,0,0,0-12.028,5.173,17.486,17.486,0,0,0,0,24.573,16.147,16.147,0,0,0,12.028,5.044,17.442,17.442,0,0,0,17.46-17.331,16.785,16.785,0,0,0-5.173-12.287A16.511,16.511,0,0,0,103.895,43.779Zm55.354,0a16.511,16.511,0,0,0-12.287,5.173,17.177,17.177,0,0,0,0,24.573,16.721,16.721,0,0,0,12.287,5.044,16.147,16.147,0,0,0,12.028-5.044,17.486,17.486,0,0,0,0-24.573A15.952,15.952,0,0,0,159.249,43.779Zm34.4,43.456a17,17,0,0,0-12.287,5.044,16.147,16.147,0,0,0-5.044,12.028,17.331,17.331,0,1,0,34.661,0,16.147,16.147,0,0,0-5.044-12.028A17,17,0,0,0,193.652,87.235Z" transform="translate(-2.11 -2.075)"/></g></g></g></svg>