<svg xmlns="http://www.w3.org/2000/svg" xmlns:xlink="http://www.w3.org/1999/xlink" width="256" height="256" viewBox="0 0 256 256"><defs><style>.a{clip-path:url(#b);}</style><clipPath id="b"><rect width="256" height="256"/></clipPath></defs><g id="a" class="a"><path d="M2.38,91.177A9.039,9.039,0,0,0,4.945,97.65a9.039,9.039,0,0,0,6.473,2.565,9.466,9.466,0,0,0,6.6-2.565,8.636,8.636,0,0,0,2.809-6.474V33.648L84.948,98.139a9.141,9.141,0,0,0,12.947,0,8.106,8.106,0,0,0,2.931-6.351,8.233,8.233,0,0,0-2.931-6.473L33.4,20.457H90.81a8.775,8.775,0,0,0,6.473-2.565,8.824,8.824,0,0,0,2.687-6.473,8.824,8.824,0,0,0-2.687-6.473A8.775,8.775,0,0,0,90.81,2.38H18.136A15.371,15.371,0,0,0,7.021,6.9,15.049,15.049,0,0,0,2.38,18.136ZM139.789,228.342a8.969,8.969,0,0,0,9.161,9.038h72.674a15.049,15.049,0,0,0,11.237-4.641,15.37,15.37,0,0,0,4.519-11.115V148.583a8.772,8.772,0,0,0-9.038-9.038,9.466,9.466,0,0,0-6.6,2.565,8.636,8.636,0,0,0-2.809,6.473v57.162l-64.124-64.124a9.141,9.141,0,0,0-12.947,0,8.106,8.106,0,0,0-2.931,6.351,8.233,8.233,0,0,0,2.931,6.473l64.246,64.491H148.95a8.39,8.39,0,0,0-6.474,2.809A9.233,9.233,0,0,0,139.789,228.342Z" transform="translate(8.62 8.62)"/></g></svg>