<svg xmlns="http://www.w3.org/2000/svg" xmlns:xlink="http://www.w3.org/1999/xlink" width="256" height="256" viewBox="0 0 256 256"><defs><style>.a{clip-path:url(#b);}</style><clipPath id="b"><rect width="256" height="256"/></clipPath></defs><g id="a" class="a"><path d="M2.38,99.221a9.858,9.858,0,0,0,2.8,7.06,9.858,9.858,0,0,0,7.06,2.8,10.324,10.324,0,0,0,7.193-2.8,9.418,9.418,0,0,0,3.064-7.06V36.481l69.933,70.333a9.969,9.969,0,0,0,14.12,0,8.84,8.84,0,0,0,3.2-6.927,8.979,8.979,0,0,0-3.2-7.06L36.214,22.095H98.821a9.57,9.57,0,0,0,7.06-2.8,9.623,9.623,0,0,0,2.931-7.06,9.623,9.623,0,0,0-2.931-7.06,9.57,9.57,0,0,0-7.06-2.8H19.564A16.763,16.763,0,0,0,7.442,7.309,16.412,16.412,0,0,0,2.38,19.564ZM152.237,248.812a9.781,9.781,0,0,0,9.99,9.857h79.258a16.412,16.412,0,0,0,12.255-5.062,16.763,16.763,0,0,0,4.929-12.122V161.828a9.566,9.566,0,0,0-9.857-9.857,10.324,10.324,0,0,0-7.193,2.8,9.418,9.418,0,0,0-3.064,7.06v62.341l-69.933-69.933a9.969,9.969,0,0,0-14.12,0,8.84,8.84,0,0,0-3.2,6.927,8.979,8.979,0,0,0,3.2,7.06l70.067,70.333H162.228a9.15,9.15,0,0,0-7.06,3.064A10.07,10.07,0,0,0,152.237,248.812Z" transform="translate(-2.669 -2.669)"/></g></svg>