<svg xmlns="http://www.w3.org/2000/svg" xmlns:xlink="http://www.w3.org/1999/xlink" width="256" height="256" viewBox="0 0 256 256"><defs><style>.a{clip-path:url(#b);}</style><clipPath id="b"><rect width="256" height="256"/></clipPath></defs><g id="a" class="a"><g transform="translate(0.219 0.219)"><path d="M88.436,103.107H23.383a10.727,10.727,0,0,0-7.474,2.907,10.044,10.044,0,0,0,0,14.671,10.463,10.463,0,0,0,7.474,3.045h82.354a18.449,18.449,0,0,0,17.993-17.993V22.968a9.355,9.355,0,0,0-3.183-7.2,10.463,10.463,0,0,0-7.474-3.045,10,10,0,0,0-7.336,3.045,9.55,9.55,0,0,0-3.045,7.2V88.159L20.338,5.805A9.711,9.711,0,0,0,13,2.76a9.55,9.55,0,0,0-7.2,3.045A9.55,9.55,0,0,0,2.76,13a9.711,9.711,0,0,0,3.045,7.336Zm49.135,134.811a10.374,10.374,0,0,0,17.716,7.336,10.243,10.243,0,0,0,2.907-7.336V173.142L240.548,255.5a10.359,10.359,0,0,0,14.671,0,9.186,9.186,0,0,0,3.322-7.2,9.33,9.33,0,0,0-3.322-7.336L172.45,158.194h65.468a10.243,10.243,0,0,0,7.336-2.907,10,10,0,0,0,3.045-7.336,10.463,10.463,0,0,0-3.045-7.474,9.786,9.786,0,0,0-7.336-3.183H155.564a17.184,17.184,0,0,0-12.6,5.26,17.732,17.732,0,0,0-5.4,13.011Z" transform="translate(-2.76 -2.76)"/></g></g></svg>