<svg xmlns="http://www.w3.org/2000/svg" xmlns:xlink="http://www.w3.org/1999/xlink" width="256" height="256" viewBox="0 0 256 256"><defs><style>.a{clip-path:url(#b);}</style><clipPath id="b"><rect width="256" height="256"/></clipPath></defs><g id="a" class="a"><g transform="translate(10.219 10.219)"><path d="M81.475,94.954H21.708a9.856,9.856,0,0,0-6.867,2.67,9.228,9.228,0,0,0,0,13.479,9.613,9.613,0,0,0,6.867,2.8H97.37A16.95,16.95,0,0,0,113.9,97.37V21.326a8.6,8.6,0,0,0-2.925-6.613,9.613,9.613,0,0,0-6.867-2.8,9.186,9.186,0,0,0-6.74,2.8,8.774,8.774,0,0,0-2.8,6.613V81.221L18.91,5.558a8.922,8.922,0,0,0-6.74-2.8,8.774,8.774,0,0,0-6.613,2.8,8.774,8.774,0,0,0-2.8,6.613,8.922,8.922,0,0,0,2.8,6.74Zm45.143,123.858a9.531,9.531,0,0,0,16.277,6.74,9.411,9.411,0,0,0,2.67-6.74V159.3l75.663,75.663a9.517,9.517,0,0,0,13.479,0,8.439,8.439,0,0,0,3.052-6.613,8.572,8.572,0,0,0-3.052-6.74l-76.044-76.044h60.149a9.411,9.411,0,0,0,6.74-2.67,9.186,9.186,0,0,0,2.8-6.74,9.613,9.613,0,0,0-2.8-6.867,8.991,8.991,0,0,0-6.74-2.925H143.15a15.787,15.787,0,0,0-11.572,4.832,16.292,16.292,0,0,0-4.959,11.953Z" transform="translate(-2.76 -2.76)"/></g></g></svg>