<svg xmlns="http://www.w3.org/2000/svg" xmlns:xlink="http://www.w3.org/1999/xlink" width="256" height="256" viewBox="0 0 256 256"><defs><clipPath id="b"><rect width="256" height="256"/></clipPath></defs><g id="a" clip-path="url(#b)"><path d="M21.957,2.76A18.885,18.885,0,0,0,7.94,8.717,19.964,19.964,0,0,0,1.99,23.4,20.733,20.733,0,0,0,7.94,38.223a18.68,18.68,0,0,0,14.016,6.1,18.41,18.41,0,0,0,14.016-6.1A21.252,21.252,0,0,0,41.659,23.4,20.453,20.453,0,0,0,35.973,8.717,18.611,18.611,0,0,0,21.957,2.76Zm0,107.359A18.885,18.885,0,0,0,7.94,116.076,20.262,20.262,0,0,0,1.99,130.76a20.733,20.733,0,0,0,5.95,14.823,18.68,18.68,0,0,0,14.016,6.1,18.41,18.41,0,0,0,14.016-6.1,21.252,21.252,0,0,0,5.686-14.823,20.761,20.761,0,0,0-5.686-14.684A18.611,18.611,0,0,0,21.957,110.119Zm0,107.082A18.68,18.68,0,0,0,7.94,223.3a20.733,20.733,0,0,0-5.95,14.823A19.964,19.964,0,0,0,7.94,252.8a18.885,18.885,0,0,0,14.016,5.957,18.41,18.41,0,0,0,14.016-6.1,20.906,20.906,0,0,0,5.686-14.545A21.252,21.252,0,0,0,35.973,223.3,18.41,18.41,0,0,0,21.957,217.2Z" transform="translate(258.76 106.176) rotate(90)"/></g></svg>