<svg xmlns="http://www.w3.org/2000/svg" xmlns:xlink="http://www.w3.org/1999/xlink" width="256" height="256" viewBox="0 0 256 256"><defs><style>.a{clip-path:url(#b);}.b{fill:#0a59f7;}.c{fill:#fff;}</style><clipPath id="b"><rect width="256" height="256"/></clipPath></defs><g id="a" class="a"><rect class="b" width="256" height="256" rx="28"/><path class="c" d="M-45.9-1.536V19.84H-58.931V-41.354H-28.38q8.349,0,11.927,1.193a16.878,16.878,0,0,1,9.542,8.349A21.523,21.523,0,0,1-4.342-21.445a23.279,23.279,0,0,1-1.7,8.853,17.887,17.887,0,0,1-4.725,6.835,15.786,15.786,0,0,1-5.826,3.3,30.5,30.5,0,0,1-8.395.917Zm0-10.918H-28.2q4.771,0,6.7-1.468,2.844-2.294,2.844-7.982,0-6.147-4.312-7.89a13.981,13.981,0,0,0-4.954-.642H-45.9Zm49.818-28.9H29.879q9.725,0,15.046,1.927a20.61,20.61,0,0,1,13.12,13.12,48.742,48.742,0,0,1,2.477,15.689,50.153,50.153,0,0,1-2.385,15.6q-2.385,7.523-7.89,11.1a21.652,21.652,0,0,1-7.661,2.982,75.447,75.447,0,0,1-12.707.78H3.915ZM16.943-30.436V8.923H29.879q8.532,0,11.835-3.762a18,18,0,0,0,3.257-6.7,33.086,33.086,0,0,0,1.239-9.175,31.781,31.781,0,0,0-1.468-9.909,15.491,15.491,0,0,0-3.853-6.7Q37.4-30.436,29.879-30.436ZM118.322-16.307V-5.39H81.807V19.84H68.871V-12.087q.092-13.762,2.569-18.074a18.07,18.07,0,0,1,9.037-8.624q5.918-2.569,16.652-2.569h21.193v10.918H98.78q-9.083.183-11.652,1.468-5.138,2.11-5.321,9.358v3.3Z" transform="translate(97.405 137.539)"/></g></svg>