<svg xmlns="http://www.w3.org/2000/svg" xmlns:xlink="http://www.w3.org/1999/xlink" width="256" height="256" viewBox="0 0 256 256"><defs><style>.a{clip-path:url(#h);}.b{fill:url(#a);}.c{fill:url(#d);}.d{filter:url(#e);}.e{filter:url(#b);}</style><linearGradient id="a" x1="0.152" y1="0.034" x2="0.919" y2="0.929" gradientUnits="objectBoundingBox"><stop offset="0" stop-color="#e45777"/><stop offset="1" stop-color="#b94c94"/></linearGradient><filter id="b" x="5" y="8" width="246" height="246" filterUnits="userSpaceOnUse"><feOffset dy="3" input="SourceAlpha"/><feGaussianBlur stdDeviation="3" result="c"/><feFlood flood-opacity="0.161"/><feComposite operator="in" in2="c"/><feComposite in="SourceGraphic"/></filter><linearGradient id="d" x1="0.5" x2="0.5" y2="1" gradientUnits="objectBoundingBox"><stop offset="0" stop-color="#f6f6f6"/><stop offset="1" stop-color="#ebebeb" stop-opacity="0.71"/></linearGradient><filter id="e" x="30" y="91" width="195.25" height="79.193" filterUnits="userSpaceOnUse"><feOffset dy="3" input="SourceAlpha"/><feGaussianBlur stdDeviation="3" result="f"/><feFlood flood-opacity="0.161"/><feComposite operator="in" in2="f"/><feComposite in="SourceGraphic"/></filter><clipPath id="h"><rect width="256" height="256"/></clipPath></defs><g id="g" class="a"><g class="e" transform="matrix(1, 0, 0, 1, 0, 0)"><rect class="b" width="228" height="228" rx="19" transform="translate(14 14)"/></g><g class="d" transform="matrix(1, 0, 0, 1, 0, 0)"><path class="c" d="M-45.9-1.537V19.839H-58.931V-41.354H-28.38q8.349,0,11.927,1.193a16.878,16.878,0,0,1,9.541,8.349A21.523,21.523,0,0,1-4.343-21.445a23.279,23.279,0,0,1-1.7,8.853,17.886,17.886,0,0,1-4.725,6.835,15.785,15.785,0,0,1-5.826,3.3,30.5,30.5,0,0,1-8.395.917Zm0-10.918H-28.2q4.771,0,6.7-1.468,2.844-2.294,2.844-7.982,0-6.147-4.312-7.89a13.981,13.981,0,0,0-4.954-.642H-45.9Zm49.817-28.9H29.877q9.725,0,15.046,1.927A20.61,20.61,0,0,1,58.043-26.308,48.742,48.742,0,0,1,60.52-10.62a50.153,50.153,0,0,1-2.385,15.6q-2.385,7.523-7.89,11.1a21.652,21.652,0,0,1-7.661,2.982,75.446,75.446,0,0,1-12.707.78H3.914ZM16.942-30.436V8.922H29.877q8.532,0,11.835-3.762a18,18,0,0,0,3.257-6.7,33.085,33.085,0,0,0,1.239-9.174A31.781,31.781,0,0,0,44.74-20.62a15.491,15.491,0,0,0-3.853-6.7Q37.4-30.436,29.877-30.436ZM118.319-16.308V-5.39H81.8v25.23H68.869V-12.088q.092-13.762,2.569-18.074a18.07,18.07,0,0,1,9.037-8.624q5.918-2.569,16.652-2.569h21.193v10.918H98.777q-9.083.183-11.652,1.468-5.138,2.11-5.321,9.358v3.3Z" transform="translate(97.93 138.35)"/></g></g></svg>