<svg xmlns="http://www.w3.org/2000/svg" xmlns:xlink="http://www.w3.org/1999/xlink" width="256" height="256" viewBox="0 0 256 256">
  <defs>
    <filter id="矩形_1" x="33" y="36" width="191" height="191" filterUnits="userSpaceOnUse">
      <feOffset dy="3" input="SourceAlpha"/>
      <feGaussianBlur stdDeviation="3" result="blur"/>
      <feFlood flood-opacity="0.161"/>
      <feComposite operator="in" in2="blur"/>
      <feComposite in="SourceGraphic"/>
    </filter>
    <filter id="路径_1" x="59" y="101" width="137.784" height="59.354" filterUnits="userSpaceOnUse">
      <feOffset dy="3" input="SourceAlpha"/>
      <feGaussianBlur stdDeviation="3" result="blur-2"/>
      <feFlood flood-opacity="0.161"/>
      <feComposite operator="in" in2="blur-2"/>
      <feComposite in="SourceGraphic"/>
    </filter>
    <clipPath id="clip-PDF">
      <rect width="256" height="256"/>
    </clipPath>
  </defs>
  <g id="PDF" clip-path="url(#clip-PDF)">
    <g transform="matrix(1, 0, 0, 1, 0, 0)" filter="url(#矩形_1)">
      <rect id="矩形_1-2" data-name="矩形 1" width="173" height="173" rx="28" transform="translate(42 42)" fill="#e67c92"/>
    </g>
    <g transform="matrix(1, 0, 0, 1, 0, 0)" filter="url(#路径_1)">
      <path id="路径_1-2" data-name="路径 1" d="M-50.127-14.446V0h-8.8V-41.354h20.646a28.281,28.281,0,0,1,8.06.806,11.406,11.406,0,0,1,6.448,5.642A14.545,14.545,0,0,1-22.041-27.9a15.732,15.732,0,0,1-1.147,5.983A12.087,12.087,0,0,1-26.381-17.3a10.668,10.668,0,0,1-3.937,2.232,20.608,20.608,0,0,1-5.673.62Zm0-7.378h11.966q3.224,0,4.526-.992,1.922-1.55,1.922-5.394,0-4.154-2.914-5.332a9.448,9.448,0,0,0-3.348-.434H-50.127Zm33.666-19.53H1.085a31.108,31.108,0,0,1,10.168,1.3,13.928,13.928,0,0,1,8.866,8.866,32.939,32.939,0,0,1,1.674,10.6,33.893,33.893,0,0,1-1.612,10.54,13.357,13.357,0,0,1-5.332,7.5A14.632,14.632,0,0,1,9.672-.527,50.986,50.986,0,0,1,1.085,0H-16.461Zm8.8,7.378v26.6H1.085q5.766,0,8-2.542a12.165,12.165,0,0,0,2.2-4.526,22.359,22.359,0,0,0,.837-6.2,21.477,21.477,0,0,0-.992-6.7,10.469,10.469,0,0,0-2.6-4.526q-2.356-2.108-7.44-2.108Zm68.51,9.548v7.378H36.177V0H27.435V-21.576q.062-9.3,1.736-12.214a12.211,12.211,0,0,1,6.107-5.828q4-1.736,11.253-1.736H60.853v7.378H47.647q-6.138.124-7.874.992-3.472,1.426-3.6,6.324v2.232Z" transform="translate(126.93 148.35)" fill="#fff"/>
    </g>
  </g>
</svg>
