<svg xmlns="http://www.w3.org/2000/svg" xmlns:xlink="http://www.w3.org/1999/xlink" width="256" height="256" viewBox="0 0 256 256"><defs><filter id="a" x="9" y="12" width="238" height="238" filterUnits="userSpaceOnUse"><feOffset dy="3" input="SourceAlpha"/><feGaussianBlur stdDeviation="3" result="b"/><feFlood flood-opacity="0.161"/><feComposite operator="in" in2="b"/><feComposite in="SourceGraphic"/></filter><clipPath id="d"><rect width="256" height="256"/></clipPath></defs><g id="c" clip-path="url(#d)"><g transform="matrix(1, 0, 0, 1, 0, 0)" filter="url(#a)"><g transform="translate(18 18)" fill="#e47ebc" stroke="#d15ea2" stroke-width="3"><rect width="220" height="220" rx="22" stroke="none"/><rect x="1.5" y="1.5" width="217" height="217" rx="20.5" fill="none"/></g></g><rect width="118" height="118" rx="26" transform="translate(72 69)" fill="#fff"/><g transform="translate(52 132)" fill="#fff" stroke="#e47ebc" stroke-width="5"><rect width="64" height="64" rx="13" stroke="none"/><rect x="2.5" y="2.5" width="59" height="59" rx="10.5" fill="none"/></g><path d="M30.132,28.6a12.4,12.4,0,0,1-7.193-2.916,69.614,69.614,0,0,0-11.567,3.694C8.359,34.721,5.54,37.442,3.11,37.442a2.531,2.531,0,0,1-1.458-.389A2.865,2.865,0,0,1,0,34.429c0-.875.194-3.3,9.428-7.29A69.187,69.187,0,0,0,14.58,15.087C13.413,12.754,10.886,7.019,12.636,4.1a3.094,3.094,0,0,1,3.013-1.555,3.224,3.224,0,0,1,2.527,1.264c1.264,1.75,1.166,5.443-.486,10.886a29.317,29.317,0,0,0,6.026,7.776,32.817,32.817,0,0,1,6.124-.68c4.568.1,5.249,2.236,5.152,3.5,0,3.3-3.208,3.3-4.86,3.3ZM2.916,34.624l.292-.1A6.261,6.261,0,0,0,6.415,31.8a7.681,7.681,0,0,0-3.5,2.819ZM15.843,5.464h-.292a.584.584,0,0,0-.389.1,7.939,7.939,0,0,0,.583,4.957,8.169,8.169,0,0,0,.1-5.054Zm.68,14.094-.1.194-.1-.1c-.875,2.236-1.847,4.471-2.916,6.609l.194-.1v.194a56.6,56.6,0,0,1,6.609-1.944l-.1-.1h.292a29.784,29.784,0,0,1-3.888-4.763Zm13.219,5.152a11.084,11.084,0,0,0-2.527.194,8.147,8.147,0,0,0,2.916.778,4.3,4.3,0,0,0,1.944-.194c0-.292-.389-.778-2.333-.778Z" transform="translate(67 144.462)" fill="#e47ebc"/></g></svg>