<svg xmlns="http://www.w3.org/2000/svg" xmlns:xlink="http://www.w3.org/1999/xlink" width="256" height="256" viewBox="0 0 256 256">
  <defs>
    <linearGradient id="linear-gradient" x1="0.168" y1="0.028" x2="0.924" y2="0.985" gradientUnits="objectBoundingBox">
      <stop offset="0" stop-color="#f8f8fc"/>
      <stop offset="1" stop-color="#efeff8"/>
    </linearGradient>
    <filter id="减去_5" x="24.245" y="4.594" width="206.822" height="249.501" filterUnits="userSpaceOnUse">
      <feOffset dy="1" input="SourceAlpha"/>
      <feGaussianBlur stdDeviation="3" result="blur"/>
      <feFlood flood-opacity="0.161"/>
      <feComposite operator="in" in2="blur"/>
      <feComposite in="SourceGraphic"/>
    </filter>
    <filter id="减去_5-2" x="24.245" y="4.594" width="206.822" height="249.501" filterUnits="userSpaceOnUse">
      <feOffset dx="1" dy="3" input="SourceAlpha"/>
      <feGaussianBlur stdDeviation="2.5" result="blur-2"/>
      <feFlood flood-color="#fefefe" result="color"/>
      <feComposite operator="out" in="SourceGraphic" in2="blur-2"/>
      <feComposite operator="in" in="color"/>
      <feComposite operator="in" in2="SourceGraphic"/>
    </filter>
    <filter id="减去_7" x="33.589" y="12.25" width="188.822" height="231.501" filterUnits="userSpaceOnUse">
      <feOffset dx="-1" dy="-1" input="SourceAlpha"/>
      <feGaussianBlur stdDeviation="1" result="blur-3"/>
      <feFlood flood-color="#d1d4e4" result="color-2"/>
      <feComposite operator="out" in="SourceGraphic" in2="blur-3"/>
      <feComposite operator="in" in="color-2"/>
      <feComposite operator="in" in2="SourceGraphic"/>
    </filter>
    <linearGradient id="linear-gradient-2" x1="0.779" y1="1.423" x2="0.386" y2="0.5" gradientUnits="objectBoundingBox">
      <stop offset="0" stop-color="#bfc6e6"/>
      <stop offset="1" stop-color="#f3f3fa"/>
    </linearGradient>
    <linearGradient id="linear-gradient-3" x1="0.451" y1="0.245" x2="0.281" y2="1" gradientUnits="objectBoundingBox">
      <stop offset="0" stop-color="#e3e4f6"/>
      <stop offset="1" stop-color="#f1f1fa"/>
    </linearGradient>
    <linearGradient id="linear-gradient-4" x1="0.905" y1="0.227" x2="0.5" y2="1" gradientUnits="objectBoundingBox">
      <stop offset="0" stop-color="#e93f3f"/>
      <stop offset="1" stop-color="#e27541"/>
      <stop offset="1" stop-color="#e27741"/>
    </linearGradient>
    <linearGradient id="linear-gradient-5" x1="0.061" y1="0.072" x2="0.893" y2="0.927" gradientUnits="objectBoundingBox">
      <stop offset="0" stop-color="#f17229"/>
      <stop offset="1" stop-color="#d2332d"/>
    </linearGradient>
    <filter id="矩形_127">
      <feOffset dx="4" dy="4" input="SourceAlpha"/>
      <feGaussianBlur stdDeviation="3" result="blur-4"/>
      <feFlood flood-color="#fff" flood-opacity="0.161" result="color-3"/>
      <feComposite operator="out" in="SourceGraphic" in2="blur-4"/>
      <feComposite operator="in" in="color-3"/>
      <feComposite operator="in" in2="SourceGraphic"/>
    </filter>
    <filter id="矩形_128">
      <feOffset dx="-1" dy="-5" input="SourceAlpha"/>
      <feGaussianBlur stdDeviation="2.5" result="blur-5"/>
      <feFlood flood-color="#b22424" flood-opacity="0.161" result="color-4"/>
      <feComposite operator="out" in="SourceGraphic" in2="blur-5"/>
      <feComposite operator="in" in="color-4"/>
      <feComposite operator="in" in2="SourceGraphic"/>
    </filter>
    <linearGradient id="linear-gradient-6" x1="0.93" y1="0.096" x2="0.17" y2="1" gradientUnits="objectBoundingBox">
      <stop offset="0" stop-color="#ffefe9"/>
      <stop offset="1" stop-color="#fff"/>
    </linearGradient>
    <filter id="路径_2" x="48.197" y="98.815" width="88.803" height="97.37" filterUnits="userSpaceOnUse">
      <feOffset dy="3" input="SourceAlpha"/>
      <feGaussianBlur stdDeviation="3" result="blur-6"/>
      <feFlood flood-opacity="0.161"/>
      <feComposite operator="in" in2="blur-6"/>
      <feComposite in="SourceGraphic"/>
    </filter>
    <clipPath id="clip-PPT_3">
      <rect width="256" height="256"/>
    </clipPath>
  </defs>
  <g id="PPT_3" data-name="PPT – 3" clip-path="url(#clip-PPT_3)">
    <g data-type="innerShadowGroup">
      <g transform="matrix(1, 0, 0, 1, 0, 0)" filter="url(#减去_5)">
        <path id="减去_5-3" data-name="减去 5" d="M171.822,231.5H17a17,17,0,0,1-17-17V17A17,17,0,0,1,17,0H136.485l52.337,52.337V214.5a17,17,0,0,1-17,17Z" transform="translate(33.25 12.59)" fill="url(#linear-gradient)"/>
      </g>
      <g transform="matrix(1, 0, 0, 1, 0, 0)" filter="url(#减去_5-2)">
        <path id="减去_5-4" data-name="减去 5" d="M171.822,231.5H17a17,17,0,0,1-17-17V17A17,17,0,0,1,17,0H136.485l52.337,52.337V214.5a17,17,0,0,1-17,17Z" transform="translate(33.25 12.59)" fill="#fff"/>
      </g>
    </g>
    <g transform="matrix(1, 0, 0, 1, 0, 0)" filter="url(#减去_7)">
      <path id="减去_7-2" data-name="减去 7" d="M171.822,231.5H17a17,17,0,0,1-17-17V17A17,17,0,0,1,17,0H136.485l52.337,52.337V214.5a17,17,0,0,1-17,17Z" transform="translate(33.59 12.25)" fill="#fff"/>
    </g>
    <path id="减去_6" data-name="减去 6" d="M49.5,53.714H10a10.012,10.012,0,0,1-10-10V0L49.5,53.712Z" transform="translate(217.854 113.47) rotate(180)" fill="url(#linear-gradient-2)"/>
    <path id="减去_4" data-name="减去 4" d="M53.714,53.714H10a10.011,10.011,0,0,1-10-10V0L53.712,53.712Z" transform="translate(169.041 11.905)" fill="url(#linear-gradient-3)"/>
    <path id="减去_8" data-name="减去 8" d="M1028.5-2387a50.185,50.185,0,0,1-19.657-3.969,50.333,50.333,0,0,1-16.052-10.823,50.333,50.333,0,0,1-10.822-16.052A50.186,50.186,0,0,1,978-2437.5a50.187,50.187,0,0,1,3.968-19.657,50.332,50.332,0,0,1,10.822-16.052,50.327,50.327,0,0,1,16.052-10.822A50.185,50.185,0,0,1,1028.5-2488a50.184,50.184,0,0,1,19.657,3.969,50.326,50.326,0,0,1,16.052,10.822,50.334,50.334,0,0,1,10.823,16.052A50.186,50.186,0,0,1,1079-2437.5a50.186,50.186,0,0,1-3.969,19.657,50.336,50.336,0,0,1-10.823,16.052,50.332,50.332,0,0,1-16.052,10.823A50.184,50.184,0,0,1,1028.5-2387Zm.5-87a37.042,37.042,0,0,0-37,37,37.042,37.042,0,0,0,37,37,37.042,37.042,0,0,0,37-37A37.042,37.042,0,0,0,1029-2474Z" transform="translate(-876 2582)" opacity="0.15" fill="url(#linear-gradient-4)"/>
    <g data-type="innerShadowGroup">
      <rect id="矩形_127-2" data-name="矩形 127" width="135" height="135" rx="20" transform="translate(22 77)" fill="url(#linear-gradient-5)"/>
      <g transform="matrix(1, 0, 0, 1, 0, 0)" filter="url(#矩形_127)">
        <rect id="矩形_127-3" data-name="矩形 127" width="135" height="135" rx="20" transform="translate(22 77)" fill="#fff"/>
      </g>
    </g>
    <g transform="matrix(1, 0, 0, 1, 0, 0)" filter="url(#矩形_128)">
      <rect id="矩形_128-2" data-name="矩形 128" width="135" height="135" rx="20" transform="translate(22 77)" fill="#fff"/>
    </g>
    <g transform="matrix(1, 0, 0, 1, 0, 0)" filter="url(#路径_2)">
      <path id="路径_2-2" data-name="路径 2" d="M5.094,22.963V50.689H-11.8v-79.37H27.822q10.829,0,15.469,1.547,7.854,2.618,12.376,10.829A27.916,27.916,0,0,1,59-2.859,30.194,30.194,0,0,1,56.8,8.624a23.2,23.2,0,0,1-6.128,8.865,20.474,20.474,0,0,1-7.556,4.284,39.553,39.553,0,0,1-10.888,1.19Zm0-14.161H28.06q6.188,0,8.687-1.9,3.689-2.975,3.689-10.353,0-7.973-5.593-10.234a18.134,18.134,0,0,0-6.426-.833H5.094Z" transform="translate(69 133.5)" fill="url(#linear-gradient-6)"/>
    </g>
  </g>
</svg>
