<svg xmlns="http://www.w3.org/2000/svg" xmlns:xlink="http://www.w3.org/1999/xlink" width="256" height="256" viewBox="0 0 256 256"><defs><style>.a{clip-path:url(#n);}.b{fill:url(#a);}.c{fill:url(#d);}.d{fill:url(#g);}.e{fill:url(#j);}.f{filter:url(#k);}.g{filter:url(#h);}.h{filter:url(#e);}.i{filter:url(#b);}</style><linearGradient id="a" x1="0.152" y1="0.034" x2="0.919" y2="0.929" gradientUnits="objectBoundingBox"><stop offset="0" stop-color="#e8987a"/><stop offset="1" stop-color="#af323a"/></linearGradient><filter id="b" x="5" y="8" width="246" height="246" filterUnits="userSpaceOnUse"><feOffset dy="3" input="SourceAlpha"/><feGaussianBlur stdDeviation="3" result="c"/><feFlood flood-opacity="0.161"/><feComposite operator="in" in2="c"/><feComposite in="SourceGraphic"/></filter><linearGradient id="d" x1="0.5" x2="0.5" y2="1" gradientUnits="objectBoundingBox"><stop offset="0" stop-color="#f5f5f5"/><stop offset="1" stop-color="#e9e9e9" stop-opacity="0"/></linearGradient><filter id="e" x="27.249" y="9.634" width="223.689" height="223.689" filterUnits="userSpaceOnUse"><feOffset dy="3" input="SourceAlpha"/><feGaussianBlur stdDeviation="3" result="f"/><feFlood flood-opacity="0.161"/><feComposite operator="in" in2="f"/><feComposite in="SourceGraphic"/></filter><linearGradient id="g" x1="0.119" y1="0.127" x2="0.926" y2="0.942" gradientUnits="objectBoundingBox"><stop offset="0" stop-color="#f2f2f2"/><stop offset="1" stop-color="#e1abab"/></linearGradient><filter id="h" x="38" y="112" width="110" height="110" filterUnits="userSpaceOnUse"><feOffset dy="3" input="SourceAlpha"/><feGaussianBlur stdDeviation="3" result="i"/><feFlood flood-opacity="0.161"/><feComposite operator="in" in2="i"/><feComposite in="SourceGraphic"/></filter><linearGradient id="j" x1="1" x2="0.5" y2="1" gradientUnits="objectBoundingBox"><stop offset="0" stop-color="#f2b097"/><stop offset="1" stop-color="#c26594"/></linearGradient><filter id="k" x="61.302" y="132.368" width="63" height="68.445" filterUnits="userSpaceOnUse"><feOffset dy="3" input="SourceAlpha"/><feGaussianBlur stdDeviation="3" result="l"/><feFlood flood-opacity="0.161"/><feComposite operator="in" in2="l"/><feComposite in="SourceGraphic"/></filter><clipPath id="n"><rect width="256" height="256"/></clipPath></defs><g id="m" class="a"><g class="i" transform="matrix(1, 0, 0, 1, 0, 0)"><rect class="b" width="228" height="228" rx="19" transform="translate(14 14)"/></g><g class="h" transform="matrix(1, 0, 0, 1, 0, 0)"><rect class="c" width="146" height="146" rx="73" transform="translate(130.1 15.63) rotate(40)"/></g><g class="g" transform="matrix(1, 0, 0, 1, 0, 0)"><rect class="d" width="92" height="92" rx="13" transform="translate(47 118)"/></g><g class="f" transform="matrix(1, 0, 0, 1, 0, 0)"><path class="e" d="M-1.064,4.143V21.764H-11.8V-28.681H13.381q6.882,0,9.832.983a13.914,13.914,0,0,1,7.866,6.882A17.743,17.743,0,0,1,33.2-12.269a19.19,19.19,0,0,1-1.4,7.3A14.745,14.745,0,0,1,27.9.664a13.013,13.013,0,0,1-4.8,2.723,25.139,25.139,0,0,1-6.92.756Zm0-9h14.6q3.933,0,5.521-1.21Q21.4-7.958,21.4-12.647q0-5.067-3.555-6.5a11.525,11.525,0,0,0-4.084-.529H-1.064Z" transform="translate(82.11 167.05)"/></g></g></svg>