<svg xmlns="http://www.w3.org/2000/svg" xmlns:xlink="http://www.w3.org/1999/xlink" width="256" height="256" viewBox="0 0 256 256"><defs><style>.a{clip-path:url(#b);}.b{fill:#f6f6f6;}.c{fill:#e67c92;}.d{fill:#cf667c;}</style><clipPath id="b"><rect width="256" height="256"/></clipPath></defs><g id="a" class="a"><rect class="b" width="256" height="256" rx="28"/><rect class="c" width="170" height="170" rx="85" transform="translate(43 43)"/><rect class="d" width="92" height="92" rx="13" transform="translate(25 130)"/><path class="b" d="M-2.768-1.066V13.76H-11.8V-28.681H9.385a29.024,29.024,0,0,1,8.272.827,11.706,11.706,0,0,1,6.618,5.79,14.927,14.927,0,0,1,1.782,7.19,16.145,16.145,0,0,1-1.177,6.14A12.405,12.405,0,0,1,21.6-3.993,10.948,10.948,0,0,1,17.562-1.7a21.15,21.15,0,0,1-5.822.636Zm0-7.572H9.513q3.309,0,4.645-1.018,1.973-1.591,1.973-5.536,0-4.263-2.991-5.472A9.7,9.7,0,0,0,9.7-21.109H-2.768Z" transform="translate(66.106 183.049)"/></g></svg>