<svg xmlns="http://www.w3.org/2000/svg" xmlns:xlink="http://www.w3.org/1999/xlink" width="256" height="256" viewBox="0 0 256 256"><defs><filter id="a" x="9" y="12" width="238" height="238" filterUnits="userSpaceOnUse"><feOffset dy="3" input="SourceAlpha"/><feGaussianBlur stdDeviation="3" result="b"/><feFlood flood-opacity="0.161"/><feComposite operator="in" in2="b"/><feComposite in="SourceGraphic"/></filter><clipPath id="d"><rect width="256" height="256"/></clipPath></defs><g id="c" clip-path="url(#d)"><g transform="matrix(1, 0, 0, 1, 0, 0)" filter="url(#a)"><g transform="translate(18 18)" fill="#e67c92" stroke="#da526e" stroke-width="3"><rect width="220" height="220" rx="28" stroke="none"/><rect x="1.5" y="1.5" width="217" height="217" rx="26.5" fill="none"/></g></g><rect width="118" height="118" rx="59" transform="translate(72 69)" fill="#fff"/><g transform="translate(52 132)" fill="#fff" stroke="#e67c92" stroke-width="5"><rect width="64" height="64" rx="13" stroke="none"/><rect x="2.5" y="2.5" width="59" height="59" rx="10.5" fill="none"/></g><path d="M-5.507-9.436V.9h-6.3V-28.681H2.963a20.227,20.227,0,0,1,5.765.576,8.158,8.158,0,0,1,4.612,4.035,10.4,10.4,0,0,1,1.242,5.011,11.252,11.252,0,0,1-.82,4.279,8.645,8.645,0,0,1-2.284,3.3,7.63,7.63,0,0,1-2.816,1.6A14.739,14.739,0,0,1,4.6-9.436Zm0-5.277H3.051a5.513,5.513,0,0,0,3.237-.709q1.375-1.109,1.375-3.858,0-2.971-2.084-3.814a6.758,6.758,0,0,0-2.395-.31H-5.507Z" transform="translate(84.224 177.292)" fill="#e67c92"/></g></svg>