<svg xmlns="http://www.w3.org/2000/svg" xmlns:xlink="http://www.w3.org/1999/xlink" width="256" height="256" viewBox="0 0 256 256"><defs><style>.a{clip-path:url(#b);}</style><clipPath id="b"><rect width="256" height="256"/></clipPath></defs><g id="a" class="a"><g transform="translate(5.104 17.104)"><g transform="translate(-5.231 14.264)"><path d="M183.673,45.276H218.44a4.411,4.411,0,0,0,4.214-4.214,4.25,4.25,0,0,0-1.4-3.044L187.536,5.125a3.337,3.337,0,0,0-2.809-1.4A4.034,4.034,0,0,0,181.8,5.008a4.034,4.034,0,0,0-1.288,2.926V27.6H74.339a71.662,71.662,0,0,0-36.757,9.833,72.957,72.957,0,0,0-26.69,26.69A71.231,71.231,0,0,0,1.06,100.646a72.274,72.274,0,0,0,9.248,35.7,7.991,7.991,0,0,0,5.619,4.331,8.986,8.986,0,0,0,6.438-.936,9.706,9.706,0,0,0,4.1-5.5,8.988,8.988,0,0,0-.7-6.672,52.5,52.5,0,0,1-7.024-26.924,54.291,54.291,0,0,1,7.375-27.86A55.351,55.351,0,0,1,46.362,52.768a54.257,54.257,0,0,1,27.977-7.492Zm64.266,19.666a8.318,8.318,0,0,0-5.268-4.1,9.165,9.165,0,0,0-6.789.7,8.855,8.855,0,0,0-3.395,11.823,53.963,53.963,0,0,1,7.024,27.041,55.464,55.464,0,0,1-55.6,55.6H39.807A3.446,3.446,0,0,0,37,157.3a3.971,3.971,0,0,0-1.171,2.926A3.832,3.832,0,0,0,37,163.038l33.713,33.128a3.6,3.6,0,0,0,2.809,1.171,4.411,4.411,0,0,0,4.214-4.214V173.457H183.907a71.662,71.662,0,0,0,36.757-9.833,72.957,72.957,0,0,0,26.69-26.69,71.232,71.232,0,0,0,9.833-36.523A69.729,69.729,0,0,0,247.939,64.942Z" transform="translate(-1.06 -3.72)"/></g></g></g></svg>