<svg xmlns="http://www.w3.org/2000/svg" xmlns:xlink="http://www.w3.org/1999/xlink" width="256" height="256" viewBox="0 0 256 256"><defs><clipPath id="b"><rect width="256" height="256"/></clipPath></defs><g id="a" clip-path="url(#b)"><path d="M8.663,172.725h0A127.76,127.76,0,0,1,1,129H34.186a5.818,5.818,0,0,1,4.945,8.883L17,173.588a4.66,4.66,0,0,1-8.341-.863ZM3.051,151.941a128.19,128.19,0,1,1,41.275,73.052,8.727,8.727,0,1,1,11.55-13.085,110.23,110.23,0,1,0-35.65-63.076,8.727,8.727,0,1,1-17.175,3.109Z" transform="translate(-1 -1)"/><circle cx="42.5" cy="42.5" r="42.5" transform="translate(86 86)"/></g></svg>