<svg xmlns="http://www.w3.org/2000/svg" xmlns:xlink="http://www.w3.org/1999/xlink" width="256" height="256" viewBox="0 0 256 256"><defs><style>.a{clip-path:url(#b);}</style><clipPath id="b"><rect width="256" height="256"/></clipPath></defs><g id="a" class="a"><g transform="translate(4.737 -5.263)"><g transform="translate(11.263 21.263)"><path d="M35.706,1.99A32.413,32.413,0,0,0,18.848,6.6,35.506,35.506,0,0,0,6.6,18.848,32.413,32.413,0,0,0,1.99,35.706V193.274A32.413,32.413,0,0,0,6.6,210.132a35.506,35.506,0,0,0,12.25,12.25,32.413,32.413,0,0,0,16.858,4.608H193.274a32.413,32.413,0,0,0,16.858-4.608,35.506,35.506,0,0,0,12.25-12.25,32.413,32.413,0,0,0,4.608-16.858V35.706a32.413,32.413,0,0,0-4.608-16.858A35.506,35.506,0,0,0,210.132,6.6,32.413,32.413,0,0,0,193.274,1.99ZM163.266,69.2a5.733,5.733,0,0,1-1.8,4.383,6.212,6.212,0,0,1-4.383,1.8H71.9a6.212,6.212,0,0,1-4.383-1.8,5.733,5.733,0,0,1-1.8-4.383V19.3h97.552Zm46.753,124.076a15.981,15.981,0,0,1-4.945,11.688,15.7,15.7,0,0,1-11.8,5.057H35.706a15.809,15.809,0,0,1-11.688-5.057,15.809,15.809,0,0,1-5.057-11.688V35.706a15.7,15.7,0,0,1,5.057-11.8,15.981,15.981,0,0,1,11.688-4.945H48.968V69.2a22.444,22.444,0,0,0,6.743,16.3A21.893,21.893,0,0,0,71.9,92.35h85.19a21.893,21.893,0,0,0,16.184-6.856,22.444,22.444,0,0,0,6.743-16.3V18.961h13.262a15.871,15.871,0,0,1,11.8,4.945,15.871,15.871,0,0,1,4.945,11.8ZM58.409,148.206a8.5,8.5,0,0,0-6.069,2.473,7.6,7.6,0,0,0-2.585,5.844,7.72,7.72,0,0,0,2.585,5.957,8.5,8.5,0,0,0,6.069,2.473H170.571a8.5,8.5,0,0,0,6.069-2.473,7.72,7.72,0,0,0,2.585-5.957,7.6,7.6,0,0,0-2.585-5.844,8.5,8.5,0,0,0-6.069-2.473Z" transform="translate(-1.99 -1.99)"/></g></g></g></svg>