<svg xmlns="http://www.w3.org/2000/svg" xmlns:xlink="http://www.w3.org/1999/xlink" width="256" height="256" viewBox="0 0 256 256"><defs><style>.a{clip-path:url(#b);}</style><clipPath id="b"><rect width="256" height="256"/></clipPath></defs><g id="a" class="a"><path d="M197.107,182.038a112.794,112.794,0,0,0,18.5-32.607,105.507,105.507,0,0,0,6.729-37.266,107.009,107.009,0,0,0-14.88-55.122,111.417,111.417,0,0,0-40.242-40.112A107.727,107.727,0,0,0,112.1,2.18,107.276,107.276,0,0,0,56.973,16.931,109.1,109.1,0,0,0,16.861,57.043,107.727,107.727,0,0,0,2.11,112.165a107.727,107.727,0,0,0,14.751,55.122A109.1,109.1,0,0,0,56.973,207.4,107.276,107.276,0,0,0,112.1,222.151a107.264,107.264,0,0,0,38.3-6.858,113.791,113.791,0,0,0,33.125-19.28l57.71,57.451a9.684,9.684,0,0,0,13.716,0,10.013,10.013,0,0,0,0-13.716ZM21.649,112.165A87.093,87.093,0,0,1,33.941,66.877a92.689,92.689,0,0,1,33-33.125A86.415,86.415,0,0,1,112.1,21.46a87.538,87.538,0,0,1,45.288,12.292,92.362,92.362,0,0,1,33.125,33.125A87.093,87.093,0,0,1,202.8,112.165a87.093,87.093,0,0,1-12.292,45.288,92.362,92.362,0,0,1-33.125,33.125A87.538,87.538,0,0,1,112.1,202.871a86.415,86.415,0,0,1-45.159-12.292,92.689,92.689,0,0,1-33-33.125A87.093,87.093,0,0,1,21.649,112.165Z" transform="translate(-2.11 -1.18)"/></g></svg>