<svg xmlns="http://www.w3.org/2000/svg" xmlns:xlink="http://www.w3.org/1999/xlink" width="256" height="256" viewBox="0 0 256 256"><defs><style>.a{clip-path:url(#b);}</style><clipPath id="b"><rect width="256" height="256"/></clipPath></defs><g id="a" class="a"><g transform="translate(-0.293 37.133)"><path d="M175.458,23.556a13.987,13.987,0,0,1,14.266,14.266,13.661,13.661,0,0,1-4.094,10.048,13.863,13.863,0,0,1-10.172,4.218,13.978,13.978,0,0,1-14.266-13.646,15.7,15.7,0,0,1,4.466-10.42A13.1,13.1,0,0,1,175.458,23.556ZM143.949,47a34.02,34.02,0,0,0,11.785,17.119,30.785,30.785,0,0,0,19.724,6.7,31.442,31.442,0,0,0,19.724-6.7A32.6,32.6,0,0,0,206.72,47h42.054a8.761,8.761,0,0,0,6.451-2.605,9.284,9.284,0,0,0,0-13.15,8.56,8.56,0,0,0-6.451-2.729H206.72A32.6,32.6,0,0,0,195.183,11.4a31.442,31.442,0,0,0-19.724-6.7,30.785,30.785,0,0,0-19.724,6.7,34.02,34.02,0,0,0-11.785,17.119H10.84a8.962,8.962,0,0,0-6.575,2.729,9.6,9.6,0,0,0,0,13.15A9.18,9.18,0,0,0,10.84,47ZM85.272,167.333a14.276,14.276,0,0,1-10.3-4.218,13,13,0,0,1-4.342-9.8,13.95,13.95,0,0,1,4.342-10.42,14.276,14.276,0,0,1,10.3-4.218A13.863,13.863,0,0,1,95.444,142.9a14.38,14.38,0,0,1,4.094,10.42A12.888,12.888,0,0,1,95.2,163.24,13.784,13.784,0,0,1,85.272,167.333Zm31.261-23.57a32.346,32.346,0,0,0-11.661-17.119,30.932,30.932,0,0,0-19.6-6.7,31.29,31.29,0,0,0-19.848,6.7,34.313,34.313,0,0,0-11.661,17.119H10.84a8.962,8.962,0,0,0-6.575,2.729,8.913,8.913,0,0,0-2.605,6.575,8.761,8.761,0,0,0,2.605,6.451,8.962,8.962,0,0,0,6.575,2.729H53.762a34.313,34.313,0,0,0,11.661,17.119,31.29,31.29,0,0,0,19.848,6.7,30.932,30.932,0,0,0,19.6-6.7,32.346,32.346,0,0,0,11.661-17.119h132.24a9.322,9.322,0,0,0,9.18-9.18,8.7,8.7,0,0,0-2.729-6.575,8.56,8.56,0,0,0-6.451-2.729Z" transform="translate(-1.66 -4.7)"/></g></g></svg>