<svg xmlns="http://www.w3.org/2000/svg" xmlns:xlink="http://www.w3.org/1999/xlink" width="256" height="256" viewBox="0 0 256 256"><defs><style>.a{clip-path:url(#b);}</style><clipPath id="b"><rect width="256" height="256"/></clipPath></defs><g id="a" class="a"><g transform="translate(42.279 53.279)"><g transform="translate(-37.642 -53.607)"><path d="M125.011,93.7a34.2,34.2,0,0,1,18,4.92,35.373,35.373,0,0,1,12.96,13.2,35.916,35.916,0,0,1,4.8,18.121,34.851,34.851,0,0,1-4.8,18,33.628,33.628,0,0,1-12.96,12.96,35.3,35.3,0,0,1-18.241,4.8,36,36,0,0,1-31.2-18.121,35.916,35.916,0,0,1-4.8-18.121,34.2,34.2,0,0,1,4.92-18,35.373,35.373,0,0,1,13.2-12.96A35.916,35.916,0,0,1,125.011,93.7Zm.36-17.881a53.561,53.561,0,0,0-27.241,7.2,55.243,55.243,0,0,0-19.921,19.441,51.62,51.62,0,0,0-7.32,27A54.769,54.769,0,0,0,97.65,176.505a52.664,52.664,0,0,0,27.121,7.32,53.337,53.337,0,0,0,27.121-7.2,54.274,54.274,0,0,0,19.681-19.561,54.063,54.063,0,0,0,.12-54.122,55.541,55.541,0,0,0-19.441-19.8A51.4,51.4,0,0,0,125.371,75.822Zm18.121,181.806a17.463,17.463,0,0,0,10.08-3.12,19.6,19.6,0,0,0,6.96-7.92l9.72-22.681,2.28-1.2q5.28-3.12,10.44-6.36l24.721,3.24a18.687,18.687,0,0,0,10.68-1.92,18.1,18.1,0,0,0,7.8-7.32l18.961-32.881a17.42,17.42,0,0,0,2.52-10.32,20.744,20.744,0,0,0-3.6-10.08l-15-20.161v-14.16l15-20.161a18.736,18.736,0,0,0,3.72-10.08,18.449,18.449,0,0,0-2.64-10.32L226.174,49.061a18.761,18.761,0,0,0-7.56-7.2,17.614,17.614,0,0,0-10.56-2.04l-25.081,3.24a67.328,67.328,0,0,0-11.88-6.96L161.012,12.46a19.555,19.555,0,0,0-6.84-8.04,17.831,17.831,0,0,0-10.08-3.12H106.05a18.02,18.02,0,0,0-10.2,3.12,19.008,19.008,0,0,0-7.08,8.04L78.689,36.1l-2.88,1.68q-2.28,1.2-4.44,2.4a32.427,32.427,0,0,0-4.2,2.52l-25.321-2.88a17.8,17.8,0,0,0-10.56,1.56,18.693,18.693,0,0,0-7.92,7.44L4.407,81.943a16.636,16.636,0,0,0-2.52,10.2,20.89,20.89,0,0,0,3.6,10.2l15.36,20.4v13.32l-15.36,20.4a19.219,19.219,0,0,0-3.72,10.08,18.676,18.676,0,0,0,2.64,10.44l18.721,32.761a18.1,18.1,0,0,0,7.8,7.32,18.17,18.17,0,0,0,10.56,1.92l24.841-2.88q8.04,5.16,12.12,7.2l10.08,23.041a16.154,16.154,0,0,0,6.6,8.16,17.848,17.848,0,0,0,10.32,3.12Zm-77.762-60-27.361,2.88-18.961-33.6,16.321-21.961a14.36,14.36,0,0,0,2.64-8.04q-.24-3.48-.24-7.8t.24-7.8a13.978,13.978,0,0,0-2.64-8.28L19.407,90.583,38.968,57.1l27.6,3.48a15.6,15.6,0,0,0,4.8-.24,12.127,12.127,0,0,0,3.84-1.8,76.618,76.618,0,0,1,12.72-7.2,12.5,12.5,0,0,0,6-6.36l11.52-25.921,38.641.36,10.92,25.561a12.384,12.384,0,0,0,6,6.36,78.575,78.575,0,0,1,12.96,7.56,10.9,10.9,0,0,0,8.64,1.92l27.721-2.88,18.961,33.721-16.081,21.6a9.977,9.977,0,0,0-2.64,8.4q.36,3.72.36,8.16a77.721,77.721,0,0,1-.36,7.92,12.284,12.284,0,0,0,2.64,8.4l16.081,21.841-19.561,33.481-26.761-3.24a18.436,18.436,0,0,0-4.68.12,8.743,8.743,0,0,0-3.96,1.92,78.479,78.479,0,0,1-13.56,7.8,15.493,15.493,0,0,0-3.72,2.76,9.547,9.547,0,0,0-2.64,3.6l-10.92,24.961-38.641-.24L94.29,214.067a13.147,13.147,0,0,0-6.12-6.36,90.158,90.158,0,0,1-13.2-7.44,12.227,12.227,0,0,0-7.2-2.28Z" transform="translate(-1.748 -1.3)"/></g></g></g></svg>