<svg xmlns="http://www.w3.org/2000/svg" xmlns:xlink="http://www.w3.org/1999/xlink" width="256" height="256" viewBox="0 0 256 256"><defs><style>.a{clip-path:url(#b);}</style><clipPath id="b"><rect width="256" height="256"/></clipPath></defs><g id="a" class="a"><g transform="translate(7 7)"><path d="M123.047,243.928a118.269,118.269,0,0,0,58.44-15.142,122.431,122.431,0,0,0,44.244-41.4A118.183,118.183,0,0,0,244.3,129.3a8.32,8.32,0,0,0-2.248-6.388,9.233,9.233,0,0,0-6.27-2.957,7.949,7.949,0,0,0-6.388,2.129,8.4,8.4,0,0,0-2.957,6.033A98.91,98.91,0,0,1,211.3,176.852a105.678,105.678,0,0,1-36.436,35.608,98.985,98.985,0,0,1-48.976,13.959A99.9,99.9,0,0,1,73.6,213.88a104.329,104.329,0,0,1-38.684-36.791,102.646,102.646,0,0,1-3.667-102.21A103.736,103.736,0,0,1,65.672,36.55a100.086,100.086,0,0,1,49.449-16.917,8.926,8.926,0,0,0,7.926-9.582A8.81,8.81,0,0,0,120.09,3.9,8.535,8.535,0,0,0,113.7,1.77,119.25,119.25,0,0,0,56.09,21.644,121.591,121.591,0,0,0,15.631,66.716,118.155,118.155,0,0,0,1.791,126.1,116.556,116.556,0,0,0,19.3,185.488a121.852,121.852,0,0,0,44.126,42.706A118.255,118.255,0,0,0,123.047,243.928Z" transform="translate(-1.584 -1.562)"/><path d="M62.923,2.4a8.013,8.013,0,0,0-6.743.591,8.323,8.323,0,0,0-4.259,5.323,8.31,8.31,0,0,0,.591,6.861A8.818,8.818,0,0,0,57.6,19.438l44.835,13.6q-39.157,11.948-59.5,35.608Q22.7,92.429,16.787,112.066q-5.8,19.756-5.8,28.037h0a9.168,9.168,0,0,0,2.484,6.388,7.64,7.64,0,0,0,6.033,2.721,8.943,8.943,0,0,0,6.388-2.6,7.992,7.992,0,0,0,2.721-5.915q0-7.1,5.442-24.606Q39.382,98.58,58.31,78.351,77.119,58,113.792,48.658L99,97.161a8.943,8.943,0,0,0,5.678,11.12,10.2,10.2,0,0,0,6.743-.71,7.8,7.8,0,0,0,4.614-5.205l20.466-67.9a8.613,8.613,0,0,0-.591-6.98,8.732,8.732,0,0,0-5.087-4.377Z" transform="translate(98.524 0.407)"/></g></g></svg>