<svg xmlns="http://www.w3.org/2000/svg" xmlns:xlink="http://www.w3.org/1999/xlink" width="256" height="256" viewBox="0 0 256 256">
  <defs>
    <clipPath id="clip-sift">
      <rect width="256" height="256"/>
    </clipPath>
  </defs>
  <g id="sift" clip-path="url(#clip-sift)">
    <g id="_Public_ic_public_sift" data-name="_Public/ic_public_sift" transform="translate(4.398 -2.25)">
      <path id="_Stroke-1" d="M33.445,2.25l-2.031.062c-25.4,1.563-38.307,32.3-21,51.809l81.065,91.45.008,75.3a9.6,9.6,0,0,0,3.414,7.341l30.943,26.073,1.28.986c10.857,7.588,26.143-.178,26.143-13.837l-.008-92.271,84.5-95.012c17.8-20.019,3.753-51.906-23-51.906Zm0,19.2H214.761c10.1,0,15.5,12.25,8.656,19.95L136.494,139.14l-.852,1.112a9.6,9.6,0,0,0-1.574,5.267l-.008,90.591-23.383-19.7.009-74.483a9.6,9.6,0,0,0-2.416-6.367L24.778,41.384C17.947,33.683,23.35,21.448,33.445,21.448Z" transform="translate(0)"/>
    </g>
  </g>
</svg>
