<svg xmlns="http://www.w3.org/2000/svg" xmlns:xlink="http://www.w3.org/1999/xlink" width="256" height="256" viewBox="0 0 256 256"><defs><style>.a{clip-path:url(#b);}</style><clipPath id="b"><rect width="256" height="256"/></clipPath></defs><g id="a" class="a"><g transform="translate(11.501 5.75)"><path d="M31.511,2.25l-1.9.058C5.794,3.774-6.306,32.588,9.919,50.879l76,85.735.008,70.6a9,9,0,0,0,3.2,6.883l29.009,24.443,1.2.924c10.179,7.114,24.509-.167,24.509-12.972l-.007-86.5,79.223-89.074C239.748,32.144,226.577,2.25,201.494,2.25Zm0,18H201.494c9.473,0,14.533,11.485,8.115,18.7L128.12,130.584l-.8,1.043a9,9,0,0,0-1.476,4.938l-.007,84.929-21.922-18.466.008-69.828a9,9,0,0,0-2.265-5.969L23.385,38.938C16.982,31.719,22.047,20.248,31.511,20.248Z" transform="translate(0)"/></g></g></svg>