<svg xmlns="http://www.w3.org/2000/svg" xmlns:xlink="http://www.w3.org/1999/xlink" width="256" height="256" viewBox="0 0 256 256"><defs><style>.a{clip-path:url(#b);}.b{fill:none;}</style><clipPath id="b"><rect width="256" height="256"/></clipPath></defs><g id="a" class="a"><rect class="b" width="214" height="167" rx="83.5" transform="translate(21 45)"/><path d="M143.3,198.32a20.52,20.52,0,0,0,8.218-7.364,19.453,19.453,0,0,0,3.095-10.565V22.336a18.756,18.756,0,0,0-3.095-10.352A20.794,20.794,0,0,0,143.3,4.727a18.87,18.87,0,0,0-10.886-1.814A19.223,19.223,0,0,0,122.6,7.288L70.837,49.016H30.923A25.621,25.621,0,0,0,17.8,52.432a26.1,26.1,0,0,0-9.285,9.391A24.437,24.437,0,0,0,4.99,74.63v53.788a24.437,24.437,0,0,0,3.522,12.807,25.841,25.841,0,0,0,9.391,9.391,26.177,26.177,0,0,0,13.02,3.415h39.7L122.6,195.758a19.781,19.781,0,0,0,9.818,4.162A19.577,19.577,0,0,0,143.3,198.32ZM76.173,64.918l56.349-45.357a7.029,7.029,0,0,1,3.415-1.921,1.867,1.867,0,0,1,1.921,1.067,7.485,7.485,0,0,1,.64,3.629V180.39a8.289,8.289,0,0,1-.64,3.629,2.051,2.051,0,0,1-1.921,1.281q-1.281,0-3.415-1.814L76.173,138.129H30.923a9.658,9.658,0,0,1-9.818-9.712V74.63a9.658,9.658,0,0,1,9.818-9.712Z" transform="translate(3.512 26.831)"/><path d="M29.217,8.537A7.36,7.36,0,0,0,23.67,6.19a7.484,7.484,0,0,0-5.653,2.347A7.484,7.484,0,0,0,15.67,14.19a7.36,7.36,0,0,0,2.347,5.547,67.236,67.236,0,0,1,14.72,22.187,68.288,68.288,0,0,1,5.227,26.24,67.925,67.925,0,0,1-5.12,26.027A69.122,69.122,0,0,1,18.23,116.27a7.522,7.522,0,0,0,0,11.307,7.522,7.522,0,0,0,11.307,0,84.416,84.416,0,0,0,18.133-27.2,82.931,82.931,0,0,0,6.4-32.213,84.506,84.506,0,0,0-6.4-32.427A80.587,80.587,0,0,0,29.217,8.537Z" transform="translate(150.477 59.837)"/><path d="M32.367,6.017a7.983,7.983,0,0,0-11.307,0,7.663,7.663,0,0,0-2.24,5.653,7.533,7.533,0,0,0,2.24,5.547A102.8,102.8,0,0,1,44.207,51.563a105.232,105.232,0,0,1,8.107,40.96,105.214,105.214,0,0,1-8.107,40.747A107.584,107.584,0,0,1,21.38,167.83a6.766,6.766,0,0,0-2.453,5.547,7.844,7.844,0,0,0,2.453,5.653,7.36,7.36,0,0,0,5.547,2.347,7.484,7.484,0,0,0,5.653-2.347,122.214,122.214,0,0,0,26.24-39.68,120.486,120.486,0,0,0,9.387-46.827A120.234,120.234,0,0,0,58.82,45.59,120.855,120.855,0,0,0,32.367,6.017Z" transform="translate(180.927 35.477)"/></g></svg>