<svg xmlns="http://www.w3.org/2000/svg" xmlns:xlink="http://www.w3.org/1999/xlink" width="256" height="256" viewBox="0 0 256 256"><defs><style>.a{clip-path:url(#b);}.b{fill:none;}</style><clipPath id="b"><rect width="256" height="256"/></clipPath></defs><g id="a" class="a"><rect class="b" width="214" height="167" rx="83.5" transform="translate(21 45)"/><path d="M137.871,219.417a21,21,0,0,0,7.895-8.158,24.019,24.019,0,0,0,2.973-11.705V24.45a23.129,23.129,0,0,0-2.973-11.469,21.213,21.213,0,0,0-7.895-8.04,16.034,16.034,0,0,0-10.458-2.01,17.4,17.4,0,0,0-9.433,4.848L68.252,54.008H29.905a22.133,22.133,0,0,0-12.611,3.783,27.389,27.389,0,0,0-8.92,10.4A30.275,30.275,0,0,0,4.99,82.384v59.59a30.275,30.275,0,0,0,3.384,14.188,27.055,27.055,0,0,0,9.023,10.4,22.608,22.608,0,0,0,12.509,3.783H68.047l49.933,46.229a17.816,17.816,0,0,0,9.433,4.611A16.586,16.586,0,0,0,137.871,219.417ZM73.378,71.625l54.137-50.249q2.051-2.01,3.281-2.128a1.76,1.76,0,0,1,1.846,1.182,9.4,9.4,0,0,1,.615,4.02v175.1a10.426,10.426,0,0,1-.615,4.02,1.985,1.985,0,0,1-1.846,1.419q-1.23,0-3.281-2.01L73.378,152.733H29.905a8.459,8.459,0,0,1-6.665-3.074,11.333,11.333,0,0,1-2.768-7.685V82.384A11.333,11.333,0,0,1,23.241,74.7a8.459,8.459,0,0,1,6.665-3.074Z" transform="translate(4.386 16.256)"/><path d="M29.217,8.537A7.36,7.36,0,0,0,23.67,6.19a7.484,7.484,0,0,0-5.653,2.347A7.484,7.484,0,0,0,15.67,14.19a7.36,7.36,0,0,0,2.347,5.547,67.236,67.236,0,0,1,14.72,22.187,68.288,68.288,0,0,1,5.227,26.24,67.925,67.925,0,0,1-5.12,26.027A69.122,69.122,0,0,1,18.23,116.27a7.522,7.522,0,0,0,0,11.307,7.522,7.522,0,0,0,11.307,0,84.416,84.416,0,0,0,18.133-27.2,82.931,82.931,0,0,0,6.4-32.213,84.506,84.506,0,0,0-6.4-32.427A80.587,80.587,0,0,0,29.217,8.537Z" transform="translate(150.477 59.837)"/><path d="M32.367,6.017a7.983,7.983,0,0,0-11.307,0,7.663,7.663,0,0,0-2.24,5.653,7.533,7.533,0,0,0,2.24,5.547A102.8,102.8,0,0,1,44.207,51.563a105.232,105.232,0,0,1,8.107,40.96,105.214,105.214,0,0,1-8.107,40.747A107.584,107.584,0,0,1,21.38,167.83a6.766,6.766,0,0,0-2.453,5.547,7.844,7.844,0,0,0,2.453,5.653,7.36,7.36,0,0,0,5.547,2.347,7.484,7.484,0,0,0,5.653-2.347,122.214,122.214,0,0,0,26.24-39.68,120.486,120.486,0,0,0,9.387-46.827A120.234,120.234,0,0,0,58.82,45.59,120.855,120.855,0,0,0,32.367,6.017Z" transform="translate(180.927 35.477)"/></g></svg>