<svg xmlns="http://www.w3.org/2000/svg" xmlns:xlink="http://www.w3.org/1999/xlink" width="256" height="256" viewBox="0 0 256 256"><defs><style>.a{clip-path:url(#b);}</style><clipPath id="b"><rect width="256" height="256"/></clipPath></defs><g id="a" class="a"><path d="M148.329,221.232a23.368,23.368,0,0,0,9.359-2.251,19.678,19.678,0,0,0,9-7.819,21.974,21.974,0,0,0,3.2-11.729V23.979a22.586,22.586,0,0,0-3.2-11.847,20.631,20.631,0,0,0-9-7.819A20.951,20.951,0,0,0,145.722,2.18a22.574,22.574,0,0,0-11.373,4.739L77.009,53.241H32.938a28.442,28.442,0,0,0-14.572,3.791A28.975,28.975,0,0,0,8.06,67.458,27.557,27.557,0,0,0,4.15,81.911v59.472a27.557,27.557,0,0,0,3.91,14.453,27.789,27.789,0,0,0,10.307,10.425,28.441,28.441,0,0,0,14.572,3.791H77.009l57.34,46.441A22.651,22.651,0,0,0,148.329,221.232ZM83.17,71.13l62.316-50.587a5.258,5.258,0,0,1,2.606-.829,2.242,2.242,0,0,1,1.659.592,3.032,3.032,0,0,1,1.9,1.185,4.38,4.38,0,0,1,.711,2.488V199.434q0,2.251-2.606,3.91a5.105,5.105,0,0,1-4.265-.829L83.17,152.164H32.938a10.848,10.848,0,0,1-7.819-3.08,10.313,10.313,0,0,1-3.317-7.7V81.911a9.94,9.94,0,0,1,3.317-7.582,10.636,10.636,0,0,1,7.819-3.2Z" transform="translate(31.015 15.962)"/><path d="M224.06,224.173a9.167,9.167,0,0,0,0-12.558L17.566,5.239a8.711,8.711,0,0,0-6.279-2.725,7.515,7.515,0,0,0-6.16,2.725A8.175,8.175,0,0,0,2.52,11.4a8.312,8.312,0,0,0,2.606,6.279L211.5,224.173a9.167,9.167,0,0,0,12.558,0Z" transform="translate(13.335 13.49)"/></g></svg>