<svg xmlns="http://www.w3.org/2000/svg" xmlns:xlink="http://www.w3.org/1999/xlink" width="256" height="256" viewBox="0 0 256 256"><defs><style>.a{clip-path:url(#b);}.b{opacity:0;}.c{fill:rgba(0,0,0,0.9);}</style><clipPath id="b"><rect width="256" height="256"/></clipPath></defs><g id="a" class="a"><rect class="b" width="256" height="256"/><g transform="translate(44.267 21.739)"><path class="c" d="M133.963,199.393a21.04,21.04,0,0,0,8.427-2.027,17.717,17.717,0,0,0,8.107-7.04,19.784,19.784,0,0,0,2.88-10.56V21.793a20.336,20.336,0,0,0-2.88-10.667,18.576,18.576,0,0,0-8.107-7.04,18.863,18.863,0,0,0-10.773-1.92,20.325,20.325,0,0,0-10.24,4.267L69.75,48.139H30.07a25.608,25.608,0,0,0-13.12,3.413,26.088,26.088,0,0,0-9.28,9.387A24.811,24.811,0,0,0,4.15,73.953V127.5a24.811,24.811,0,0,0,3.52,13.013,25.02,25.02,0,0,0,9.28,9.387,25.608,25.608,0,0,0,13.12,3.413H69.75l51.627,41.813A20.394,20.394,0,0,0,133.963,199.393ZM75.3,64.246,131.4,18.7a4.734,4.734,0,0,1,2.347-.747,2.019,2.019,0,0,1,1.493.533,2.73,2.73,0,0,1,1.707,1.067,3.944,3.944,0,0,1,.64,2.24V179.766q0,2.027-2.347,3.52a4.6,4.6,0,0,1-3.84-.747L75.3,137.206H30.07a9.767,9.767,0,0,1-7.04-2.773,9.285,9.285,0,0,1-2.987-6.933V73.953a8.95,8.95,0,0,1,2.987-6.827,9.576,9.576,0,0,1,7.04-2.88Z" transform="translate(-4.15 -2.038)"/></g><g transform="translate(26.88 26.769)"><path class="c" d="M201.987,202.087a8.254,8.254,0,0,0,0-11.307L16.067,4.967a7.843,7.843,0,0,0-5.653-2.453A6.766,6.766,0,0,0,4.867,4.967,7.36,7.36,0,0,0,2.52,10.514a7.484,7.484,0,0,0,2.347,5.653L190.68,202.087a8.254,8.254,0,0,0,11.307,0Z" transform="translate(-2.52 -2.51)"/></g></g></svg>