<svg xmlns="http://www.w3.org/2000/svg" xmlns:xlink="http://www.w3.org/1999/xlink" width="256" height="256" viewBox="0 0 256 256"><defs><style>.a{clip-path:url(#b);}</style><clipPath id="b"><rect width="256" height="256"/></clipPath></defs><g id="a" class="a"><g transform="translate(144.834 46.834)"><g transform="translate(-144.834 -46.834)"><path d="M128.927,1.01a8.614,8.614,0,0,0-6.169,2.444,8.614,8.614,0,0,0-2.444,6.169v45.51a8.615,8.615,0,1,0,17.226,0V18.585A107.94,107.94,0,0,1,189.1,36.045,110.118,110.118,0,0,1,226,75.851a108.413,108.413,0,0,1,13.5,53.076,107.255,107.255,0,0,1-14.9,55.287A110.774,110.774,0,0,1,184.214,224.6a107.255,107.255,0,0,1-55.287,14.9A107.255,107.255,0,0,1,73.64,224.6a110.774,110.774,0,0,1-40.389-40.389,107.255,107.255,0,0,1-14.9-55.287A109.657,109.657,0,0,1,50.71,50.71a8.408,8.408,0,0,0,2.561-6.169,9.2,9.2,0,0,0-2.561-6.4,9.119,9.119,0,0,0-6.169-2.211,10.028,10.028,0,0,0-6.4,2.211A129.424,129.424,0,0,0,10.671,79.925a126.58,126.58,0,0,0-9.661,49A125.425,125.425,0,0,0,18.12,193.06a128.2,128.2,0,0,0,46.674,46.674,125.425,125.425,0,0,0,64.133,17.11,124.8,124.8,0,0,0,64.017-17.11A128.481,128.481,0,0,0,239.5,193.06a124.132,124.132,0,0,0,17.343-64.133A124.132,124.132,0,0,0,239.5,64.794,128.48,128.48,0,0,0,192.944,18.12,124.8,124.8,0,0,0,128.927,1.01Z" transform="translate(-1.01 -1.01)"/><path d="M56.4,72.676a10.47,10.47,0,0,0,8.264,4.19,11.569,11.569,0,0,0,12.1-12.1,10.47,10.47,0,0,0-4.19-8.264L17.057,8.776a6.255,6.255,0,0,0-4.19-1.746,5.974,5.974,0,0,0-4.19,1.746,8.349,8.349,0,0,0-1.63,4.307,5.19,5.19,0,0,0,1.63,4.074Z" transform="translate(63.139 63.039)"/></g></g></g></svg>