<svg xmlns="http://www.w3.org/2000/svg" xmlns:xlink="http://www.w3.org/1999/xlink" width="256" height="256" viewBox="0 0 256 256">
  <defs>
    <clipPath id="clip-star">
      <rect width="256" height="256"/>
    </clipPath>
  </defs>
  <g id="star" clip-path="url(#clip-star)">
    <path id="路径_13" data-name="路径 13" d="M208.174,244.581a14.347,14.347,0,0,0,5.249-6.68,12.165,12.165,0,0,0,.477-8.231l-15.747-63.583a13.058,13.058,0,0,1,.119-7.993,12.755,12.755,0,0,1,4.772-6.561l49.507-41.514a14.022,14.022,0,0,0,4.295-15.27,15.28,15.28,0,0,0-4.772-6.68,12.338,12.338,0,0,0-7.516-2.982L180.14,80.2a14.212,14.212,0,0,1-7.635-2.624,12.654,12.654,0,0,1-4.652-6.2l-25.29-60.72a13.937,13.937,0,0,0-5.249-6.442,13.625,13.625,0,0,0-15.747,0,13.937,13.937,0,0,0-5.249,6.442l-25.29,60.72a12.654,12.654,0,0,1-4.652,6.2A14.212,14.212,0,0,1,78.741,80.2L14.323,85.086a12.338,12.338,0,0,0-7.515,2.982,15.28,15.28,0,0,0-4.772,6.68,14.022,14.022,0,0,0,4.295,15.27l49.507,41.514a16.7,16.7,0,0,1,4.652,6.68,12.121,12.121,0,0,1,.239,7.873L44.981,229.67a13.6,13.6,0,0,0,5.726,14.912,13.572,13.572,0,0,0,7.754,2.624,12.3,12.3,0,0,0,7.993-2.386l54.994-35.549a14.808,14.808,0,0,1,15.747,0l54.994,35.549a12.664,12.664,0,0,0,7.993,2.147A13.8,13.8,0,0,0,208.174,244.581ZM80.173,97.97a29.588,29.588,0,0,0,16.582-5.726,31.838,31.838,0,0,0,10.975-14.077L129.441,25.8l21.711,52.37a34.816,34.816,0,0,0,11.214,14.077,29.262,29.262,0,0,0,16.343,5.726l55.471,4.295-42.588,35.43a30.1,30.1,0,0,0-10.021,14.673,32.248,32.248,0,0,0-.6,18.013l13.122,54.4-46.882-30.3a32.117,32.117,0,0,0-35.192,0l-47.24,30.3,13.361-54.4a30.245,30.245,0,0,0-.716-18.013,30.861,30.861,0,0,0-10.14-14.673L24.7,102.264Z" transform="translate(-1.627 3.575)"/>
  </g>
</svg>
