<svg xmlns="http://www.w3.org/2000/svg" xmlns:xlink="http://www.w3.org/1999/xlink" width="256" height="256" viewBox="0 0 256 256"><defs><style>.a{clip-path:url(#b);}.b{opacity:0;}</style><clipPath id="b"><rect width="256" height="256"/></clipPath></defs><g id="a" class="a"><g transform="translate(20.377 20)"><rect class="b" width="216" height="216" transform="translate(-0.377 0)"/><g transform="translate(11.251 15.275)"><path d="M157.107,184.639a10.806,10.806,0,0,0,3.953-5.032,9.163,9.163,0,0,0,.359-6.2l-11.86-47.891a9.835,9.835,0,0,1,.09-6.02,9.607,9.607,0,0,1,3.594-4.942l37.289-31.269a10.561,10.561,0,0,0,3.235-11.5,11.509,11.509,0,0,0-3.594-5.032,9.293,9.293,0,0,0-5.661-2.246l-48.52-3.684a10.7,10.7,0,0,1-5.751-1.977,9.531,9.531,0,0,1-3.5-4.672L107.688,8.439a10.5,10.5,0,0,0-3.953-4.852,10.262,10.262,0,0,0-11.86,0,10.5,10.5,0,0,0-3.953,4.852L68.872,54.174a9.531,9.531,0,0,1-3.5,4.672,10.7,10.7,0,0,1-5.751,1.977L11.1,64.507a9.293,9.293,0,0,0-5.661,2.246,11.509,11.509,0,0,0-3.594,5.032,10.561,10.561,0,0,0,3.235,11.5l37.289,31.269a12.581,12.581,0,0,1,3.5,5.032,9.13,9.13,0,0,1,.18,5.93l-11.86,47.891A10.247,10.247,0,0,0,38.5,184.639a10.222,10.222,0,0,0,5.84,1.977,9.264,9.264,0,0,0,6.02-1.8l41.422-26.776a11.153,11.153,0,0,1,11.86,0l41.422,26.776a9.539,9.539,0,0,0,6.02,1.617A10.4,10.4,0,0,0,157.107,184.639ZM60.7,74.211A22.286,22.286,0,0,0,73.185,69.9a23.981,23.981,0,0,0,8.266-10.6L97.8,19.85,114.158,59.3A26.224,26.224,0,0,0,122.6,69.9a22.041,22.041,0,0,0,12.31,4.313l41.781,3.235-32.077,26.686a22.674,22.674,0,0,0-7.548,11.052,24.29,24.29,0,0,0-.449,13.568l9.884,40.973L111.193,146.9a24.191,24.191,0,0,0-26.506,0L49.1,169.723l10.063-40.973a22.781,22.781,0,0,0-.539-13.568,23.245,23.245,0,0,0-7.637-11.052L18.915,77.445Z" transform="translate(-1.255 -1.7)"/></g></g></g></svg>