<svg xmlns="http://www.w3.org/2000/svg" xmlns:xlink="http://www.w3.org/1999/xlink" width="256" height="256" viewBox="0 0 256 256"><defs><clipPath id="b"><rect width="256" height="256"/></clipPath></defs><g id="a" clip-path="url(#b)"><path d="M-1742.283-2646.5a32.4,32.4,0,0,1-16.859-4.609,35.5,35.5,0,0,1-12.25-12.249,32.421,32.421,0,0,1-4.608-16.858v-153.069a32.413,32.413,0,0,1,4.608-16.859,35.5,35.5,0,0,1,12.25-12.251,32.425,32.425,0,0,1,16.859-4.607h157.568a32.421,32.421,0,0,1,16.858,4.607,35.5,35.5,0,0,1,12.25,12.251,32.405,32.405,0,0,1,4.608,16.859v153.069a32.421,32.421,0,0,1-4.608,16.858,35.5,35.5,0,0,1-12.25,12.249,32.4,32.4,0,0,1-16.858,4.609Zm-11.688-198.473a15.811,15.811,0,0,0-5.058,11.689v153.069a15.8,15.8,0,0,0,5.058,11.686,15.806,15.806,0,0,0,11.688,5.057h157.568a15.7,15.7,0,0,0,11.8-5.057,15.978,15.978,0,0,0,4.945-11.686v-153.069a15.982,15.982,0,0,0-4.946-11.689,15.694,15.694,0,0,0-11.8-5.057h-157.568A15.806,15.806,0,0,0-1753.971-2844.972ZM-1621.5-2684.5a9,9,0,0,1-9-9,9,9,0,0,1,9-9h30a9,9,0,0,1,9,9,9,9,0,0,1-9,9Zm-114,0a9,9,0,0,1-9-9,9,9,0,0,1,9-9h82a9,9,0,0,1,9,9,9,9,0,0,1-9,9Zm62-34a9,9,0,0,1-9-9,9,9,0,0,1,9-9h82a9,9,0,0,1,9,9,9,9,0,0,1-9,9Zm-62,0a9,9,0,0,1-9-9,9,9,0,0,1,9-9h30a9,9,0,0,1,9,9,9,9,0,0,1-9,9Z" transform="translate(1791.5 2884.5)"/></g></svg>