<svg xmlns="http://www.w3.org/2000/svg" xmlns:xlink="http://www.w3.org/1999/xlink" width="256" height="256" viewBox="0 0 256 256"><defs><clipPath id="b"><rect width="256" height="256"/></clipPath></defs><g id="a" clip-path="url(#b)"><path d="M34-9.5h94.226a43.549,43.549,0,0,1,43.5,43.5v76.547a43.549,43.549,0,0,1-43.5,43.5H34a43.549,43.549,0,0,1-43.5-43.5V34A43.549,43.549,0,0,1,34-9.5Zm94.226,144.547a24.528,24.528,0,0,0,24.5-24.5V34a24.528,24.528,0,0,0-24.5-24.5H34A24.528,24.528,0,0,0,9.5,34v76.547a24.528,24.528,0,0,0,24.5,24.5Z" transform="translate(32.829 72.524)"/><path d="M162.226,164.305V69.154a49.451,49.451,0,0,0-49.4-49.4H0V9.879L9.879,0H112.831a69.232,69.232,0,0,1,69.154,69.154v85.272l-9.88,9.879h0Z" transform="translate(55.187 30.928)"/></g></svg>