<svg xmlns="http://www.w3.org/2000/svg" xmlns:xlink="http://www.w3.org/1999/xlink" width="256" height="256" viewBox="0 0 256 256"><defs><clipPath id="b"><rect width="256" height="256"/></clipPath></defs><g id="a" clip-path="url(#b)"><path d="M43-9.5h96A52.559,52.559,0,0,1,191.5,43v96A52.559,52.559,0,0,1,139,191.5H43A52.559,52.559,0,0,1-9.5,139V43A52.559,52.559,0,0,1,43-9.5Zm96,182A33.538,33.538,0,0,0,172.5,139V43A33.538,33.538,0,0,0,139,9.5H43A33.538,33.538,0,0,0,9.5,43v96A33.538,33.538,0,0,0,43,172.5Z" transform="translate(37.5 37.5)"/></g></svg>