<svg xmlns="http://www.w3.org/2000/svg" xmlns:xlink="http://www.w3.org/1999/xlink" width="256" height="256" viewBox="0 0 256 256"><defs><clipPath id="b"><rect width="256" height="256"/></clipPath></defs><g id="a" clip-path="url(#b)"><path d="M199.52,57.421A8.313,8.313,0,0,1,199,66.687a86.928,86.928,0,0,0-17.567,52.646c0,47.592,37.551,85.786,83.425,85.786a81.288,81.288,0,0,0,35.356-8.047A8.313,8.313,0,0,1,311.6,207.491c-16.071,42.638-56.525,73.073-104.073,73.073C145.732,280.564,96,229.247,96,166.394c0-57.19,41.153-104.8,95.129-112.94a8.313,8.313,0,0,1,8.379,3.968Zm-24.794,17.4c-36.154,13.7-62.1,49.432-62.1,91.582,0,54.076,42.682,97.545,94.9,97.545,33.417,0,62.909-17.778,79.834-44.777a98.154,98.154,0,0,1-22.5,2.594c-55.45,0-100.05-46.052-100.05-102.411a104.063,104.063,0,0,1,9.92-44.522Z" transform="translate(-76.001 -39.361)"/></g></svg>