<svg xmlns="http://www.w3.org/2000/svg" xmlns:xlink="http://www.w3.org/1999/xlink" width="256" height="256" viewBox="0 0 256 256"><defs><clipPath id="b"><rect width="256" height="256"/></clipPath></defs><g id="a" clip-path="url(#b)"><path d="M4.442,4.432A6.774,6.774,0,0,0,2.52,9.283a6.774,6.774,0,0,0,1.922,4.851L163.982,173.582a6.731,6.731,0,0,0,4.851,2.105,5.806,5.806,0,0,0,4.76-2.105,6.316,6.316,0,0,0,2.014-4.76,6.422,6.422,0,0,0-2.014-4.851L14.144,4.432A6.774,6.774,0,0,0,9.293,2.51,6.774,6.774,0,0,0,4.442,4.432Z" transform="translate(38.937 38.9)"/><path d="M9.293-1.99a11.314,11.314,0,0,1,7.958,3.167L176.775,160.791a11.24,11.24,0,0,1-.076,16.047,9.985,9.985,0,0,1-7.641,3.354,11.493,11.493,0,0,1-8.332-3.5L1.261,17.317A11.374,11.374,0,0,1-1.98,9.283,11.314,11.314,0,0,1,1.187,1.325,11.424,11.424,0,0,1,9.293-1.99ZM168.986,171.19a1.366,1.366,0,0,0,1.22-.571,2.222,2.222,0,0,0,.9-1.8,1.946,1.946,0,0,0-.621-1.6L10.962,7.613a2.237,2.237,0,0,0-1.668-.6,2.292,2.292,0,0,0-1.744.677,2.22,2.22,0,0,0-.529,1.6A2.292,2.292,0,0,0,7.7,11.027L167.163,170.4a2.305,2.305,0,0,0,1.811.79Z" transform="translate(38.937 38.9)"/><path d="M173.684,4.432a6.774,6.774,0,0,1,1.922,4.851,6.774,6.774,0,0,1-1.922,4.851L14.144,173.583a6.73,6.73,0,0,1-4.851,2.105,5.806,5.806,0,0,1-4.76-2.105,6.316,6.316,0,0,1-2.014-4.76,6.422,6.422,0,0,1,2.014-4.851L163.981,4.432a7.083,7.083,0,0,1,9.7,0Z" transform="translate(38.937 38.899)"/><path d="M168.833-1.99a11.314,11.314,0,0,1,7.958,3.167,11.425,11.425,0,0,1,3.315,8.106,11.314,11.314,0,0,1-3.167,7.958L17.326,176.765a11.2,11.2,0,0,1-7.892,3.42,10.464,10.464,0,0,1-8.287-3.64,10.531,10.531,0,0,1-3.127-7.723,10.934,10.934,0,0,1,3.407-8.106L160.8,1.251A11.374,11.374,0,0,1,168.833-1.99ZM9.068,171.191a2.309,2.309,0,0,0,1.822-.716L170.5,10.951a2.237,2.237,0,0,0,.6-1.668,2.292,2.292,0,0,0-.677-1.744,2.22,2.22,0,0,0-1.6-.529,2.292,2.292,0,0,0-1.744.677L7.717,167.153a2.013,2.013,0,0,0-.7,1.67,1.836,1.836,0,0,0,.621,1.5C8.343,171.1,8.639,171.191,9.068,171.191Z" transform="translate(38.937 38.899)"/></g></svg>