<svg xmlns="http://www.w3.org/2000/svg" xmlns:xlink="http://www.w3.org/1999/xlink" width="256" height="256" viewBox="0 0 256 256"><defs><clipPath id="b"><rect width="256" height="256"/></clipPath></defs><g id="a" clip-path="url(#b)"><path d="M352.206,175.558a10.656,10.656,0,0,1,7.5,18.241L344.63,208.873a10.166,10.166,0,0,1-7.5,3.092A10.359,10.359,0,0,1,326.468,201.3a10.2,10.2,0,0,1,3.077-7.5l15.075-15.077a10.418,10.418,0,0,1,7.588-3.164Zm13,82.987h21.333a10.667,10.667,0,0,1,0,21.333H365.208a10.667,10.667,0,1,1,0-21.333Zm-96-117.333a10.678,10.678,0,0,1,10.67,10.667v21.333a10.672,10.672,0,0,1-21.344,0V151.878a10.675,10.675,0,0,1,10.675-10.667ZM186.3,175.558a10.325,10.325,0,0,1,7.506,3.164L208.877,193.8a10.628,10.628,0,0,1-7.5,18.167,10.367,10.367,0,0,1-7.578-3.057l-15.08-15.077a10.726,10.726,0,0,1,7.595-18.275H186.3ZM337.131,326.384a10.163,10.163,0,0,1,7.5,3.164l15.077,15.077a10.544,10.544,0,0,1,0,15.075,10.16,10.16,0,0,1-7.5,3.164,10.282,10.282,0,0,1-7.588-3.164l-15.075-15.075a10.15,10.15,0,0,1-3.077-7.5,10.739,10.739,0,0,1,10.67-10.738h-.007Zm-67.918-99.84A42.676,42.676,0,0,0,239.044,299.4a42.667,42.667,0,0,0,60.341-60.339,41.074,41.074,0,0,0-30.174-12.515Zm-117.332,32h21.333a10.667,10.667,0,1,1,0,21.333H151.881a10.667,10.667,0,0,1,0-21.333Zm117.332,96a10.678,10.678,0,0,1,10.67,10.667v21.333a10.673,10.673,0,0,1-21.345,0V365.211a10.675,10.675,0,0,1,10.673-10.667Zm-67.826-28.16a10.144,10.144,0,0,1,7.542,3.164,10.376,10.376,0,0,1,3.132,7.574,10.2,10.2,0,0,1-3.174,7.5L193.809,359.7a10.152,10.152,0,0,1-7.5,3.164,10.719,10.719,0,0,1-7.595-18.241l15.08-15.075a10.252,10.252,0,0,1,7.578-3.164h.014Zm67.824-121.173a62.927,62.927,0,0,1,32.121,8.567A63.887,63.887,0,0,1,324.621,237.1a64.4,64.4,0,0,1,0,64.249,64.273,64.273,0,0,1-23.289,23.289,64.5,64.5,0,0,1-64.246,0A64.355,64.355,0,0,1,213.8,301.353a64.4,64.4,0,0,1,0-64.249,63.9,63.9,0,0,1,23.289-23.323A62.92,62.92,0,0,1,269.211,205.211Z" transform="translate(-141.211 -141.211)"/></g></svg>