<svg xmlns="http://www.w3.org/2000/svg" xmlns:xlink="http://www.w3.org/1999/xlink" width="256" height="256" viewBox="0 0 256 256">
  <defs>
    <clipPath id="clip-trash">
      <rect width="256" height="256"/>
    </clipPath>
  </defs>
  <g id="trash" clip-path="url(#clip-trash)">
    <path id="路径_16" data-name="路径 16" d="M81.207,56.559a8.452,8.452,0,0,0,6.37-2.695,8.594,8.594,0,0,0,2.695-6.492,26.67,26.67,0,0,1,8.084-19.354,27.359,27.359,0,0,1,39.075,0,26.67,26.67,0,0,1,8.084,19.354,9.2,9.2,0,0,0,9.187,9.187h66.635a9.2,9.2,0,0,0,9.187-9.187A8.452,8.452,0,0,0,227.829,41a8.594,8.594,0,0,0-6.492-2.695H162.909a45.127,45.127,0,0,0-15.924-26.336,44.8,44.8,0,0,0-29.4-10.412,44.3,44.3,0,0,0-29.03,10.412A44.32,44.32,0,0,0,72.633,38.307H11.754A8.849,8.849,0,0,0,5.262,41a8.651,8.651,0,0,0-2.572,6.37,8.8,8.8,0,0,0,2.572,6.492,8.849,8.849,0,0,0,6.492,2.695Zm56.958,144.907a9.2,9.2,0,0,0,9.432-8.819l2.94-85.866a8.419,8.419,0,0,0-2.45-6.615,10.016,10.016,0,0,0-6.615-3.062,9.037,9.037,0,0,0-6.492,2.45,8.452,8.452,0,0,0-2.695,6.37L129.1,191.789a7.892,7.892,0,0,0,2.45,6.615A10.016,10.016,0,0,0,138.165,201.466Zm-42.627,0a10.016,10.016,0,0,0,6.615-3.062,8.247,8.247,0,0,0,2.572-6.615l-3.552-85.866a8.452,8.452,0,0,0-2.695-6.37,9.365,9.365,0,0,0-6.737-2.45,9.561,9.561,0,0,0-6.492,3.062,8.615,8.615,0,0,0-2.327,6.615l3.185,85.866a9.869,9.869,0,0,0,2.94,6.125A8.849,8.849,0,0,0,95.538,201.466Zm85.009,23.518a15.6,15.6,0,0,1-15.311,13.842H68.223a14.622,14.622,0,0,1-10.412-4.042,14.936,14.936,0,0,1-4.9-9.8l-12-154.094H22.656l12,155.564A33.147,33.147,0,0,0,45.439,248.5a32.438,32.438,0,0,0,22.783,8.819h97.013A32.007,32.007,0,0,0,187.9,248.5a34.405,34.405,0,0,0,10.9-22.048L210.558,70.89H192.306Z" transform="translate(11.137 -1.322)"/>
  </g>
</svg>
