<svg xmlns="http://www.w3.org/2000/svg" xmlns:xlink="http://www.w3.org/1999/xlink" width="256" height="256" viewBox="0 0 256 256"><defs><style>.a{clip-path:url(#b);}</style><clipPath id="b"><rect width="256" height="256"/></clipPath></defs><g id="a" class="a"><path d="M50.359,34.211V11.334a5.832,5.832,0,0,0-1.906-4.448A6.785,6.785,0,0,0,44,5.107,6.1,6.1,0,0,0,39.3,7.14L3.97,42.472A5.187,5.187,0,0,0,1.937,46.92a6.841,6.841,0,0,0,1.906,4.448,5.623,5.623,0,0,0,4.321,1.779H184.825a51.542,51.542,0,0,1,26.944,7.371,53.88,53.88,0,0,1,19.7,19.572,52.207,52.207,0,0,1,7.371,27.071,51.542,51.542,0,0,1-7.371,26.944,54.876,54.876,0,0,1-19.7,19.7,51.542,51.542,0,0,1-26.944,7.371H31.422a9.4,9.4,0,0,0-6.736,2.669,9.181,9.181,0,0,0-2.8,6.736,9.607,9.607,0,0,0,2.8,6.863,8.986,8.986,0,0,0,6.736,2.923h153.4a70.659,70.659,0,0,0,36.6-9.913,73.6,73.6,0,0,0,26.563-26.69,73.346,73.346,0,0,0,0-73.206A72.61,72.61,0,0,0,221.428,44a71.36,71.36,0,0,0-36.6-9.786Z" transform="translate(-1.929 34.901)"/></g></svg>