<svg xmlns="http://www.w3.org/2000/svg" xmlns:xlink="http://www.w3.org/1999/xlink" width="256" height="256" viewBox="0 0 256 256">
  <defs>
    <clipPath id="clip-update">
      <rect width="256" height="256"/>
    </clipPath>
  </defs>
  <g id="update" clip-path="url(#clip-update)">
    <path id="路径_60" data-name="路径 60" d="M192.16,195.16a62.553,62.553,0,0,0,31.92-8.54,63.762,63.762,0,0,0,23.273-23.379,63.783,63.783,0,0,0,1.174-62.025,63.926,63.926,0,0,0-20.39-22.739,62.422,62.422,0,0,0-28.5-10.676,86.183,86.183,0,0,0-16.547-33.415A84.934,84.934,0,0,0,117.111,3a82.9,82.9,0,0,0-38.859,9.394,84.332,84.332,0,0,0-30,25.728A82.836,82.836,0,0,0,33.308,74.953,64.042,64.042,0,0,0,8.967,98.546,62.87,62.87,0,0,0,0,131.107,61.77,61.77,0,0,0,8.754,163.24,64.593,64.593,0,0,0,32.133,186.62a62.553,62.553,0,0,0,31.92,8.54ZM117.111,18.907a68.294,68.294,0,0,1,55.833,28.077,66.075,66.075,0,0,1,12.277,29.571,7.09,7.09,0,0,0,2.562,4.7,7.922,7.922,0,0,0,5.124,1.922,48.761,48.761,0,0,1,40.994,24.02,46.307,46.307,0,0,1,6.405,23.913,46.85,46.85,0,0,1-6.512,24.127,49.133,49.133,0,0,1-17.508,17.508,46.85,46.85,0,0,1-24.127,6.512H64.053a46.85,46.85,0,0,1-24.127-6.512,48.282,48.282,0,0,1-17.4-17.508,47.449,47.449,0,0,1-6.405-24.127A48.276,48.276,0,0,1,44.09,87.55,6.891,6.891,0,0,0,47.4,84.988a6.553,6.553,0,0,0,1.281-3.843,65.439,65.439,0,0,1,11.1-31.6A68.141,68.141,0,0,1,84.55,27.127,67.256,67.256,0,0,1,117.111,18.907Z" transform="translate(0 29.393)"/>
    <path id="路径_54" data-name="路径 54" d="M69,102.1a6.3,6.3,0,0,0,4.689-1.986,6.44,6.44,0,0,0,1.931-4.634V58.134H95.485a5.408,5.408,0,0,0,3.145-.993,5.73,5.73,0,0,0,2.483-5.9,5.527,5.527,0,0,0-1.545-2.924L57.859,5.447a7.865,7.865,0,0,0-11.365,0L4.621,48.314a5.371,5.371,0,0,0-1.434,2.924,6,6,0,0,0,.386,3.31,5.669,5.669,0,0,0,2.152,2.593,5.408,5.408,0,0,0,3.145.993H28.73v37.35a6.3,6.3,0,0,0,1.986,4.689A6.44,6.44,0,0,0,35.35,102.1ZM37.06,53.886A3.962,3.962,0,0,0,32.978,49.8H14.717l37.46-38.4,37.46,38.4H71.486a3.9,3.9,0,0,0-2.869,1.159A3.985,3.985,0,0,0,67.4,53.886V93.718H37.06Z" transform="translate(76.14 83.509)" fill="none"/>
    <path id="多边形_5" data-name="多边形 5" d="M44.757,4.243a6,6,0,0,1,8.485,0L87.757,38.757A6,6,0,0,1,83.515,49H14.485a6,6,0,0,1-4.243-10.243Z" transform="translate(79 87)"/>
    <path id="路径_61" data-name="路径 61" d="M9,0H24a9,9,0,0,1,9,9V59a9,9,0,0,1-9,9H9a9,9,0,0,1-9-9V9A9,9,0,0,1,9,0Z" transform="translate(112 118)"/>
  </g>
</svg>
