<svg xmlns="http://www.w3.org/2000/svg" xmlns:xlink="http://www.w3.org/1999/xlink" width="256" height="256" viewBox="0 0 256 256"><defs><clipPath id="b"><rect width="256" height="256"/></clipPath></defs><g id="a" clip-path="url(#b)"><path d="M227,0H137.044c-4.418,0-8,3.909-8,8.732V179.094a8.642,8.642,0,0,0,5.932,8.435,7.738,7.738,0,0,0,9-4.075L213.482,51.819l20.449-38.727a9.428,9.428,0,0,0,0-8.729A7.9,7.9,0,0,0,227,0ZM145.044,17.464h68.112L145.044,146.457ZM98.742,0H8A7.9,7.9,0,0,0,1.074,4.363a9.428,9.428,0,0,0,0,8.729L91.811,184.947a7.739,7.739,0,0,0,9,4.075,8.642,8.642,0,0,0,5.932-8.435V8.732C106.742,3.909,103.16,0,98.742,0Zm-76.9,17.464h68.9V147.949Z" transform="translate(217.66 10.5) rotate(90)"/><path d="M0,159.44V0H88.082Z" transform="translate(202.72 149.02) rotate(90)"/></g></svg>