<svg xmlns="http://www.w3.org/2000/svg" xmlns:xlink="http://www.w3.org/1999/xlink" width="256" height="256" viewBox="0 0 256 256"><defs><style>.a{clip-path:url(#n);}.b{fill:url(#a);}.c{fill:url(#d);}.d{fill:url(#g);}.e{fill:url(#j);}.f{filter:url(#k);}.g{filter:url(#h);}.h{filter:url(#e);}.i{filter:url(#b);}</style><linearGradient id="a" x1="0.152" y1="0.034" x2="0.919" y2="0.929" gradientUnits="objectBoundingBox"><stop offset="0" stop-color="#939ceb"/><stop offset="1" stop-color="#205c8a"/></linearGradient><filter id="b" x="5" y="8" width="246" height="246" filterUnits="userSpaceOnUse"><feOffset dy="3" input="SourceAlpha"/><feGaussianBlur stdDeviation="3" result="c"/><feFlood flood-opacity="0.161"/><feComposite operator="in" in2="c"/><feComposite in="SourceGraphic"/></filter><linearGradient id="d" x1="0.855" y1="0.1" x2="0.15" y2="0.923" gradientUnits="objectBoundingBox"><stop offset="0" stop-color="#f4f4f4"/><stop offset="1" stop-color="#f2f2f2" stop-opacity="0"/></linearGradient><filter id="e" x="60" y="44" width="158" height="158" filterUnits="userSpaceOnUse"><feOffset dy="3" input="SourceAlpha"/><feGaussianBlur stdDeviation="3" result="f"/><feFlood flood-opacity="0.161"/><feComposite operator="in" in2="f"/><feComposite in="SourceGraphic"/></filter><linearGradient id="g" x1="0.119" y1="0.127" x2="0.926" y2="0.942" gradientUnits="objectBoundingBox"><stop offset="0" stop-color="#f2f2f2"/><stop offset="1" stop-color="#abbae1"/></linearGradient><filter id="h" x="38" y="112" width="110" height="110" filterUnits="userSpaceOnUse"><feOffset dy="3" input="SourceAlpha"/><feGaussianBlur stdDeviation="3" result="i"/><feFlood flood-opacity="0.161"/><feComposite operator="in" in2="i"/><feComposite in="SourceGraphic"/></filter><linearGradient id="j" x1="0.795" y1="-0.161" x2="0.5" y2="1" gradientUnits="objectBoundingBox"><stop offset="0" stop-color="#9daee7"/><stop offset="1" stop-color="#3c67b9"/></linearGradient><filter id="k" x="50.967" y="141.328" width="83.603" height="60.441" filterUnits="userSpaceOnUse"><feOffset dy="3" input="SourceAlpha"/><feGaussianBlur stdDeviation="3" result="l"/><feFlood flood-opacity="0.161"/><feComposite operator="in" in2="l"/><feComposite in="SourceGraphic"/></filter><clipPath id="n"><rect width="256" height="256"/></clipPath></defs><g id="m" class="a"><g class="i" transform="matrix(1, 0, 0, 1, 0, 0)"><rect class="b" width="228" height="228" rx="19" transform="translate(14 14)"/></g><g class="h" transform="matrix(1, 0, 0, 1, 0, 0)"><rect class="c" width="140" height="140" rx="24" transform="translate(69 50)"/></g><g class="g" transform="matrix(1, 0, 0, 1, 0, 0)"><rect class="d" width="92" height="92" rx="13" transform="translate(47 118)"/></g><g class="f" transform="matrix(1, 0, 0, 1, 0, 0)"><path class="e" d="M-12.813-28.681-3.268,3.261,5.64-28.681H15.693L24.6,3.261l9.545-31.942h9.29L29.756,13.76H19.448L10.667-16.846,1.886,13.76H-8.422L-22.166-28.681Z" transform="translate(82.13 176.01)"/></g></g></svg>