<svg xmlns="http://www.w3.org/2000/svg" xmlns:xlink="http://www.w3.org/1999/xlink" width="256" height="256" viewBox="0 0 256 256"><defs><filter id="a" x="9" y="12" width="238" height="238" filterUnits="userSpaceOnUse"><feOffset dy="3" input="SourceAlpha"/><feGaussianBlur stdDeviation="3" result="b"/><feFlood flood-opacity="0.161"/><feComposite operator="in" in2="b"/><feComposite in="SourceGraphic"/></filter><clipPath id="d"><rect width="256" height="256"/></clipPath></defs><g id="c" clip-path="url(#d)"><g transform="matrix(1, 0, 0, 1, 0, 0)" filter="url(#a)"><g transform="translate(18 18)" fill="#7cbce6" stroke="#52adda" stroke-width="3"><rect width="220" height="220" rx="28" stroke="none"/><rect x="1.5" y="1.5" width="217" height="217" rx="26.5" fill="none"/></g></g><rect width="118" height="118" rx="22" transform="translate(72 69)" fill="#fff"/><g transform="translate(52 132)" fill="#fff" stroke="#7cbce6" stroke-width="5"><rect width="64" height="64" rx="13" stroke="none"/><rect x="2.5" y="2.5" width="59" height="59" rx="10.5" fill="none"/></g><path d="M-16.331-28.681l5.954,19.928,5.558-19.928H1.453L7.011-8.753l5.954-19.928h5.8L10.226-2.2H3.8L-1.683-21.3-7.161-2.2h-6.431l-8.574-26.478Z" transform="translate(86.134 182.009)" fill="#7cbce6"/></g></svg>