<svg xmlns="http://www.w3.org/2000/svg" xmlns:xlink="http://www.w3.org/1999/xlink" width="256" height="256" viewBox="0 0 256 256"><defs><style>.a{clip-path:url(#j);}.b{fill:#f6f6f6;}.c{fill:#86c5e3;}.d{fill:#61a2c1;}.e{fill:#fff;}.f{filter:url(#g);}.g{filter:url(#e);}.h{filter:url(#c);}.i{filter:url(#a);}</style><filter id="a" x="33" y="36" width="191" height="191" filterUnits="userSpaceOnUse"><feOffset dy="3" input="SourceAlpha"/><feGaussianBlur stdDeviation="3" result="b"/><feFlood flood-opacity="0.161"/><feComposite operator="in" in2="b"/><feComposite in="SourceGraphic"/></filter><filter id="c" x="66" y="61" width="133" height="139" filterUnits="userSpaceOnUse"><feOffset dy="3" input="SourceAlpha"/><feGaussianBlur stdDeviation="3" result="d"/><feFlood flood-opacity="0.161"/><feComposite operator="in" in2="d"/><feComposite in="SourceGraphic"/></filter><filter id="e" x="50" y="124" width="80" height="80" filterUnits="userSpaceOnUse"><feOffset dy="3" input="SourceAlpha"/><feGaussianBlur stdDeviation="3" result="f"/><feFlood flood-opacity="0.161"/><feComposite operator="in" in2="f"/><feComposite in="SourceGraphic"/></filter><filter id="g" x="59.333" y="142.319" width="62.333" height="46.681" filterUnits="userSpaceOnUse"><feOffset dy="3" input="SourceAlpha"/><feGaussianBlur stdDeviation="3" result="h"/><feFlood flood-opacity="0.161"/><feComposite operator="in" in2="h"/><feComposite in="SourceGraphic"/></filter><clipPath id="j"><rect width="256" height="256"/></clipPath></defs><g id="i" class="a"><g class="i" transform="matrix(1, 0, 0, 1, 0, 0)"><rect class="b" width="173" height="173" rx="28" transform="translate(42 42)"/></g><g class="h" transform="matrix(1, 0, 0, 1, 0, 0)"><rect class="c" width="115" height="121" rx="28" transform="translate(75 67)"/></g><g class="g" transform="matrix(1, 0, 0, 1, 0, 0)"><rect class="d" width="62" height="62" rx="13" transform="translate(59 130)"/></g><g class="f" transform="matrix(1, 0, 0, 1, 0, 0)"><path class="e" d="M-15.845-28.681-9.4-7.1l6.02-21.586H3.419L9.439-7.1l6.45-21.586h6.278L12.922,0H5.956L.022-20.683-5.912,0h-6.966l-9.288-28.681Z" transform="translate(90.5 177)"/></g></g></svg>