<svg xmlns="http://www.w3.org/2000/svg" xmlns:xlink="http://www.w3.org/1999/xlink" width="256" height="256" viewBox="0 0 256 256">
  <defs>
    <filter id="矩形_21" x="33" y="36" width="191" height="191" filterUnits="userSpaceOnUse">
      <feOffset dy="3" input="SourceAlpha"/>
      <feGaussianBlur stdDeviation="3" result="blur"/>
      <feFlood flood-opacity="0.161"/>
      <feComposite operator="in" in2="blur"/>
      <feComposite in="SourceGraphic"/>
    </filter>
    <filter id="矩形_1" x="66" y="61" width="133" height="139" filterUnits="userSpaceOnUse">
      <feOffset dy="3" input="SourceAlpha"/>
      <feGaussianBlur stdDeviation="3" result="blur-2"/>
      <feFlood flood-opacity="0.161"/>
      <feComposite operator="in" in2="blur-2"/>
      <feComposite in="SourceGraphic"/>
    </filter>
    <filter id="矩形_22" x="50" y="124" width="80" height="80" filterUnits="userSpaceOnUse">
      <feOffset dy="3" input="SourceAlpha"/>
      <feGaussianBlur stdDeviation="3" result="blur-3"/>
      <feFlood flood-opacity="0.161"/>
      <feComposite operator="in" in2="blur-3"/>
      <feComposite in="SourceGraphic"/>
    </filter>
    <filter id="路径_3" x="59.333" y="142.319" width="62.333" height="46.681" filterUnits="userSpaceOnUse">
      <feOffset dy="3" input="SourceAlpha"/>
      <feGaussianBlur stdDeviation="3" result="blur-4"/>
      <feFlood flood-opacity="0.161"/>
      <feComposite operator="in" in2="blur-4"/>
      <feComposite in="SourceGraphic"/>
    </filter>
    <clipPath id="clip-Word文档">
      <rect width="256" height="256"/>
    </clipPath>
  </defs>
  <g id="Word文档" clip-path="url(#clip-Word文档)">
    <g transform="matrix(1, 0, 0, 1, 0, 0)" filter="url(#矩形_21)">
      <rect id="矩形_21-2" data-name="矩形 21" width="173" height="173" rx="28" transform="translate(42 42)" fill="#f6f6f6"/>
    </g>
    <g transform="matrix(1, 0, 0, 1, 0, 0)" filter="url(#矩形_1)">
      <rect id="矩形_1-2" data-name="矩形 1" width="115" height="121" rx="28" transform="translate(75 67)" fill="#86c5e3"/>
    </g>
    <g transform="matrix(1, 0, 0, 1, 0, 0)" filter="url(#矩形_22)">
      <rect id="矩形_22-2" data-name="矩形 22" width="62" height="62" rx="13" transform="translate(59 130)" fill="#61a2c1"/>
    </g>
    <g transform="matrix(1, 0, 0, 1, 0, 0)" filter="url(#路径_3)">
      <path id="路径_3-2" data-name="路径 3" d="M-15.845-28.681-9.4-7.1l6.02-21.586H3.419L9.439-7.1l6.45-21.586h6.278L12.922,0H5.956L.022-20.683-5.912,0h-6.966l-9.288-28.681Z" transform="translate(90.5 177)" fill="#fff"/>
    </g>
  </g>
</svg>
