<svg xmlns="http://www.w3.org/2000/svg" xmlns:xlink="http://www.w3.org/1999/xlink" width="256" height="256" viewBox="0 0 256 256"><defs><clipPath id="b"><rect width="256" height="256"/></clipPath></defs><g id="a" clip-path="url(#b)"><g transform="translate(18 18)" fill="#deba74" stroke="#bc9241" stroke-width="3"><rect width="220" height="220" rx="28" stroke="none"/><rect x="1.5" y="1.5" width="217" height="217" rx="26.5" fill="none"/></g><g transform="translate(114 33)" fill="none" stroke="#efefef" stroke-width="7"><circle cx="14" cy="14" r="14" stroke="none"/><circle cx="14" cy="14" r="10.5" fill="none"/></g><g transform="translate(-29 579)" fill="#cba253"><path d="M 265.5003051757813 -501.5004272460938 L 48.49979782104492 -501.5004272460938 L 48.49979782104492 -532.9998168945313 C 48.49979782104492 -536.5779418945313 49.20023727416992 -540.0482177734375 50.58168029785156 -543.3142700195313 C 51.91632461547852 -546.4696655273438 53.82729721069336 -549.3038330078125 56.26150131225586 -551.738037109375 C 58.6956787109375 -554.1722412109375 61.52985382080078 -556.0831909179688 64.68526458740234 -557.4178466796875 C 67.95132446289063 -558.7992553710938 71.42162322998047 -559.4996948242188 74.99971008300781 -559.4996948242188 L 239.0004119873047 -559.4996948242188 C 242.5785064697266 -559.4996948242188 246.0487976074219 -558.7992553710938 249.3148498535156 -557.4178466796875 C 252.4702606201172 -556.0831909179688 255.3044128417969 -554.1722412109375 257.7386169433594 -551.738037109375 C 260.1728210449219 -549.3038330078125 262.0837707519531 -546.4696655273438 263.4184265136719 -543.3142700195313 C 264.7998657226563 -540.0482177734375 265.5003051757813 -536.5779418945313 265.5003051757813 -532.9998168945313 L 265.5003051757813 -501.5004272460938 Z" stroke="none"/><path d="M 264.0003051757813 -503.0004272460938 L 264.0003051757813 -532.9998168945313 C 264.0003051757813 -536.3760986328125 263.3397216796875 -539.6497802734375 262.0369262695313 -542.7299194335938 C 260.7778930664063 -545.70654296875 258.9748840332031 -548.3804321289063 256.6779479980469 -550.6773681640625 C 254.3810272216797 -552.9743041992188 251.7071228027344 -554.7772827148438 248.7305297851563 -556.0363159179688 C 245.6503601074219 -557.339111328125 242.3766784667969 -557.9996948242188 239.0004119873047 -557.9996948242188 L 74.99971008300781 -557.9996948242188 C 71.62344360351563 -557.9996948242188 68.34976959228516 -557.339111328125 65.26959228515625 -556.0363159179688 C 62.29297256469727 -554.7772827148438 59.61909103393555 -552.9743041992188 57.32214736938477 -550.6773681640625 C 55.02520751953125 -548.3804321289063 53.22220993041992 -545.70654296875 51.96320724487305 -542.7299194335938 C 50.66038513183594 -539.6497802734375 49.99979782104492 -536.3760986328125 49.99979782104492 -532.9998168945313 L 49.99979782104492 -503.0004272460938 L 264.0003051757813 -503.0004272460938 M 267.0003051757813 -500.0004272460938 L 46.99979782104492 -500.0004272460938 L 46.99979782104492 -532.9998168945313 C 46.99979782104492 -548.463623046875 59.53591537475586 -560.9996948242188 74.99971008300781 -560.9996948242188 L 239.0004119873047 -560.9996948242188 C 254.4642028808594 -560.9996948242188 267.0003051757813 -548.463623046875 267.0003051757813 -532.9998168945313 L 267.0003051757813 -500.0004272460938 Z" stroke="none" fill="#bc9241"/></g><g transform="translate(114 38)" fill="none" stroke="#efefef" stroke-width="7"><circle cx="14" cy="14" r="14" stroke="none"/><circle cx="14" cy="14" r="10.5" fill="none"/></g></g></svg>