<svg xmlns="http://www.w3.org/2000/svg" xmlns:xlink="http://www.w3.org/1999/xlink" width="256" height="256" viewBox="0 0 256 256"><defs><style>.a{clip-path:url(#l);}.b{fill:url(#a);}.c{fill:url(#d);}.d,.f{fill:none;}.d{stroke:#efefef;stroke-width:7px;}.e{stroke:none;}.g{filter:url(#i);}.h{filter:url(#g);}.i{filter:url(#e);}.j{filter:url(#b);}</style><linearGradient id="a" x1="0.152" y1="0.034" x2="0.919" y2="0.929" gradientUnits="objectBoundingBox"><stop offset="0" stop-color="#d9af5e"/><stop offset="1" stop-color="#d38448"/></linearGradient><filter id="b" x="5" y="8" width="246" height="246" filterUnits="userSpaceOnUse"><feOffset dy="3" input="SourceAlpha"/><feGaussianBlur stdDeviation="3" result="c"/><feFlood flood-opacity="0.161"/><feComposite operator="in" in2="c"/><feComposite in="SourceGraphic"/></filter><linearGradient id="d" x1="0.152" y1="0.034" x2="0.919" y2="0.929" gradientUnits="objectBoundingBox"><stop offset="0" stop-color="#e9ca8e"/><stop offset="1" stop-color="#c99827"/></linearGradient><filter id="e" x="5" y="8" width="246" height="58" filterUnits="userSpaceOnUse"><feOffset dy="3" input="SourceAlpha"/><feGaussianBlur stdDeviation="3" result="f"/><feFlood flood-opacity="0.161"/><feComposite operator="in" in2="f"/><feComposite in="SourceGraphic"/></filter><filter id="g" x="105" y="57" width="46" height="46" filterUnits="userSpaceOnUse"><feOffset dy="3" input="SourceAlpha"/><feGaussianBlur stdDeviation="3" result="h"/><feFlood flood-opacity="0.161"/><feComposite operator="in" in2="h"/><feComposite in="SourceGraphic"/></filter><filter id="i" x="105" y="14" width="46" height="46" filterUnits="userSpaceOnUse"><feOffset dy="3" input="SourceAlpha"/><feGaussianBlur stdDeviation="3" result="j"/><feFlood flood-opacity="0.161"/><feComposite operator="in" in2="j"/><feComposite in="SourceGraphic"/></filter><clipPath id="l"><rect width="256" height="256"/></clipPath></defs><g id="k" class="a"><g class="j" transform="matrix(1, 0, 0, 1, 0, 0)"><rect class="b" width="228" height="228" rx="19" transform="translate(14 14)"/></g><g class="i" transform="matrix(1, 0, 0, 1, 0, 0)"><rect class="c" width="228" height="40" rx="19" transform="translate(14 14)"/></g><g class="h" transform="matrix(1, 0, 0, 1, 0, 0)"><g class="d" transform="translate(114 63)"><circle class="e" cx="14" cy="14" r="14"/><circle class="f" cx="14" cy="14" r="10.5"/></g></g><g class="g" transform="matrix(1, 0, 0, 1, 0, 0)"><g class="d" transform="translate(114 20)"><circle class="e" cx="14" cy="14" r="14"/><circle class="f" cx="14" cy="14" r="10.5"/></g></g></g></svg>