<svg xmlns="http://www.w3.org/2000/svg" xmlns:xlink="http://www.w3.org/1999/xlink" width="256" height="256" viewBox="0 0 256 256">
  <defs>
    <linearGradient id="linear-gradient" x1="0.168" y1="0.028" x2="0.924" y2="0.985" gradientUnits="objectBoundingBox">
      <stop offset="0" stop-color="#6fc5f1"/>
      <stop offset="1" stop-color="#4b73d2"/>
    </linearGradient>
    <filter id="减去_7" x="24.589" y="6.25" width="206.822" height="249.501" filterUnits="userSpaceOnUse">
      <feOffset dy="3" input="SourceAlpha"/>
      <feGaussianBlur stdDeviation="3" result="blur"/>
      <feFlood flood-opacity="0.161"/>
      <feComposite operator="in" in2="blur"/>
      <feComposite in="SourceGraphic"/>
    </filter>
    <filter id="减去_7-2" x="24.589" y="6.25" width="206.822" height="249.501" filterUnits="userSpaceOnUse">
      <feOffset dx="-1" dy="-1" input="SourceAlpha"/>
      <feGaussianBlur stdDeviation="1" result="blur-2"/>
      <feFlood flood-color="#1560a1" result="color"/>
      <feComposite operator="out" in="SourceGraphic" in2="blur-2"/>
      <feComposite operator="in" in="color"/>
      <feComposite operator="in" in2="SourceGraphic"/>
    </filter>
    <filter id="减去_5" x="33.589" y="12.25" width="188.822" height="231.501" filterUnits="userSpaceOnUse">
      <feOffset dx="1" dy="3" input="SourceAlpha"/>
      <feGaussianBlur stdDeviation="2.5" result="blur-3"/>
      <feFlood flood-color="#fefefe" result="color-2"/>
      <feComposite operator="out" in="SourceGraphic" in2="blur-3"/>
      <feComposite operator="in" in="color-2"/>
      <feComposite operator="in" in2="SourceGraphic"/>
    </filter>
    <linearGradient id="linear-gradient-2" x1="0.779" y1="1.423" x2="0.386" y2="0.5" gradientUnits="objectBoundingBox">
      <stop offset="0" stop-color="#4e79d4"/>
      <stop offset="1" stop-color="#5c9ae1"/>
    </linearGradient>
    <linearGradient id="linear-gradient-3" x1="0.451" y1="0.245" x2="0.281" y2="1" gradientUnits="objectBoundingBox">
      <stop offset="0" stop-color="#4e7ad4"/>
      <stop offset="1" stop-color="#60a2e4"/>
    </linearGradient>
    <linearGradient id="linear-gradient-4" x1="0.5" x2="0.196" y2="1" gradientUnits="objectBoundingBox">
      <stop offset="0" stop-color="#fff"/>
      <stop offset="1" stop-color="#fff" stop-opacity="0.729"/>
    </linearGradient>
    <linearGradient id="linear-gradient-5" x1="0.45" y1="0.5" x2="0.067" y2="0.939" gradientUnits="objectBoundingBox">
      <stop offset="0" stop-color="#fff"/>
      <stop offset="1" stop-color="#fff" stop-opacity="0.871"/>
    </linearGradient>
    <clipPath id="clip-图像_3">
      <rect width="256" height="256"/>
    </clipPath>
  </defs>
  <g id="图像_3" data-name="图像 – 3" clip-path="url(#clip-图像_3)">
    <g data-type="innerShadowGroup">
      <g transform="matrix(1, 0, 0, 1, 0, 0)" filter="url(#减去_7)">
        <path id="减去_7-3" data-name="减去 7" d="M171.822,231.5H17a17,17,0,0,1-17-17V17A17,17,0,0,1,17,0H136.485l52.337,52.337V214.5a17,17,0,0,1-17,17Z" transform="translate(33.59 12.25)" fill="url(#linear-gradient)"/>
      </g>
      <g transform="matrix(1, 0, 0, 1, 0, 0)" filter="url(#减去_7-2)">
        <path id="减去_7-4" data-name="减去 7" d="M171.822,231.5H17a17,17,0,0,1-17-17V17A17,17,0,0,1,17,0H136.485l52.337,52.337V214.5a17,17,0,0,1-17,17Z" transform="translate(33.59 12.25)" fill="#fff"/>
      </g>
    </g>
    <g transform="matrix(1, 0, 0, 1, 0, 0)" filter="url(#减去_5)">
      <path id="减去_5-2" data-name="减去 5" d="M171.822,231.5H17a17,17,0,0,1-17-17V17A17,17,0,0,1,17,0H136.485l52.337,52.337V214.5a17,17,0,0,1-17,17Z" transform="translate(33.59 12.25)" fill="#fff" opacity="0.3"/>
    </g>
    <path id="减去_6" data-name="减去 6" d="M49.5,53.714H10a10.012,10.012,0,0,1-10-10V0L49.5,53.712Z" transform="translate(217.854 113.47) rotate(180)" fill="url(#linear-gradient-2)"/>
    <path id="减去_4" data-name="减去 4" d="M53.714,53.714H10a10.011,10.011,0,0,1-10-10V0L53.712,53.712Z" transform="translate(169.041 11.905)" fill="url(#linear-gradient-3)"/>
    <path id="路径_74" data-name="路径 74" d="M660.059,184.326m13.659,0a13.659,13.659,0,1,1-13.659-13.659A13.659,13.659,0,0,1,673.718,184.326Z" transform="translate(-558.231 -89.504)" fill="#fff"/>
    <path id="路径_75" data-name="路径 75" d="M186.415,352.536l32.44,53.27c5.464,9.22-1.024,20.83-11.61,20.83H142.023c-10.586,0-17.074-11.61-11.61-20.83l32.44-53.27a14.04,14.04,0,0,1,23.562,0Z" transform="translate(-31.438 -237.653)" fill="url(#linear-gradient-4)"/>
    <path id="路径_76" data-name="路径 76" d="M554.707,513.326l17.074,28c5.464,9.22-1.024,20.83-11.61,20.83H526.023c-10.586,0-17.074-11.61-11.61-20.83l17.074-28a13.451,13.451,0,0,1,23.221,0Z" transform="translate(-445.83 -372.49)" fill="url(#linear-gradient-5)"/>
  </g>
</svg>
