<svg xmlns="http://www.w3.org/2000/svg" xmlns:xlink="http://www.w3.org/1999/xlink" width="256" height="256" viewBox="0 0 256 256"><defs><style>.a{clip-path:url(#j);}.b{fill:url(#a);}.c{fill:url(#d);}.d{fill:url(#e);}.e{fill:url(#f);}.f{filter:url(#g);}.g{filter:url(#b);}</style><linearGradient id="a" x1="0.152" y1="0.034" x2="0.919" y2="0.929" gradientUnits="objectBoundingBox"><stop offset="0" stop-color="#54aabb"/><stop offset="1" stop-color="#576fce"/></linearGradient><filter id="b" x="5" y="8" width="246" height="246" filterUnits="userSpaceOnUse"><feOffset dy="3" input="SourceAlpha"/><feGaussianBlur stdDeviation="3" result="c"/><feFlood flood-opacity="0.161"/><feComposite operator="in" in2="c"/><feComposite in="SourceGraphic"/></filter><linearGradient id="d" x1="0.597" y1="-0.243" x2="1.032" y2="0.413" gradientUnits="objectBoundingBox"><stop offset="0" stop-color="#f1f1f1"/><stop offset="1" stop-color="#7a9fd1"/></linearGradient><linearGradient id="e" x1="0.5" x2="0.5" y2="1" gradientUnits="objectBoundingBox"><stop offset="0" stop-color="#f1f1f1"/><stop offset="1" stop-color="#eee" stop-opacity="0.91"/></linearGradient><linearGradient id="f" x1="0.5" x2="0.5" y2="1" gradientUnits="objectBoundingBox"><stop offset="0" stop-color="#f3f3f3"/><stop offset="1" stop-color="#f1f1f1" stop-opacity="0.078"/></linearGradient><filter id="g" x="59.858" y="60.575" width="66.42" height="66.42" filterUnits="userSpaceOnUse"><feOffset dy="3" input="SourceAlpha"/><feGaussianBlur stdDeviation="3" result="h"/><feFlood flood-opacity="0.161"/><feComposite operator="in" in2="h"/><feComposite in="SourceGraphic"/></filter><clipPath id="j"><rect width="256" height="256"/></clipPath></defs><g id="i" class="a"><g class="g" transform="matrix(1, 0, 0, 1, 0, 0)"><rect class="b" width="228" height="228" rx="19" transform="translate(14 14)"/></g><path class="c" d="M42.31,7.943a7,7,0,0,1,11.381,0l34.374,47.98A7,7,0,0,1,82.374,67H13.626a7,7,0,0,1-5.69-11.077Z" transform="translate(39 125)"/><path class="d" d="M55.339,11.42a7,7,0,0,1,12.321,0l49.77,92.257A7,7,0,0,1,111.27,114H11.73a7,7,0,0,1-6.161-10.324Z" transform="translate(87 78)"/><g class="f" transform="matrix(1, 0, 0, 1, 0, 0)"><circle class="e" cx="18" cy="18" r="18" transform="matrix(0.89, -0.45, 0.45, 0.89, 68.86, 82.92)"/></g></g></svg>