<svg xmlns="http://www.w3.org/2000/svg" xmlns:xlink="http://www.w3.org/1999/xlink" width="256" height="256" viewBox="0 0 256 256"><defs><style>.a{clip-path:url(#h);}.b{fill:#f6f6f6;}.c{fill:#61cfbe;}.d{fill:#f9a01e;}.e{filter:url(#e);}.f{filter:url(#c);}.g{filter:url(#a);}</style><filter id="a" x="33" y="36" width="191" height="191" filterUnits="userSpaceOnUse"><feOffset dy="3" input="SourceAlpha"/><feGaussianBlur stdDeviation="3" result="b"/><feFlood flood-opacity="0.161"/><feComposite operator="in" in2="b"/><feComposite in="SourceGraphic"/></filter><filter id="c" x="63" y="73" width="94" height="84" filterUnits="userSpaceOnUse"><feOffset dy="3" input="SourceAlpha"/><feGaussianBlur stdDeviation="3" result="d"/><feFlood flood-opacity="0.161"/><feComposite operator="in" in2="d"/><feComposite in="SourceGraphic"/></filter><filter id="e" x="108" y="107" width="85" height="83" filterUnits="userSpaceOnUse"><feOffset dy="3" input="SourceAlpha"/><feGaussianBlur stdDeviation="3" result="f"/><feFlood flood-opacity="0.161"/><feComposite operator="in" in2="f"/><feComposite in="SourceGraphic"/></filter><clipPath id="h"><rect width="256" height="256"/></clipPath></defs><g id="g" class="a"><g class="g" transform="matrix(1, 0, 0, 1, 0, 0)"><rect class="b" width="173" height="173" rx="28" transform="translate(42 42)"/></g><g class="f" transform="matrix(1, 0, 0, 1, 0, 0)"><path class="c" d="M31.934,10.536a7,7,0,0,1,12.133,0L69.959,55.507A7,7,0,0,1,63.892,66H12.108A7,7,0,0,1,6.041,55.507Z" transform="translate(72 79)"/></g><g class="e" transform="matrix(1, 0, 0, 1, 0, 0)"><ellipse class="d" cx="33.5" cy="32.5" rx="33.5" ry="32.5" transform="translate(117 113)"/></g></g></svg>