<svg xmlns="http://www.w3.org/2000/svg" xmlns:xlink="http://www.w3.org/1999/xlink" width="256" height="256" viewBox="0 0 256 256"><defs><filter id="a" x="9" y="12" width="238" height="238" filterUnits="userSpaceOnUse"><feOffset dy="3" input="SourceAlpha"/><feGaussianBlur stdDeviation="3" result="b"/><feFlood flood-opacity="0.161"/><feComposite operator="in" in2="b"/><feComposite in="SourceGraphic"/></filter><clipPath id="d"><rect width="256" height="256"/></clipPath></defs><g id="c" clip-path="url(#d)"><g transform="matrix(1, 0, 0, 1, 0, 0)" filter="url(#a)"><g transform="translate(18 18)" fill="#575757" stroke="#222" stroke-width="3"><rect width="220" height="220" rx="28" stroke="none"/><rect x="1.5" y="1.5" width="217" height="217" rx="26.5" fill="none"/></g></g><path d="M36.485-84.959,40.408-64.5h7.006l-1.4-26.624H-36.941L-38.062-64.5h7.006l3.924-20.458H-1.49c.28,13.452.28,27.325.28,41.057V-36.2c0,13.732,0,27.325-.28,40.637L-17.744,5.982v5.045h44.7V5.982L10.842,4.441c-.42-13.452-.42-27.184-.42-40.637V-43.9c0-14.013,0-27.745.42-41.057Z" transform="translate(122.999 168.131)" fill="#f6f6f6" stroke="#f6f6f6" stroke-linecap="round" stroke-width="6"/></g></svg>