<svg xmlns="http://www.w3.org/2000/svg" xmlns:xlink="http://www.w3.org/1999/xlink" width="256" height="256" viewBox="0 0 256 256"><defs><style>.a{clip-path:url(#f);}.b{fill:#adadad;}.c{fill:#fff;stroke:#fff;stroke-linecap:round;stroke-width:6px;}.d{filter:url(#c);}.e{filter:url(#a);}</style><filter id="a" x="33" y="36" width="191" height="191" filterUnits="userSpaceOnUse"><feOffset dy="3" input="SourceAlpha"/><feGaussianBlur stdDeviation="3" result="b"/><feFlood flood-opacity="0.161"/><feComposite operator="in" in2="b"/><feComposite in="SourceGraphic"/></filter><filter id="c" x="77.809" y="72.875" width="100.541" height="115.125" filterUnits="userSpaceOnUse"><feOffset dy="3" input="SourceAlpha"/><feGaussianBlur stdDeviation="3" result="d"/><feFlood flood-opacity="0.161"/><feComposite operator="in" in2="d"/><feComposite in="SourceGraphic"/></filter><clipPath id="f"><rect width="256" height="256"/></clipPath></defs><g id="e" class="a"><g class="e" transform="matrix(1, 0, 0, 1, 0, 0)"><rect class="b" width="173" height="173" rx="28" transform="translate(42 42)"/></g><g class="d" transform="matrix(1, 0, 0, 1, 0, 0)"><path class="c" d="M28.438-85.625l3.5,18.25h6.25l-1.25-23.75h-74l-1,23.75h6.25l3.5-18.25H-5.437c.25,12,.25,24.375.25,36.625v6.875c0,12.25,0,24.375-.25,36.25L-19.937-4.5V0H19.938V-4.5L5.563-5.875c-.375-12-.375-24.25-.375-36.25V-49c0-12.5,0-24.75.375-36.625Z" transform="translate(128 173)"/></g></g></svg>