<svg xmlns="http://www.w3.org/2000/svg" xmlns:xlink="http://www.w3.org/1999/xlink" width="256" height="256" viewBox="0 0 256 256"><defs><style>.a{clip-path:url(#h);}.b{fill:url(#a);}.c{fill:#f1f1f1;stroke:#f6f6f6;stroke-linecap:round;stroke-width:6px;}.d{opacity:0.37;fill:url(#f);}.e{filter:url(#d);}.f{filter:url(#b);}</style><linearGradient id="a" x1="0.152" y1="0.034" x2="0.919" y2="0.929" gradientUnits="objectBoundingBox"><stop offset="0" stop-color="#696969"/><stop offset="1" stop-color="#1b1b1b"/></linearGradient><filter id="b" x="5" y="8" width="246" height="246" filterUnits="userSpaceOnUse"><feOffset dy="3" input="SourceAlpha"/><feGaussianBlur stdDeviation="3" result="c"/><feFlood flood-opacity="0.161"/><feComposite operator="in" in2="c"/><feComposite in="SourceGraphic"/></filter><filter id="d" x="63.371" y="56.5" width="129.291" height="149.484" filterUnits="userSpaceOnUse"><feOffset dy="3" input="SourceAlpha"/><feGaussianBlur stdDeviation="3" result="e"/><feFlood flood-opacity="0.161"/><feComposite operator="in" in2="e"/><feComposite in="SourceGraphic"/></filter><linearGradient id="f" x1="0.152" y1="0.034" x2="0.919" y2="0.929" gradientUnits="objectBoundingBox"><stop offset="0" stop-color="#696969" stop-opacity="0"/><stop offset="1" stop-color="#1b1b1b"/></linearGradient><clipPath id="h"><rect width="256" height="256"/></clipPath></defs><g id="g" class="a"><g class="f" transform="matrix(1, 0, 0, 1, 0, 0)"><rect class="b" width="228" height="228" rx="19" transform="translate(14 14)"/></g><g class="e" transform="matrix(1, 0, 0, 1, 0, 0)"><path class="c" d="M53.511-83.551l4.82,25.131h8.607l-1.721-32.7h-101.9l-1.377,32.7h8.607l4.82-25.131h31.5c.344,16.525.344,33.566.344,50.434v9.467c0,16.869,0,33.566-.344,49.918L-13.1,28.162v6.2h54.91v-6.2l-19.8-1.893c-.516-16.525-.516-33.393-.516-49.918v-9.467c0-17.213,0-34.082.516-50.434Z" transform="translate(113.56 156.62)"/></g><rect class="d" width="228" height="228" rx="19" transform="translate(14 14)"/></g></svg>