<svg xmlns="http://www.w3.org/2000/svg" xmlns:xlink="http://www.w3.org/1999/xlink" width="256" height="256" viewBox="0 0 256 256"><defs><clipPath id="b"><rect width="256" height="256"/></clipPath></defs><g id="a" clip-path="url(#b)"><g transform="translate(43 47)" fill="#f6f6f6" stroke="#bdbdbd" stroke-width="3"><rect width="181" height="147" rx="8" stroke="none"/><rect x="1.5" y="1.5" width="178" height="144" rx="6.5" fill="none"/></g><g transform="translate(16 40)" fill="#42cab5"><path d="M 206.0000915527344 165.5003967285156 L 16.99921607971191 165.5003967285156 C 12.85909938812256 165.5003967285156 8.966863632202148 163.8881072998047 6.039510726928711 160.9605255126953 C 3.112158060073853 158.0329895019531 1.500010967254639 154.1405792236328 1.500010967254639 150.0003204345703 L 1.500010967254639 140.0229034423828 L 1.500010967254639 21.99961090087891 C 1.500010967254639 19.23152160644531 2.041805028915405 16.54705047607422 3.110363960266113 14.02072811126709 C 4.142775535583496 11.57981586456299 5.62106990814209 9.387345314025879 7.50421667098999 7.504198551177979 C 9.387363433837891 5.621080875396729 11.57980537414551 4.142757415771484 14.02071666717529 3.110345363616943 C 16.54704093933105 2.041786670684814 19.23151016235352 1.499992489814758 21.99959945678711 1.499992489814758 L 74.85751342773438 1.499992489814758 C 78.44165802001953 1.499992489814758 81.35759735107422 4.415933609008789 81.35759735107422 8.000109672546387 L 81.35759735107422 18.97740364074707 L 81.35759735107422 20.47740364074707 L 82.85759735107422 20.47740364074707 L 206.0000915527344 20.47740364074707 C 210.1402740478516 20.47740364074707 214.0326843261719 22.08969879150391 216.9602813720703 25.0173168182373 C 219.8878936767578 27.94490432739258 221.5001831054688 31.83731651306152 221.5001831054688 35.97749328613281 L 221.5001831054688 150.0003204345703 C 221.5001831054688 154.1404876708984 219.8878936767578 158.0328979492188 216.9602813720703 160.9604949951172 C 214.0326843261719 163.8881072998047 210.1402740478516 165.5003967285156 206.0000915527344 165.5003967285156 Z" stroke="none"/><path d="M 206.0000915527344 164.0003814697266 C 209.7396240234375 164.0003814697266 213.2553558349609 162.5440979003906 215.8996276855469 159.8998260498047 C 218.5439147949219 157.2555389404297 220.0001983642578 153.7398223876953 220.0001983642578 150.0003204345703 L 220.0001983642578 35.97751235961914 C 220.0001983642578 32.23797988891602 218.5439147949219 28.72226142883301 215.8996276855469 26.07798004150391 C 213.2553558349609 23.4336986541748 209.7396240234375 21.9774169921875 206.0000915527344 21.9774169921875 L 82.85759735107422 21.9774169921875 L 79.85759735107422 21.9774169921875 L 79.85759735107422 18.9774169921875 L 79.85759735107422 8.000104904174805 C 79.85759735107422 5.2430419921875 77.61457061767578 3.000010967254639 74.85750579833984 3.000010967254639 L 21.99959945678711 3.000010967254639 C 16.92463111877441 3.000010967254639 12.15344333648682 4.976323127746582 8.56488037109375 8.564886093139648 C 4.976317882537842 12.1534481048584 3.000005483627319 16.92463493347168 3.000005483627319 21.99960517883301 L 3.000005483627319 140.0229187011719 L 3.000005483627319 150.0003204345703 C 3.000005483627319 153.7399139404297 4.456161499023438 157.2556610107422 7.100193023681641 159.8999176025391 C 9.744255065917969 162.5441284179688 13.25978660583496 164.0003814697266 16.99919319152832 164.0003814697266 L 206.0000915527344 164.0003814697266 M 206.0000915527344 167.0003814697266 L 16.99919319152832 167.0003814697266 C 7.610411643981934 167.0003814697266 5.432129000837449e-06 159.3890991210938 5.432129000837449e-06 150.0003204345703 L 5.432129000837449e-06 140.0229187011719 L 5.432129000837449e-06 21.99960517883301 C 5.432129000837449e-06 9.849604606628418 9.84959888458252 1.08642580016749e-05 21.99959945678711 1.08642580016749e-05 L 74.85750579833984 1.08642580016749e-05 C 79.27559661865234 1.08642580016749e-05 82.85759735107422 3.582010746002197 82.85759735107422 8.000104904174805 L 82.85759735107422 18.9774169921875 L 206.0000915527344 18.9774169921875 C 215.388916015625 18.9774169921875 223.0001983642578 26.58869743347168 223.0001983642578 35.97751235961914 L 223.0001983642578 150.0003204345703 C 223.0001983642578 159.3890991210938 215.388916015625 167.0003814697266 206.0000915527344 167.0003814697266 Z" stroke="none" fill="#29a290"/></g></g></svg>