<svg xmlns="http://www.w3.org/2000/svg" xmlns:xlink="http://www.w3.org/1999/xlink" width="256" height="256" viewBox="0 0 256 256"><defs><style>.a{clip-path:url(#k);}.b{fill:url(#a);}.c{fill:url(#g);}.d{filter:url(#h);}.e{filter:url(#e);}.f{filter:url(#b);}</style><linearGradient id="a" x1="0.152" y1="0.034" x2="0.919" y2="0.929" gradientUnits="objectBoundingBox"><stop offset="0" stop-color="#f6f6f6"/><stop offset="1" stop-color="#dedede"/></linearGradient><filter id="b" x="51" y="33" width="142" height="68" filterUnits="userSpaceOnUse"><feOffset dy="3" input="SourceAlpha"/><feGaussianBlur stdDeviation="3" result="c"/><feFlood flood-opacity="0.161"/><feComposite operator="in" in2="c"/><feComposite in="SourceGraphic"/></filter><filter id="e" x="25" y="28" width="142" height="68" filterUnits="userSpaceOnUse"><feOffset dy="3" input="SourceAlpha"/><feGaussianBlur stdDeviation="3" result="f"/><feFlood flood-opacity="0.161"/><feComposite operator="in" in2="f"/><feComposite in="SourceGraphic"/></filter><linearGradient id="g" x1="0.196" x2="1" y2="1" gradientUnits="objectBoundingBox"><stop offset="0" stop-color="#61cfbe"/><stop offset="1" stop-color="#38b29e"/></linearGradient><filter id="h" x="2" y="22" width="252" height="217.001" filterUnits="userSpaceOnUse"><feOffset dy="3" input="SourceAlpha"/><feGaussianBlur stdDeviation="3" result="i"/><feFlood flood-opacity="0.161"/><feComposite operator="in" in2="i"/><feComposite in="SourceGraphic"/></filter><clipPath id="k"><rect width="256" height="256"/></clipPath></defs><g id="j" class="a"><g class="f" transform="matrix(1, 0, 0, 1, 0, 0)"><rect class="b" width="124" height="50" rx="8" transform="translate(60 39)"/></g><g class="e" transform="matrix(1, 0, 0, 1, 0, 0)"><rect class="b" width="124" height="50" rx="8" transform="translate(34 34)"/></g><g class="d" transform="matrix(1, 0, 0, 1, 0, 0)"><path class="c" d="M17,199A17,17,0,0,1,0,182V22A22,22,0,0,1,22,0H78.944a8,8,0,0,1,8,8V22.613H217a17,17,0,0,1,17,17V182a17,17,0,0,1-17,17Z" transform="translate(11 28)"/></g></g></svg>