<svg xmlns="http://www.w3.org/2000/svg" xmlns:xlink="http://www.w3.org/1999/xlink" width="256" height="256" viewBox="0 0 256 256"><defs><style>.a{clip-path:url(#d);}.b{fill:#fff;}.c{fill:#61cfbe;}.d{filter:url(#a);}</style><filter id="a" x="25" y="42" width="205" height="178.999" filterUnits="userSpaceOnUse"><feOffset dy="3" input="SourceAlpha"/><feGaussianBlur stdDeviation="3" result="b"/><feFlood flood-opacity="0.161"/><feComposite operator="in" in2="b"/><feComposite in="SourceGraphic"/></filter><clipPath id="d"><rect width="256" height="256"/></clipPath></defs><g id="c" class="a"><rect class="b" width="151" height="141" rx="8" transform="translate(58 58)"/><g class="d" transform="matrix(1, 0, 0, 1, 0, 0)"><path class="c" d="M17,161A17,17,0,0,1,0,144V22A22,22,0,0,1,22,0H61.482a8,8,0,0,1,8,8V18.3H170a17,17,0,0,1,17,17V144a17,17,0,0,1-17,17Z" transform="translate(34 48)"/></g></g></svg>