<svg xmlns="http://www.w3.org/2000/svg" xmlns:xlink="http://www.w3.org/1999/xlink" width="256" height="256" viewBox="0 0 256 256"><defs><style>.a{clip-path:url(#n);}.b{fill:url(#a);}.c{fill:url(#d);}.d{filter:url(#k);}.e{filter:url(#h);}.f{filter:url(#e);}.g{filter:url(#b);}</style><linearGradient id="a" x1="0.152" y1="0.034" x2="0.919" y2="0.929" gradientUnits="objectBoundingBox"><stop offset="0" stop-color="#57b7e4"/><stop offset="1" stop-color="#5d66d7"/></linearGradient><filter id="b" x="5" y="8" width="246" height="246" filterUnits="userSpaceOnUse"><feOffset dy="3" input="SourceAlpha"/><feGaussianBlur stdDeviation="3" result="c"/><feFlood flood-opacity="0.161"/><feComposite operator="in" in2="c"/><feComposite in="SourceGraphic"/></filter><linearGradient id="d" x1="0.5" x2="0.5" y2="1" gradientUnits="objectBoundingBox"><stop offset="0" stop-color="#f6f6f6"/><stop offset="1" stop-color="#f1f1f1" stop-opacity="0.612"/></linearGradient><filter id="e" x="42" y="64" width="172" height="37" filterUnits="userSpaceOnUse"><feOffset dy="3" input="SourceAlpha"/><feGaussianBlur stdDeviation="3" result="f"/><feFlood flood-opacity="0.161"/><feComposite operator="in" in2="f"/><feComposite in="SourceGraphic"/></filter><filter id="h" x="42" y="113" width="172" height="37" filterUnits="userSpaceOnUse"><feOffset dy="3" input="SourceAlpha"/><feGaussianBlur stdDeviation="3" result="i"/><feFlood flood-opacity="0.161"/><feComposite operator="in" in2="i"/><feComposite in="SourceGraphic"/></filter><filter id="k" x="43" y="162" width="106" height="37" filterUnits="userSpaceOnUse"><feOffset dy="3" input="SourceAlpha"/><feGaussianBlur stdDeviation="3" result="l"/><feFlood flood-opacity="0.161"/><feComposite operator="in" in2="l"/><feComposite in="SourceGraphic"/></filter><clipPath id="n"><rect width="256" height="256"/></clipPath></defs><g id="m" class="a"><g class="g" transform="matrix(1, 0, 0, 1, 0, 0)"><rect class="b" width="228" height="228" rx="19" transform="translate(14 14)"/></g><g class="f" transform="matrix(1, 0, 0, 1, 0, 0)"><rect class="c" width="154" height="19" rx="9.5" transform="translate(51 70)"/></g><g class="e" transform="matrix(1, 0, 0, 1, 0, 0)"><rect class="c" width="154" height="19" rx="9.5" transform="translate(51 119)"/></g><g class="d" transform="matrix(1, 0, 0, 1, 0, 0)"><rect class="c" width="88" height="19" rx="9.5" transform="translate(52 168)"/></g></g></svg>