<svg xmlns="http://www.w3.org/2000/svg" xmlns:xlink="http://www.w3.org/1999/xlink" width="256" height="256" viewBox="0 0 256 256">
  <defs>
    <filter id="矩形_21" x="33" y="36" width="191" height="191" filterUnits="userSpaceOnUse">
      <feOffset dy="3" input="SourceAlpha"/>
      <feGaussianBlur stdDeviation="3" result="blur"/>
      <feFlood flood-opacity="0.161"/>
      <feComposite operator="in" in2="blur"/>
      <feComposite in="SourceGraphic"/>
    </filter>
    <filter id="矩形_1" x="66" y="61" width="133" height="139" filterUnits="userSpaceOnUse">
      <feOffset dy="3" input="SourceAlpha"/>
      <feGaussianBlur stdDeviation="3" result="blur-2"/>
      <feFlood flood-opacity="0.161"/>
      <feComposite operator="in" in2="blur-2"/>
      <feComposite in="SourceGraphic"/>
    </filter>
    <filter id="矩形_22" x="50" y="124" width="80" height="80" filterUnits="userSpaceOnUse">
      <feOffset dy="3" input="SourceAlpha"/>
      <feGaussianBlur stdDeviation="3" result="blur-3"/>
      <feFlood flood-opacity="0.161"/>
      <feComposite operator="in" in2="blur-3"/>
      <feComposite in="SourceGraphic"/>
    </filter>
    <filter id="路径_4" x="67.977" y="142.319" width="44.961" height="46.681" filterUnits="userSpaceOnUse">
      <feOffset dy="3" input="SourceAlpha"/>
      <feGaussianBlur stdDeviation="3" result="blur-4"/>
      <feFlood flood-opacity="0.161"/>
      <feComposite operator="in" in2="blur-4"/>
      <feComposite in="SourceGraphic"/>
    </filter>
    <clipPath id="clip-表格">
      <rect width="256" height="256"/>
    </clipPath>
  </defs>
  <g id="表格" clip-path="url(#clip-表格)">
    <g transform="matrix(1, 0, 0, 1, 0, 0)" filter="url(#矩形_21)">
      <rect id="矩形_21-2" data-name="矩形 21" width="173" height="173" rx="28" transform="translate(42 42)" fill="#f6f6f6"/>
    </g>
    <g transform="matrix(1, 0, 0, 1, 0, 0)" filter="url(#矩形_1)">
      <rect id="矩形_1-2" data-name="矩形 1" width="115" height="121" rx="28" transform="translate(75 67)" fill="#92c48d"/>
    </g>
    <g transform="matrix(1, 0, 0, 1, 0, 0)" filter="url(#矩形_22)">
      <rect id="矩形_22-2" data-name="矩形 22" width="62" height="62" rx="13" transform="translate(59 130)" fill="#67a960"/>
    </g>
    <g transform="matrix(1, 0, 0, 1, 0, 0)" filter="url(#路径_4)">
      <path id="路径_4-2" data-name="路径 4" d="M-3.762-14.491l-9.417-14.19H-5.7l5.633,9.46,6.106-9.46h7.4L3.72-14.491,13.438,0H6.257L-.064-9.847-6.257,0h-7.267Z" transform="translate(90.5 177)" fill="#fff"/>
    </g>
  </g>
</svg>
