<svg xmlns="http://www.w3.org/2000/svg" xmlns:xlink="http://www.w3.org/1999/xlink" width="256" height="256" viewBox="0 0 256 256"><defs><style>.a{clip-path:url(#b);}.b{fill:#0a59f7;}.c,.g{fill:none;}.c{stroke-linecap:round;}.d,.f{fill:#fff;}.d{stroke:#0a59f7;stroke-width:8px;}.e,.f{stroke:none;}</style><clipPath id="b"><rect width="256" height="256"/></clipPath></defs><g id="a" class="a"><rect class="b" width="256" height="256" rx="28"/><g class="c" transform="translate(49 37)"><path class="e" d="M30,0H140a30,30,0,0,1,30,30V149a30,30,0,0,1-30,30H30A30,30,0,0,1,0,149V30A30,30,0,0,1,30,0Z"/><path class="f" d="M 30 18 C 23.38316345214844 18 18 23.38316345214844 18 30 L 18 149 C 18 155.6168365478516 23.38316345214844 161 30 161 L 140 161 C 146.6168365478516 161 152 155.6168365478516 152 149 L 152 30 C 152 23.38316345214844 146.6168365478516 18 140 18 L 30 18 M 30 0 L 140 0 C 156.5685424804688 0 170 13.43145751953125 170 30 L 170 149 C 170 165.5685424804688 156.5685424804688 179 140 179 L 30 179 C 13.43145751953125 179 0 165.5685424804688 0 149 L 0 30 C 0 13.43145751953125 13.43145751953125 0 30 0 Z"/></g><g class="d" transform="translate(25 130)"><rect class="e" width="92" height="92" rx="13"/><rect class="g" x="4" y="4" width="84" height="84" rx="9"/></g><path class="b" d="M.921-7.683l-13.935-21H-1.943l8.336,14,9.035-14H26.373l-14.38,21L26.373,13.76H15.746L6.393-.811-2.77,13.76H-13.524Z" transform="translate(64.281 183.009)"/></g></svg>