<svg xmlns="http://www.w3.org/2000/svg" xmlns:xlink="http://www.w3.org/1999/xlink" width="256" height="256" viewBox="0 0 256 256"><defs><style>.a{clip-path:url(#j);}.b{fill:#f6f6f6;}.c{fill:#92c48d;}.d{fill:#67a960;}.e{fill:#fff;}.f{filter:url(#g);}.g{filter:url(#e);}.h{filter:url(#c);}.i{filter:url(#a);}</style><filter id="a" x="33" y="36" width="191" height="191" filterUnits="userSpaceOnUse"><feOffset dy="3" input="SourceAlpha"/><feGaussianBlur stdDeviation="3" result="b"/><feFlood flood-opacity="0.161"/><feComposite operator="in" in2="b"/><feComposite in="SourceGraphic"/></filter><filter id="c" x="66" y="61" width="133" height="139" filterUnits="userSpaceOnUse"><feOffset dy="3" input="SourceAlpha"/><feGaussianBlur stdDeviation="3" result="d"/><feFlood flood-opacity="0.161"/><feComposite operator="in" in2="d"/><feComposite in="SourceGraphic"/></filter><filter id="e" x="50" y="124" width="80" height="80" filterUnits="userSpaceOnUse"><feOffset dy="3" input="SourceAlpha"/><feGaussianBlur stdDeviation="3" result="f"/><feFlood flood-opacity="0.161"/><feComposite operator="in" in2="f"/><feComposite in="SourceGraphic"/></filter><filter id="g" x="67.977" y="142.319" width="44.961" height="46.681" filterUnits="userSpaceOnUse"><feOffset dy="3" input="SourceAlpha"/><feGaussianBlur stdDeviation="3" result="h"/><feFlood flood-opacity="0.161"/><feComposite operator="in" in2="h"/><feComposite in="SourceGraphic"/></filter><clipPath id="j"><rect width="256" height="256"/></clipPath></defs><g id="i" class="a"><g class="i" transform="matrix(1, 0, 0, 1, 0, 0)"><rect class="b" width="173" height="173" rx="28" transform="translate(42 42)"/></g><g class="h" transform="matrix(1, 0, 0, 1, 0, 0)"><rect class="c" width="115" height="121" rx="28" transform="translate(75 67)"/></g><g class="g" transform="matrix(1, 0, 0, 1, 0, 0)"><rect class="d" width="62" height="62" rx="13" transform="translate(59 130)"/></g><g class="f" transform="matrix(1, 0, 0, 1, 0, 0)"><path class="e" d="M-3.762-14.491l-9.417-14.19H-5.7l5.633,9.46,6.106-9.46h7.4L3.72-14.491,13.438,0H6.257L-.064-9.847-6.257,0h-7.267Z" transform="translate(90.5 177)"/></g></g></svg>