<svg xmlns="http://www.w3.org/2000/svg" xmlns:xlink="http://www.w3.org/1999/xlink" width="256" height="256" viewBox="0 0 256 256"><defs><style>.a{clip-path:url(#h);}.b{fill:url(#a);}.c{fill:url(#d);}.d{filter:url(#e);}.e{filter:url(#b);}</style><linearGradient id="a" x1="0.152" y1="0.034" x2="0.919" y2="0.929" gradientUnits="objectBoundingBox"><stop offset="0" stop-color="#fb914e"/><stop offset="1" stop-color="#8f63bd"/></linearGradient><filter id="b" x="5" y="8" width="246" height="246" filterUnits="userSpaceOnUse"><feOffset dy="3" input="SourceAlpha"/><feGaussianBlur stdDeviation="3" result="c"/><feFlood flood-opacity="0.161"/><feComposite operator="in" in2="c"/><feComposite in="SourceGraphic"/></filter><linearGradient id="d" y1="0.696" x2="1" y2="0.312" gradientUnits="objectBoundingBox"><stop offset="0" stop-color="#f6f6f6"/><stop offset="1" stop-color="#f0f0f0" stop-opacity="0.412"/></linearGradient><filter id="e" x="72" y="59" width="128" height="144.5" filterUnits="userSpaceOnUse"><feOffset dy="3" input="SourceAlpha"/><feGaussianBlur stdDeviation="3" result="f"/><feFlood flood-opacity="0.161"/><feComposite operator="in" in2="f"/><feComposite in="SourceGraphic"/></filter><clipPath id="h"><rect width="256" height="256"/></clipPath></defs><g id="g" class="a"><g class="e" transform="matrix(1, 0, 0, 1, 0, 0)"><rect class="b" width="228" height="228" rx="19" transform="translate(14 14)"/></g><g class="d" transform="matrix(1, 0, 0, 1, 0, 0)"><path class="c" d="M55.448,13.569a9,9,0,0,1,15.6,0l47.693,82.945a9,9,0,0,1-7.8,13.486H15.557a9,9,0,0,1-7.8-13.486Z" transform="translate(191 65) rotate(90)"/></g></g></svg>