<svg xmlns="http://www.w3.org/2000/svg" xmlns:xlink="http://www.w3.org/1999/xlink" width="256" height="256" viewBox="0 0 256 256"><defs><style>.a{clip-path:url(#b);}.b{fill:#0a59f7;}.c,.d{fill:#fff;stroke:#fff;stroke-width:26px;}.c{opacity:0;}</style><clipPath id="b"><rect width="256" height="256"/></clipPath></defs><g id="a" class="a"><rect class="b" width="256" height="256" rx="82"/><g transform="translate(33 33)"><rect class="c" width="190" height="190"/><g transform="translate(17.655 45.759)"><path class="d" d="M59.785,104.028a17.5,17.5,0,0,0,6.333-1.188,16.467,16.467,0,0,0,5.3-3.563l83.6-83.206a5.859,5.859,0,0,0,1.663-4.2,5.859,5.859,0,0,0-1.663-4.2,5.491,5.491,0,0,0-4.2-1.9,5.99,5.99,0,0,0-4.354,1.9l-83.6,83.285a4.376,4.376,0,0,1-3.088,1.267,4.287,4.287,0,0,1-3.008-1.267L12.522,47.027a5.244,5.244,0,0,0-4.2-1.821,6.5,6.5,0,0,0-4.2,1.821,5.583,5.583,0,0,0,0,8.392L48.385,99.278a15.548,15.548,0,0,0,11.4,4.75Z" transform="translate(-2.23 -5.78)"/></g></g></g></svg>