<svg xmlns="http://www.w3.org/2000/svg" xmlns:xlink="http://www.w3.org/1999/xlink" width="256" height="256" viewBox="0 0 256 256"><defs><filter id="a" x="9" y="12" width="238" height="238" filterUnits="userSpaceOnUse"><feOffset dy="3" input="SourceAlpha"/><feGaussianBlur stdDeviation="3" result="b"/><feFlood flood-opacity="0.161"/><feComposite operator="in" in2="b"/><feComposite in="SourceGraphic"/></filter><filter id="c" x="53.832" y="63.747" width="148" height="133.55" filterUnits="userSpaceOnUse"><feOffset dy="3" input="SourceAlpha"/><feGaussianBlur stdDeviation="3" result="d"/><feFlood flood-opacity="0.161"/><feComposite operator="in" in2="d"/><feComposite in="SourceGraphic"/></filter><clipPath id="f"><rect width="256" height="256"/></clipPath></defs><g id="e" clip-path="url(#f)"><g transform="matrix(1, 0, 0, 1, 0, 0)" filter="url(#a)"><g transform="translate(18 18)" fill="#997ce6" stroke="#7a5ccc" stroke-width="3"><rect width="220" height="220" rx="28" stroke="none"/><rect x="1.5" y="1.5" width="217" height="217" rx="26.5" fill="none"/></g></g><g transform="matrix(1, 0, 0, 1, 0, 0)" filter="url(#c)"><path d="M129.832,150.121l-.209,2.939H113.331l.3-3.437c.311-3.553.123-18.061.022-25.853l-.051-4.34c0-.426-.007-.9.022-1.387-.643-6.434-1.87-13.973-6.073-21.166-13.388-22.827-43.379-30.944-66.9-18.133-17.6,11.222-22.625,18.667-24.416,36.15-.231,2.26-.065,31.384.014,34.937l.072,3.228H.07l-.036-3.127c-.014-1.285-.116-31.363.116-33.919C2,95.181,13.459,77.387,32.4,65.919a62.046,62.046,0,0,1,48.181-7.106,64.663,64.663,0,0,1,40.476,31.919c4.846,8.81,7.814,15.772,8.637,25.289.318,3.676.426,30.128.137,34.1ZM35.73,121.04a9.677,9.677,0,0,1,9.734,9.59v32.114a9.736,9.736,0,0,1-19.469,0V130.63a9.677,9.677,0,0,1,9.734-9.59Zm58.414,0a9.677,9.677,0,0,1,9.734,9.59v32.114a9.736,9.736,0,0,1-19.469,0V130.63A9.677,9.677,0,0,1,94.144,121.04Z" transform="translate(62.83 12.97)" fill="#f6f6f6"/></g></g></svg>