<svg xmlns="http://www.w3.org/2000/svg" xmlns:xlink="http://www.w3.org/1999/xlink" width="256" height="256" viewBox="0 0 256 256"><defs><style>.a{clip-path:url(#b);}.b{fill:#0a59f7;}.c{fill:#fefefe;}</style><clipPath id="b"><rect width="256" height="256"/></clipPath></defs><g id="a" class="a"><rect class="b" width="256" height="256" rx="28"/><path class="c" d="M155.591,168.641l-.251,3.522H135.816l.363-4.119c.372-4.258.147-21.644.026-30.982l-.061-5.2c0-.511-.009-1.082.026-1.662-.77-7.711-2.241-16.746-7.278-25.365C112.848,77.478,76.907,67.75,48.721,83.1c-21.09,13.448-27.113,22.371-29.26,43.323-.277,2.709-.078,37.611.017,41.869l.087,3.868H.084l-.043-3.747c-.017-1.54-.138-37.585.138-40.649C2.4,102.8,16.129,81.476,38.829,67.733A74.356,74.356,0,0,1,96.57,59.218c20.657,5.392,37.888,18.97,48.506,38.251,5.807,10.558,9.364,18.9,10.35,30.307.381,4.4.511,36.105.164,40.865ZM42.819,133.79a11.6,11.6,0,0,1,11.666,11.493v38.485a11.667,11.667,0,0,1-23.332,0V145.283A11.6,11.6,0,0,1,42.819,133.79Zm70,0a11.6,11.6,0,0,1,11.666,11.493v38.485a11.667,11.667,0,0,1-23.332,0V145.283A11.6,11.6,0,0,1,112.822,133.79Z" transform="translate(48.832 1.969)"/></g></svg>