<svg xmlns="http://www.w3.org/2000/svg" xmlns:xlink="http://www.w3.org/1999/xlink" width="256" height="256" viewBox="0 0 256 256"><defs><style>.a{clip-path:url(#f);}.b{fill:#b876e9;}.c{fill:#fff;}.d{filter:url(#c);}.e{filter:url(#a);}</style><filter id="a" x="33" y="36" width="191" height="191" filterUnits="userSpaceOnUse"><feOffset dy="3" input="SourceAlpha"/><feGaussianBlur stdDeviation="3" result="b"/><feFlood flood-opacity="0.161"/><feComposite operator="in" in2="b"/><feComposite in="SourceGraphic"/></filter><filter id="c" x="66" y="75.7" width="123.282" height="111.579" filterUnits="userSpaceOnUse"><feOffset dy="3" input="SourceAlpha"/><feGaussianBlur stdDeviation="3" result="d"/><feFlood flood-opacity="0.161"/><feComposite operator="in" in2="d"/><feComposite in="SourceGraphic"/></filter><clipPath id="f"><rect width="256" height="256"/></clipPath></defs><g id="e" class="a"><g class="e" transform="matrix(1, 0, 0, 1, 0, 0)"><rect class="b" width="173" height="173" rx="28" transform="translate(42 42)"/></g><g class="d" transform="matrix(1, 0, 0, 1, 0, 0)"><path class="c" d="M105.145,132.372l-.17,2.38H91.782l.246-2.784c.251-2.877.1-14.627.018-20.937L92,107.517c0-.345-.006-.731.018-1.123-.521-5.211-1.515-11.316-4.918-17.141C76.261,70.766,51.973,64.193,32.925,74.568,18.672,83.656,14.6,89.686,13.151,103.844c-.187,1.831-.053,25.417.012,28.294l.058,2.614H.057L.028,132.22c-.012-1.041-.094-25.4.094-27.47C1.619,87.879,10.9,73.468,26.24,64.181a50.249,50.249,0,0,1,39.02-5.755,52.368,52.368,0,0,1,32.78,25.85c3.924,7.135,6.328,12.773,6.995,20.481.257,2.977.345,24.4.111,27.616ZM28.936,108.821a7.837,7.837,0,0,1,7.884,7.767V142.6a7.885,7.885,0,0,1-15.767,0V116.588a7.837,7.837,0,0,1,7.884-7.767Zm47.307,0a7.837,7.837,0,0,1,7.884,7.767V142.6a7.885,7.885,0,0,1-15.767,0V116.588A7.837,7.837,0,0,1,76.243,108.821Z" transform="translate(75 24.92)"/></g></g></svg>