<svg xmlns="http://www.w3.org/2000/svg" xmlns:xlink="http://www.w3.org/1999/xlink" width="256" height="256" viewBox="0 0 256 256">
  <defs>
    <linearGradient id="linear-gradient" x1="0.168" y1="0.028" x2="0.924" y2="0.985" gradientUnits="objectBoundingBox">
      <stop offset="0" stop-color="#a36ff1"/>
      <stop offset="1" stop-color="#4b4bd2"/>
    </linearGradient>
    <filter id="减去_7" x="24.589" y="6.25" width="206.822" height="249.501" filterUnits="userSpaceOnUse">
      <feOffset dy="3" input="SourceAlpha"/>
      <feGaussianBlur stdDeviation="3" result="blur"/>
      <feFlood flood-opacity="0.161"/>
      <feComposite operator="in" in2="blur"/>
      <feComposite in="SourceGraphic"/>
    </filter>
    <filter id="减去_7-2" x="24.589" y="6.25" width="206.822" height="249.501" filterUnits="userSpaceOnUse">
      <feOffset dx="-1" dy="-1" input="SourceAlpha"/>
      <feGaussianBlur stdDeviation="1" result="blur-2"/>
      <feFlood flood-color="#1915a1" result="color"/>
      <feComposite operator="out" in="SourceGraphic" in2="blur-2"/>
      <feComposite operator="in" in="color"/>
      <feComposite operator="in" in2="SourceGraphic"/>
    </filter>
    <filter id="减去_5" x="33.589" y="12.25" width="188.822" height="231.501" filterUnits="userSpaceOnUse">
      <feOffset dx="1" dy="3" input="SourceAlpha"/>
      <feGaussianBlur stdDeviation="2.5" result="blur-3"/>
      <feFlood flood-color="#fefefe" result="color-2"/>
      <feComposite operator="out" in="SourceGraphic" in2="blur-3"/>
      <feComposite operator="in" in="color-2"/>
      <feComposite operator="in" in2="SourceGraphic"/>
    </filter>
    <linearGradient id="linear-gradient-2" x1="0.779" y1="1.423" x2="0.386" y2="0.5" gradientUnits="objectBoundingBox">
      <stop offset="0" stop-color="#533bac"/>
      <stop offset="1" stop-color="#745be0"/>
    </linearGradient>
    <linearGradient id="linear-gradient-3" x1="0.451" y1="0.245" x2="0.281" y2="1" gradientUnits="objectBoundingBox">
      <stop offset="0" stop-color="#8362e5"/>
      <stop offset="1" stop-color="#9469ec"/>
    </linearGradient>
    <linearGradient id="linear-gradient-4" x1="0.658" x2="0.352" y2="0.955" gradientUnits="objectBoundingBox">
      <stop offset="0" stop-color="#f1eeff"/>
      <stop offset="1" stop-color="#fff"/>
    </linearGradient>
    <filter id="路径_73" x="82.379" y="73.653" width="91.242" height="131.089" filterUnits="userSpaceOnUse">
      <feOffset dy="3" input="SourceAlpha"/>
      <feGaussianBlur stdDeviation="3" result="blur-4"/>
      <feFlood flood-opacity="0.161"/>
      <feComposite operator="in" in2="blur-4"/>
      <feComposite in="SourceGraphic"/>
    </filter>
    <clipPath id="clip-音乐_3">
      <rect width="256" height="256"/>
    </clipPath>
  </defs>
  <g id="音乐_3" data-name="音乐 – 3" clip-path="url(#clip-音乐_3)">
    <g data-type="innerShadowGroup">
      <g transform="matrix(1, 0, 0, 1, 0, 0)" filter="url(#减去_7)">
        <path id="减去_7-3" data-name="减去 7" d="M171.822,231.5H17a17,17,0,0,1-17-17V17A17,17,0,0,1,17,0H136.485l52.337,52.337V214.5a17,17,0,0,1-17,17Z" transform="translate(33.59 12.25)" fill="url(#linear-gradient)"/>
      </g>
      <g transform="matrix(1, 0, 0, 1, 0, 0)" filter="url(#减去_7-2)">
        <path id="减去_7-4" data-name="减去 7" d="M171.822,231.5H17a17,17,0,0,1-17-17V17A17,17,0,0,1,17,0H136.485l52.337,52.337V214.5a17,17,0,0,1-17,17Z" transform="translate(33.59 12.25)" fill="#fff"/>
      </g>
    </g>
    <g transform="matrix(1, 0, 0, 1, 0, 0)" filter="url(#减去_5)">
      <path id="减去_5-2" data-name="减去 5" d="M171.822,231.5H17a17,17,0,0,1-17-17V17A17,17,0,0,1,17,0H136.485l52.337,52.337V214.5a17,17,0,0,1-17,17Z" transform="translate(33.59 12.25)" fill="#fff" opacity="0.3"/>
    </g>
    <path id="减去_6" data-name="减去 6" d="M49.5,53.714H10a10.012,10.012,0,0,1-10-10V0L49.5,53.712Z" transform="translate(217.854 113.47) rotate(180)" fill="url(#linear-gradient-2)"/>
    <path id="减去_4" data-name="减去 4" d="M53.714,53.714H10a10.011,10.011,0,0,1-10-10V0L53.712,53.712Z" transform="translate(169.041 11.905)" fill="url(#linear-gradient-3)"/>
    <g transform="matrix(1, 0, 0, 1, 0, 0)" filter="url(#路径_73)">
      <path id="路径_73-2" data-name="路径 73" d="M322.873,112.094c-23.213,7.49-19.713-1.582-32.761-3.822-18.523-3.164-13.217,18.635-13.217,18.635l12.825,47.406a26.185,26.185,0,0,0-13.833-3.92c-14.295,0-25.887,11.341-25.887,25.327s11.579,25.327,25.887,25.327,25.887-11.341,25.887-25.327c0-.364-.014-.728-.028-1.092a1.769,1.769,0,0,0,.1-.35c.8-4.592-11.747-63.073-11.747-63.073s13.259,7.1,22.989.476c11.186-7.588,10.556-19.825,9.786-19.587Zm0,0" transform="translate(-158.62 -28.3)" fill="url(#linear-gradient-4)"/>
    </g>
  </g>
</svg>
