<svg xmlns="http://www.w3.org/2000/svg" xmlns:xlink="http://www.w3.org/1999/xlink" width="256" height="256" viewBox="0 0 256 256"><defs><style>.a{clip-path:url(#h);}.b{fill:url(#a);}.c{fill:url(#d);}.d{filter:url(#e);}.e{filter:url(#b);}</style><linearGradient id="a" x1="0.152" y1="0.034" x2="0.919" y2="0.929" gradientUnits="objectBoundingBox"><stop offset="0" stop-color="#e17ae8"/><stop offset="1" stop-color="#8743e0"/></linearGradient><filter id="b" x="5" y="8" width="246" height="246" filterUnits="userSpaceOnUse"><feOffset dy="3" input="SourceAlpha"/><feGaussianBlur stdDeviation="3" result="c"/><feFlood flood-opacity="0.161"/><feComposite operator="in" in2="c"/><feComposite in="SourceGraphic"/></filter><linearGradient id="d" x1="0.5" x2="0.5" y2="1" gradientUnits="objectBoundingBox"><stop offset="0" stop-color="#f6f6f6"/><stop offset="1" stop-color="#efefef" stop-opacity="0.631"/></linearGradient><filter id="e" x="47" y="58" width="162.679" height="146.597" filterUnits="userSpaceOnUse"><feOffset dy="3" input="SourceAlpha"/><feGaussianBlur stdDeviation="3" result="f"/><feFlood flood-opacity="0.161"/><feComposite operator="in" in2="f"/><feComposite in="SourceGraphic"/></filter><clipPath id="h"><rect width="256" height="256"/></clipPath></defs><g id="g" class="a"><g class="e" transform="matrix(1, 0, 0, 1, 0, 0)"><rect class="b" width="228" height="228" rx="19" transform="translate(14 14)"/></g><g class="d" transform="matrix(1, 0, 0, 1, 0, 0)"><path class="c" d="M144.492,160.661l-.233,3.271H126.128l.338-3.826c.346-3.954.137-20.1.024-28.772l-.056-4.83c0-.474-.008-1,.024-1.543-.715-7.161-2.082-15.551-6.759-23.556C104.8,76,71.421,66.968,45.245,81.225,25.66,93.714,20.066,102,18.073,121.457c-.257,2.516-.072,34.928.016,38.882l.08,3.592H.078l-.04-3.48c-.016-1.431-.129-34.9.129-37.749C2.224,99.517,14.979,79.714,36.059,66.952a69.052,69.052,0,0,1,53.622-7.908c19.184,5.007,35.185,17.617,45.046,35.523,5.393,9.8,8.7,17.552,9.612,28.145.354,4.091.474,33.53.153,37.95ZM39.764,128.3A10.769,10.769,0,0,1,50.6,138.97v35.74a10.835,10.835,0,0,1-21.667,0V138.97A10.769,10.769,0,0,1,39.764,128.3Zm65.01,0a10.769,10.769,0,0,1,10.834,10.673v35.74a10.835,10.835,0,0,1-21.667,0V138.97A10.769,10.769,0,0,1,104.774,128.3Z" transform="translate(56 7.22)"/></g></g></svg>