<svg xmlns="http://www.w3.org/2000/svg" xmlns:xlink="http://www.w3.org/1999/xlink" width="256" height="256" viewBox="0 0 256 256"><defs><style>.a{clip-path:url(#b);}.b{fill:none;}.c,.d{stroke:#000;}.c,.e{stroke-linecap:round;}.c{stroke-linejoin:round;stroke-width:23px;}.e{stroke:#d94d4d;stroke-width:15px;}.f{stroke:none;}</style><clipPath id="b"><rect width="256" height="256"/></clipPath></defs><g id="a" class="a"><rect class="b" width="214" height="167" rx="83.5" transform="translate(21 45)"/><path class="c" d="M32,77.129h0a41.659,41.659,0,0,1-12.727-5.056A40.729,40.729,0,0,1,9.13,63.415,39.008,39.008,0,0,1,2.424,51.974a38.308,38.308,0,0,1,0-26.819A39.007,39.007,0,0,1,9.13,13.714,40.727,40.727,0,0,1,19.271,5.057,41.673,41.673,0,0,1,32,0Z" transform="translate(91 90.1)"/><g class="d" transform="translate(58 99)"><rect class="f" width="43" height="60" rx="18"/><rect class="b" x="0.5" y="0.5" width="42" height="59" rx="17.5"/></g><path class="e" d="M12.35,0,0,54.884" transform="translate(146.725 113.791) rotate(-45)"/><path class="e" d="M0,0,12.35,54.884" transform="translate(185.534 105.059) rotate(45)"/></g></svg>