<svg xmlns="http://www.w3.org/2000/svg" xmlns:xlink="http://www.w3.org/1999/xlink" width="256" height="256" viewBox="0 0 256 256"><defs><style>.a{clip-path:url(#n);}.b{fill:url(#a);}.c{fill:url(#d);}.d{fill:url(#g);}.e{fill:url(#j);}.f{filter:url(#k);}.g{filter:url(#h);}.h{filter:url(#e);}.i{filter:url(#b);}</style><linearGradient id="a" x1="0.048" y1="0.052" x2="0.944" y2="0.964" gradientUnits="objectBoundingBox"><stop offset="0" stop-color="#fff"/><stop offset="1" stop-color="#dfdfdf"/></linearGradient><filter id="b" x="33" y="36" width="191" height="191" filterUnits="userSpaceOnUse"><feOffset dy="3" input="SourceAlpha"/><feGaussianBlur stdDeviation="3" result="c"/><feFlood flood-opacity="0.161"/><feComposite operator="in" in2="c"/><feComposite in="SourceGraphic"/></filter><linearGradient id="d" x1="0.048" y1="0.052" x2="0.944" y2="0.964" gradientUnits="objectBoundingBox"><stop offset="0" stop-color="#bbeaf7"/><stop offset="1" stop-color="#5da1d5"/></linearGradient><filter id="e" x="68.91" y="133.511" width="118.349" height="56.077" filterUnits="userSpaceOnUse"><feOffset dy="3" input="SourceAlpha"/><feGaussianBlur stdDeviation="3" result="f"/><feFlood flood-opacity="0.161"/><feComposite operator="in" in2="f"/><feComposite in="SourceGraphic"/></filter><linearGradient id="g" x1="0.048" y1="0.052" x2="0.944" y2="0.964" gradientUnits="objectBoundingBox"><stop offset="0" stop-color="#f7bbf1"/><stop offset="1" stop-color="#d55d5d"/></linearGradient><filter id="h" x="69" y="113" width="119" height="57" filterUnits="userSpaceOnUse"><feOffset dy="3" input="SourceAlpha"/><feGaussianBlur stdDeviation="3" result="i"/><feFlood flood-opacity="0.161"/><feComposite operator="in" in2="i"/><feComposite in="SourceGraphic"/></filter><linearGradient id="j" x1="0.952" y1="0.052" x2="0.056" y2="0.964" gradientUnits="objectBoundingBox"><stop offset="0" stop-color="#f57e7e"/><stop offset="1" stop-color="#f1cb8b"/></linearGradient><filter id="k" x="69" y="73" width="119" height="79" filterUnits="userSpaceOnUse"><feOffset dy="3" input="SourceAlpha"/><feGaussianBlur stdDeviation="3" result="l"/><feFlood flood-opacity="0.161"/><feComposite operator="in" in2="l"/><feComposite in="SourceGraphic"/></filter><clipPath id="n"><rect width="256" height="256"/></clipPath></defs><g id="m" class="a"><g class="i" transform="matrix(1, 0, 0, 1, 0, 0)"><rect class="b" width="173" height="173" rx="28" transform="translate(42 42)"/></g><g class="h" transform="matrix(1, 0, 0, 1, 0, 0)"><rect class="c" width="99.73" height="36.342" rx="18.171" transform="matrix(1, -0.02, 0.02, 1, 77.91, 141.25)"/></g><g class="g" transform="matrix(1, 0, 0, 1, 0, 0)"><rect class="d" width="101" height="39" rx="19.5" transform="translate(78 119)"/></g><g class="f" transform="matrix(1, 0, 0, 1, 0, 0)"><rect class="e" width="101" height="61" rx="28" transform="translate(78 79)"/></g></g></svg>