<svg xmlns="http://www.w3.org/2000/svg" xmlns:xlink="http://www.w3.org/1999/xlink" width="256" height="256" viewBox="0 0 256 256">
  <defs>
    <linearGradient id="linear-gradient" x1="0.048" y1="0.052" x2="0.944" y2="0.964" gradientUnits="objectBoundingBox">
      <stop offset="0" stop-color="#fff"/>
      <stop offset="1" stop-color="#dfdfdf"/>
    </linearGradient>
    <filter id="矩形_1" x="33" y="36" width="191" height="191" filterUnits="userSpaceOnUse">
      <feOffset dy="3" input="SourceAlpha"/>
      <feGaussianBlur stdDeviation="3" result="blur"/>
      <feFlood flood-opacity="0.161"/>
      <feComposite operator="in" in2="blur"/>
      <feComposite in="SourceGraphic"/>
    </filter>
    <linearGradient id="linear-gradient-2" x1="0.265" y1="0.423" x2="0.925" y2="0.953" gradientUnits="objectBoundingBox">
      <stop offset="0" stop-color="#78bcd1"/>
      <stop offset="1" stop-color="#b8f2f6"/>
    </linearGradient>
    <filter id="多边形_2" x="63" y="73" width="94" height="84" filterUnits="userSpaceOnUse">
      <feOffset dy="3" input="SourceAlpha"/>
      <feGaussianBlur stdDeviation="3" result="blur-2"/>
      <feFlood flood-opacity="0.161"/>
      <feComposite operator="in" in2="blur-2"/>
      <feComposite in="SourceGraphic"/>
    </filter>
    <linearGradient id="linear-gradient-3" x1="0.168" y1="0.251" x2="1" y2="0.929" gradientUnits="objectBoundingBox">
      <stop offset="0" stop-color="#e7dc49"/>
      <stop offset="1" stop-color="#df8c39"/>
    </linearGradient>
    <filter id="椭圆_1" x="108" y="107" width="85" height="83" filterUnits="userSpaceOnUse">
      <feOffset dy="3" input="SourceAlpha"/>
      <feGaussianBlur stdDeviation="3" result="blur-3"/>
      <feFlood flood-opacity="0.161"/>
      <feComposite operator="in" in2="blur-3"/>
      <feComposite in="SourceGraphic"/>
    </filter>
    <clipPath id="clip-图像">
      <rect width="256" height="256"/>
    </clipPath>
  </defs>
  <g id="图像" clip-path="url(#clip-图像)">
    <g transform="matrix(1, 0, 0, 1, 0, 0)" filter="url(#矩形_1)">
      <rect id="矩形_1-2" data-name="矩形 1" width="173" height="173" rx="28" transform="translate(42 42)" fill="url(#linear-gradient)"/>
    </g>
    <g transform="matrix(1, 0, 0, 1, 0, 0)" filter="url(#多边形_2)">
      <path id="多边形_2-2" data-name="多边形 2" d="M31.934,10.536a7,7,0,0,1,12.133,0L69.959,55.507A7,7,0,0,1,63.892,66H12.108A7,7,0,0,1,6.041,55.507Z" transform="translate(72 79)" fill="url(#linear-gradient-2)"/>
    </g>
    <g transform="matrix(1, 0, 0, 1, 0, 0)" filter="url(#椭圆_1)">
      <ellipse id="椭圆_1-2" data-name="椭圆 1" cx="33.5" cy="32.5" rx="33.5" ry="32.5" transform="translate(117 113)" fill="url(#linear-gradient-3)"/>
    </g>
  </g>
</svg>
