<svg xmlns="http://www.w3.org/2000/svg" xmlns:xlink="http://www.w3.org/1999/xlink" width="256" height="256" viewBox="0 0 256 256"><defs><style>.a{clip-path:url(#k);}.b{fill:url(#a);}.c{fill:url(#d);}.d{fill:url(#g);}.e{filter:url(#h);}.f{filter:url(#e);}.g{filter:url(#b);}</style><linearGradient id="a" x1="0.048" y1="0.052" x2="0.944" y2="0.964" gradientUnits="objectBoundingBox"><stop offset="0" stop-color="#fff"/><stop offset="1" stop-color="#dfdfdf"/></linearGradient><filter id="b" x="33" y="42" width="191" height="179" filterUnits="userSpaceOnUse"><feOffset dy="3" input="SourceAlpha"/><feGaussianBlur stdDeviation="3" result="c"/><feFlood flood-opacity="0.161"/><feComposite operator="in" in2="c"/><feComposite in="SourceGraphic"/></filter><linearGradient id="d" x1="0.265" y1="0.423" x2="0.925" y2="0.953" gradientUnits="objectBoundingBox"><stop offset="0" stop-color="#78bcd1"/><stop offset="1" stop-color="#b8f2f6"/></linearGradient><filter id="e" x="63" y="73" width="94" height="84" filterUnits="userSpaceOnUse"><feOffset dy="3" input="SourceAlpha"/><feGaussianBlur stdDeviation="3" result="f"/><feFlood flood-opacity="0.161"/><feComposite operator="in" in2="f"/><feComposite in="SourceGraphic"/></filter><linearGradient id="g" x1="0.168" y1="0.251" x2="1" y2="0.929" gradientUnits="objectBoundingBox"><stop offset="0" stop-color="#e7dc49"/><stop offset="1" stop-color="#df8c39"/></linearGradient><filter id="h" x="108" y="107" width="85" height="83" filterUnits="userSpaceOnUse"><feOffset dy="3" input="SourceAlpha"/><feGaussianBlur stdDeviation="3" result="i"/><feFlood flood-opacity="0.161"/><feComposite operator="in" in2="i"/><feComposite in="SourceGraphic"/></filter><clipPath id="k"><rect width="256" height="256"/></clipPath></defs><g id="j" class="a"><g class="g" transform="matrix(1, 0, 0, 1, 0, 0)"><rect class="b" width="173" height="161" rx="28" transform="translate(42 48)"/></g><g class="f" transform="matrix(1, 0, 0, 1, 0, 0)"><path class="c" d="M31.934,10.536a7,7,0,0,1,12.133,0L69.959,55.507A7,7,0,0,1,63.892,66H12.108A7,7,0,0,1,6.041,55.507Z" transform="translate(72 79)"/></g><g class="e" transform="matrix(1, 0, 0, 1, 0, 0)"><ellipse class="d" cx="33.5" cy="32.5" rx="33.5" ry="32.5" transform="translate(117 113)"/></g></g></svg>