<svg xmlns="http://www.w3.org/2000/svg" xmlns:xlink="http://www.w3.org/1999/xlink" width="256" height="256" viewBox="0 0 256 256"><defs><style>.a{clip-path:url(#h);}.b{fill:url(#a);}.c{fill:url(#d);}.d{filter:url(#e);}.e{filter:url(#b);}</style><linearGradient id="a" x1="0.048" y1="0.052" x2="0.944" y2="0.964" gradientUnits="objectBoundingBox"><stop offset="0" stop-color="#fff"/><stop offset="1" stop-color="#fff"/></linearGradient><filter id="b" x="49" y="52" width="169" height="159" filterUnits="userSpaceOnUse"><feOffset dy="3" input="SourceAlpha"/><feGaussianBlur stdDeviation="3" result="c"/><feFlood flood-opacity="0.161"/><feComposite operator="in" in2="c"/><feComposite in="SourceGraphic"/></filter><linearGradient id="d" x1="0.952" y1="0.052" x2="0.056" y2="0.964" gradientUnits="objectBoundingBox"><stop offset="0" stop-color="#88bbc8"/><stop offset="1" stop-color="#9cdfa9"/></linearGradient><filter id="e" x="25" y="42" width="205" height="178.999" filterUnits="userSpaceOnUse"><feOffset dy="3" input="SourceAlpha"/><feGaussianBlur stdDeviation="3" result="f"/><feFlood flood-opacity="0.161"/><feComposite operator="in" in2="f"/><feComposite in="SourceGraphic"/></filter><clipPath id="h"><rect width="256" height="256"/></clipPath></defs><g id="g" class="a"><g class="e" transform="matrix(1, 0, 0, 1, 0, 0)"><rect class="b" width="151" height="141" rx="8" transform="translate(58 58)"/></g><g class="d" transform="matrix(1, 0, 0, 1, 0, 0)"><path class="c" d="M17,161A17,17,0,0,1,0,144V22A22,22,0,0,1,22,0H61.482a8,8,0,0,1,8,8V18.3H170a17,17,0,0,1,17,17V144a17,17,0,0,1-17,17Z" transform="translate(34 48)"/></g></g></svg>