<svg xmlns="http://www.w3.org/2000/svg" xmlns:xlink="http://www.w3.org/1999/xlink" width="256" height="256" viewBox="0 0 256 256">
  <defs>
    <linearGradient id="linear-gradient" x1="0.048" y1="0.052" x2="0.944" y2="0.964" gradientUnits="objectBoundingBox">
      <stop offset="0" stop-color="#fff"/>
      <stop offset="1" stop-color="#fff"/>
    </linearGradient>
    <filter id="矩形_8" x="49" y="52" width="169" height="159" filterUnits="userSpaceOnUse">
      <feOffset dy="3" input="SourceAlpha"/>
      <feGaussianBlur stdDeviation="3" result="blur"/>
      <feFlood flood-opacity="0.161"/>
      <feComposite operator="in" in2="blur"/>
      <feComposite in="SourceGraphic"/>
    </filter>
    <linearGradient id="linear-gradient-2" x1="0.952" y1="0.052" x2="0.056" y2="0.964" gradientUnits="objectBoundingBox">
      <stop offset="0" stop-color="#88bbc8"/>
      <stop offset="1" stop-color="#9cdfa9"/>
    </linearGradient>
    <filter id="联合_1" x="25" y="42" width="205" height="178.999" filterUnits="userSpaceOnUse">
      <feOffset dy="3" input="SourceAlpha"/>
      <feGaussianBlur stdDeviation="3" result="blur-2"/>
      <feFlood flood-opacity="0.161"/>
      <feComposite operator="in" in2="blur-2"/>
      <feComposite in="SourceGraphic"/>
    </filter>
    <clipPath id="clip-文件夹">
      <rect width="256" height="256"/>
    </clipPath>
  </defs>
  <g id="文件夹" clip-path="url(#clip-文件夹)">
    <g transform="matrix(1, 0, 0, 1, 0, 0)" filter="url(#矩形_8)">
      <rect id="矩形_8-2" data-name="矩形 8" width="151" height="141" rx="8" transform="translate(58 58)" fill="url(#linear-gradient)"/>
    </g>
    <g transform="matrix(1, 0, 0, 1, 0, 0)" filter="url(#联合_1)">
      <path id="联合_1-2" data-name="联合 1" d="M17,161A17,17,0,0,1,0,144V22A22,22,0,0,1,22,0H61.482a8,8,0,0,1,8,8V18.3H170a17,17,0,0,1,17,17V144a17,17,0,0,1-17,17Z" transform="translate(34 48)" fill="url(#linear-gradient-2)"/>
    </g>
  </g>
</svg>
