<svg xmlns="http://www.w3.org/2000/svg" xmlns:xlink="http://www.w3.org/1999/xlink" width="256" height="256" viewBox="0 0 256 256"><defs><style>.a{clip-path:url(#k);}.b{fill:url(#a);}.c{fill:rgba(255,255,255,0.75);}.d{filter:url(#h);}.e{filter:url(#f);}.f{filter:url(#d);}.g{filter:url(#b);}</style><linearGradient id="a" x1="0.048" y1="0.052" x2="0.944" y2="0.964" gradientUnits="objectBoundingBox"><stop offset="0" stop-color="#bbeaf7"/><stop offset="1" stop-color="#5da1d5"/></linearGradient><filter id="b" x="33" y="42" width="191" height="179" filterUnits="userSpaceOnUse"><feOffset dy="3" input="SourceAlpha"/><feGaussianBlur stdDeviation="3" result="c"/><feFlood flood-opacity="0.161"/><feComposite operator="in" in2="c"/><feComposite in="SourceGraphic"/></filter><filter id="d" x="63" y="83" width="130" height="31" filterUnits="userSpaceOnUse"><feOffset dy="3" input="SourceAlpha"/><feGaussianBlur stdDeviation="3" result="e"/><feFlood flood-opacity="0.161"/><feComposite operator="in" in2="e"/><feComposite in="SourceGraphic"/></filter><filter id="f" x="63" y="116" width="130" height="31" filterUnits="userSpaceOnUse"><feOffset dy="3" input="SourceAlpha"/><feGaussianBlur stdDeviation="3" result="g"/><feFlood flood-opacity="0.161"/><feComposite operator="in" in2="g"/><feComposite in="SourceGraphic"/></filter><filter id="h" x="63" y="149" width="96" height="31" filterUnits="userSpaceOnUse"><feOffset dy="3" input="SourceAlpha"/><feGaussianBlur stdDeviation="3" result="i"/><feFlood flood-opacity="0.161"/><feComposite operator="in" in2="i"/><feComposite in="SourceGraphic"/></filter><clipPath id="k"><rect width="256" height="256"/></clipPath></defs><g id="j" class="a"><g class="g" transform="matrix(1, 0, 0, 1, 0, 0)"><rect class="b" width="173" height="161" rx="28" transform="translate(42 48)"/></g><g class="f" transform="matrix(1, 0, 0, 1, 0, 0)"><rect class="c" width="112" height="13" rx="6.5" transform="translate(72 89)"/></g><g class="e" transform="matrix(1, 0, 0, 1, 0, 0)"><rect class="c" width="112" height="13" rx="6.5" transform="translate(72 122)"/></g><g class="d" transform="matrix(1, 0, 0, 1, 0, 0)"><rect class="c" width="78" height="13" rx="6.5" transform="translate(72 155)"/></g></g></svg>