<svg xmlns="http://www.w3.org/2000/svg" xmlns:xlink="http://www.w3.org/1999/xlink" width="256" height="256" viewBox="0 0 256 256"><defs><style>.a{clip-path:url(#d);}.b{fill:#7c7c7c;}.c,.d{fill:#fff;}.c,.d,.e{stroke:#fff;}.c,.e{stroke-linecap:round;}.c{stroke-linejoin:round;stroke-width:23px;}.e,.g{fill:none;}.e{stroke-width:15px;}.f{stroke:none;}.h{filter:url(#a);}</style><filter id="a" x="12" y="15" width="232" height="232" filterUnits="userSpaceOnUse"><feOffset dy="3" input="SourceAlpha"/><feGaussianBlur stdDeviation="3" result="b"/><feFlood flood-opacity="0.161"/><feComposite operator="in" in2="b"/><feComposite in="SourceGraphic"/></filter><clipPath id="d"><rect width="256" height="256"/></clipPath></defs><g id="c" class="a"><g class="h" transform="matrix(1, 0, 0, 1, 0, 0)"><rect class="b" width="214" height="214" rx="107" transform="translate(21 21)"/></g><path class="c" d="M-1272-651.1h0a34.889,34.889,0,0,1-12.727-8.116,54.4,54.4,0,0,1-10.141-13.9,77.563,77.563,0,0,1-6.706-18.364A94.831,94.831,0,0,1-1304-713a94.831,94.831,0,0,1,2.424-21.524,77.562,77.562,0,0,1,6.706-18.364,54.393,54.393,0,0,1,10.141-13.9A34.9,34.9,0,0,1-1272-774.9Z" transform="translate(1395 841)"/><g class="d" transform="translate(58 98)"><rect class="f" width="43" height="60" rx="18"/><rect class="g" x="0.5" y="0.5" width="42" height="59" rx="17.5"/></g><path class="e" d="M0,0S10.289,2.767,10.289,25.341,0,51.737,0,51.737" transform="translate(148.5 102.5)"/><path class="e" d="M0,0S12.988,5.387,12.988,49.345,0,100.746,0,100.746" transform="translate(174.5 77.5)"/></g></svg>